<svg width="578" height="611" viewBox="0 0 578 611" fill="none" xmlns="http://www.w3.org/2000/svg">
<path d="M284.042 2.88228C282.442 5.14895 281.908 9.41562 281.908 20.8823V35.949H271.775C259.775 35.949 256.575 37.2823 256.575 42.349C256.575 48.2156 258.708 49.2823 270.842 49.2823H281.908V74.4823V99.6823L278.575 100.482C273.642 101.682 264.575 110.482 261.775 116.616C258.708 123.149 258.442 135.949 261.242 141.282L263.242 145.016L269.508 143.016C278.042 140.216 300.442 140.216 308.842 142.882L315.108 145.016L317.108 139.816C322.975 125.282 315.908 108.349 301.242 101.416L295.242 98.6156L295.508 74.2156L295.908 49.949L308.308 49.2823C317.242 48.749 320.975 48.0823 321.908 46.6156C323.908 43.549 323.508 41.549 320.575 38.6156C318.308 36.349 316.175 35.949 306.575 35.949H295.242V19.549C295.242 8.61562 294.708 2.61562 293.642 1.54895C291.108 -0.984383 286.308 -0.317716 284.042 2.88228Z" fill="#C1596C"/>
<path d="M278.042 154.748C268.308 156.615 255.642 163.415 248.708 170.348C242.842 176.215 236.575 185.815 236.575 189.015C236.575 189.681 239.108 190.881 242.308 191.681C251.642 194.081 268.708 203.148 277.775 210.348C282.442 214.215 287.242 217.281 288.442 217.281C289.642 217.281 295.108 213.948 300.575 209.815C311.642 201.415 325.242 194.348 335.375 191.815C338.975 190.881 341.908 189.415 341.908 188.615C341.908 185.948 334.175 174.881 328.442 169.415C321.775 162.881 309.108 156.481 299.375 154.615C291.108 153.148 286.308 153.148 278.042 154.748Z" fill="#C1596C"/>
<path d="M203.242 202.215C167.908 208.349 138.442 232.082 125.108 265.015C115.242 289.415 118.442 329.149 132.575 357.415C140.308 372.749 147.775 382.882 159.775 394.349C169.108 403.149 170.442 403.949 174.308 403.282C178.708 402.615 211.108 398.615 212.842 398.615C213.375 398.615 210.575 394.482 206.842 389.282C180.042 353.815 170.042 318.349 177.908 287.415C181.242 274.215 186.175 265.149 194.708 256.615C206.575 244.615 220.308 240.349 234.175 244.482C244.708 247.549 252.842 254.215 257.775 264.082L261.908 272.349V333.549V394.615L288.308 394.349L314.575 393.949L315.242 331.949L315.908 269.949L319.908 262.749C324.708 254.082 333.242 247.282 342.975 244.482C367.508 237.282 392.708 257.549 400.042 290.215C406.442 319.149 397.242 352.349 373.775 385.282C369.375 391.282 365.908 396.349 366.175 396.615C366.442 396.749 376.308 397.815 388.308 399.149L410.042 401.415L416.175 396.482C423.775 390.215 436.308 374.482 442.442 363.549C452.042 346.349 457.908 322.349 457.908 300.215C457.908 271.949 449.508 251.815 429.242 231.149C414.308 216.082 398.842 207.549 378.975 203.415C350.842 197.549 327.775 204.349 300.975 226.082C295.375 230.615 286.575 231.682 280.575 228.615C278.175 227.415 273.108 223.815 269.108 220.615C251.375 206.082 224.308 198.615 203.242 202.215Z" fill="#C1596C"/>
<path d="M75.375 239.281C37.5083 246.215 12.975 267.948 2.97499 303.548C-0.758339 317.015 -1.02501 340.348 2.44166 353.148C7.10833 370.081 18.0417 390.081 31.5083 405.548C37.9083 413.015 54.4417 425.281 58.0417 425.281C59.1083 425.281 68.175 423.415 78.175 421.015L96.575 416.748L85.375 405.681C40.7083 361.281 36.4417 308.481 76.0417 290.348C81.1083 287.948 85.1083 287.281 94.575 287.148C106.175 287.015 106.575 287.015 106.975 283.815C108.308 271.015 113.508 255.415 120.175 244.881C122.842 240.615 123.108 239.415 121.642 238.481C118.975 236.748 86.4417 237.281 75.375 239.281Z" fill="#C1596C"/>
<path d="M455.508 238.348C454.042 239.414 454.308 240.614 457.108 245.014C463.375 255.014 468.975 271.281 470.175 283.814C470.575 287.014 470.842 287.014 482.575 287.148C493.375 287.281 495.508 287.681 503.508 291.681C535.508 307.414 536.442 349.814 505.775 390.614C501.375 396.348 494.308 404.348 489.908 408.214L482.042 415.414L500.042 420.481C510.442 423.414 519.375 425.148 521.108 424.748C526.042 423.548 539.508 412.748 546.442 404.748C573.775 372.748 583.242 336.881 573.775 302.214C565.108 271.281 542.842 249.681 510.575 241.148C498.842 238.081 458.842 236.081 455.508 238.348Z" fill="#C1596C"/>
<path d="M214.575 258.482C207.908 261.549 198.708 270.749 195.242 277.949C180.575 308.615 190.575 348.615 222.842 388.082L230.575 397.549L237.242 396.749C240.975 396.349 244.975 395.949 246.308 395.949C248.442 395.949 248.575 392.215 248.575 335.015V274.215L245.242 268.482C242.842 264.482 239.908 261.949 234.975 259.415C226.842 255.282 221.908 255.149 214.575 258.482Z" fill="#C1596C"/>
<path d="M342.175 259.415C337.242 261.949 334.308 264.482 331.908 268.482L328.575 274.215V334.215V394.215L338.175 395.149L347.908 396.082L352.175 391.015C366.842 373.815 378.975 352.882 384.575 335.282C390.575 316.349 389.375 292.882 381.775 277.949C375.775 266.215 362.442 256.082 353.108 255.949C350.975 255.949 345.908 257.549 342.175 259.415Z" fill="#C1596C"/>
<path d="M82.0417 302.216C70.575 306.349 61.9083 319.282 61.9083 332.482C62.0417 346.082 68.7083 363.549 79.9083 379.282C85.6417 387.416 101.375 403.149 109.908 409.549L114.575 413.016L132.442 409.816C142.308 408.082 150.575 406.349 150.975 405.949C151.375 405.549 148.575 402.216 144.708 398.349C130.442 383.949 117.508 360.882 111.108 338.749C109.775 333.949 107.908 323.949 106.975 316.216C105.508 303.549 105.108 302.216 102.175 301.149C97.6417 299.416 88.7083 299.816 82.0417 302.216Z" fill="#C1596C"/>
<path d="M474.442 301.149C472.042 302.215 471.508 303.949 470.708 312.749C467.642 345.949 455.242 374.749 434.042 397.549C430.175 401.949 428.842 404.082 430.042 404.482C433.775 405.682 461.375 410.615 463.908 410.615C467.508 410.615 485.642 394.615 494.175 383.949C503.242 372.349 512.175 353.815 514.175 341.815C517.108 324.215 511.242 310.082 498.442 303.815C491.508 300.482 479.108 299.149 474.442 301.149Z" fill="#C1596C"/>
<path d="M245.908 409.283C221.908 411.016 190.708 414.349 169.242 417.416C114.708 425.149 40.9751 441.949 34.3084 448.216C28.5751 453.549 31.1084 465.283 38.4418 467.149C40.4418 467.683 51.3751 465.549 65.9084 461.949C229.642 421.549 390.708 422.616 522.175 465.283C533.642 468.883 544.442 471.949 546.442 471.949C550.442 471.949 554.842 468.083 556.042 463.416C557.508 457.683 553.375 452.483 544.975 449.283C495.242 430.349 440.842 417.949 378.575 411.283C354.975 408.749 271.642 407.549 245.908 409.283Z" fill="#C1596C"/>
<path d="M259.242 446.749C213.775 449.016 163.908 455.149 118.575 464.082C91.9084 469.282 55.7751 477.682 54.5751 478.882C53.9084 479.416 63.1084 561.416 63.9084 562.349C64.1751 562.616 68.9751 561.549 74.7084 560.082C120.575 548.482 186.842 538.482 243.642 534.482C274.042 532.482 357.375 533.549 383.242 536.482C428.308 541.549 468.175 549.282 504.175 559.816C514.175 562.882 522.708 564.882 523.108 564.482C523.508 564.082 525.775 545.549 527.908 523.149L532.042 482.616L525.908 480.616C450.175 453.949 355.775 441.949 259.242 446.749ZM268.175 469.949C274.842 472.749 277.775 475.549 280.708 481.949C283.908 488.749 283.775 495.149 280.708 502.216C273.242 518.482 248.708 519.949 239.375 504.882C231.642 492.349 236.175 476.349 249.108 470.482C255.775 467.416 261.775 467.282 268.175 469.949ZM340.308 470.749C354.842 477.816 357.908 496.882 346.175 508.482C338.975 515.682 329.908 517.682 320.975 513.949C314.575 511.282 311.508 508.482 308.442 502.349C298.042 481.949 319.508 460.749 340.308 470.749ZM198.308 476.482C216.842 484.216 217.108 511.682 198.708 520.082C191.775 523.149 186.708 523.282 179.908 520.082C161.242 511.682 160.308 486.349 178.175 477.416C184.708 474.216 192.042 473.816 198.308 476.482ZM408.175 476.082C412.708 477.816 418.842 483.416 421.375 488.216C423.775 492.749 423.775 502.749 421.375 508.349C417.775 517.282 405.642 523.816 396.175 522.082C390.175 521.016 383.375 516.349 379.642 510.749C373.908 502.216 376.308 486.749 384.442 480.216C390.842 475.016 400.708 473.282 408.175 476.082ZM483.642 488.749C489.642 492.749 493.775 500.882 493.908 508.616C493.908 519.549 484.308 530.349 473.375 531.549C450.708 534.216 437.375 507.282 453.375 491.682C461.908 483.282 473.775 482.216 483.642 488.749ZM129.508 488.082C140.442 493.282 145.642 508.882 140.175 519.549C137.242 525.016 130.842 530.216 124.708 532.082C111.908 535.949 97.3751 526.616 95.6417 513.549C94.5751 505.416 96.1751 499.149 100.975 493.682C108.575 485.016 118.975 483.016 129.508 488.082Z" fill="#C1596C"/>
<path d="M251.908 484.614C243.775 492.614 252.708 505.681 263.242 501.281C265.508 500.348 267.908 498.481 268.575 497.148C272.308 490.214 266.975 481.281 259.242 481.281C256.708 481.281 253.908 482.481 251.908 484.614Z" fill="#C1596C"/>
<path d="M322.575 484.615C316.575 490.482 319.242 500.215 327.242 501.948C334.308 503.548 341.642 496.482 340.042 489.815C337.908 481.682 328.308 478.748 322.575 484.615Z" fill="#C1596C"/>
<path d="M182.308 490.615C178.575 494.081 177.508 497.548 179.108 501.681C183.508 513.148 199.242 510.081 199.242 497.815C199.242 489.548 188.308 484.881 182.308 490.615Z" fill="#C1596C"/>
<path d="M393.375 490.748C388.442 494.615 388.442 502.615 393.375 506.481C395.375 508.081 398.308 509.281 399.908 509.281C401.508 509.281 404.442 508.081 406.442 506.481C411.375 502.615 411.375 494.615 406.442 490.748C404.442 489.148 401.508 487.948 399.908 487.948C398.308 487.948 395.375 489.148 393.375 490.748Z" fill="#C1596C"/>
<path d="M463.108 501.149C458.708 505.549 458.442 507.816 461.242 513.149C467.242 525.016 484.575 515.816 479.775 503.282C478.842 500.882 472.442 497.282 469.242 497.282C468.042 497.282 465.242 499.016 463.108 501.149Z" fill="#C1596C"/>
<path d="M112.042 501.416C107.375 505.149 107.242 512.082 111.908 516.616C121.375 526.216 135.108 511.682 125.908 501.949C122.042 497.816 116.842 497.682 112.042 501.416Z" fill="#C1596C"/>
<path d="M283.242 546.215C216.442 547.549 137.108 558.082 70.575 574.749C34.175 583.815 31.2417 585.282 31.2417 594.215C31.2417 606.349 36.3084 607.682 59.5084 601.815C113.375 588.082 166.042 579.282 225.908 573.682C257.242 570.882 338.842 570.482 367.242 573.015C426.575 578.482 480.042 589.149 527.908 605.282C536.575 608.215 544.842 610.615 546.308 610.615C547.642 610.615 550.575 608.749 552.842 606.615C556.175 603.149 556.708 601.815 556.042 598.215C554.842 591.949 552.175 590.082 535.908 584.215C461.642 557.282 376.708 544.482 283.242 546.215Z" fill="#C1596C"/>
</svg>
