<svg width="678" height="593" viewBox="0 0 678 593" fill="none" xmlns="http://www.w3.org/2000/svg">
<path d="M221.6 2.73343C220.267 4.06677 219.333 6.33343 219.333 7.53343C219.333 8.86677 222.667 19.9334 226.667 32.2001C233.067 51.8001 234.4 54.7334 237.6 56.2001C240.667 57.5334 241.6 57.4001 244.533 55.2668C246.4 53.9334 248.133 51.6668 248.4 50.4668C248.933 47.9334 235.867 7.8001 233.2 3.26677C230.8 -0.333235 224.667 -0.733235 221.6 2.73343Z" fill="#C1596C"/>
<path d="M447.067 1.66773C445.734 2.46773 441.867 12.2011 437.2 26.2011C429.734 48.8677 429.6 49.4011 431.734 52.8677C434.534 57.0011 440.534 57.5344 443.6 53.9344C445.867 51.5344 459.334 11.9344 459.334 7.9344C459.334 5.00107 454.667 0.334401 451.734 0.334401C450.4 0.334401 448.267 1.00107 447.067 1.66773Z" fill="#C1596C"/>
<path d="M166 30.7346C164.267 32.0679 163.067 34.6013 163.067 36.4679C163.067 40.7346 189.467 77.5346 193.467 79.1346C198 80.7346 202.533 77.6679 203.067 72.6013C203.467 69.0013 201.467 65.5346 189.867 49.6679C173.733 27.4013 171.867 25.9346 166 30.7346Z" fill="#C1596C"/>
<path d="M498.267 36.6014C476.533 66.3347 475.333 68.2014 475.333 72.0681C475.333 77.1347 478 79.2681 483.467 78.7347C487.333 78.3347 489.2 76.3347 501.6 59.268C510 47.668 515.333 39.1347 515.333 37.1347C515.333 32.7347 512 29.668 507.333 29.668C504.133 29.668 502.4 31.0014 498.267 36.6014Z" fill="#C1596C"/>
<path d="M335.6 54.6006C334.667 55.0006 326.4 70.2006 317.333 88.4673C305.2 112.601 300 121.667 298.267 121.667C297.067 121.667 280.8 124.067 262.133 126.867C214.267 133.934 214.533 132.601 250.933 168.067L277.333 193.667L271.6 228.067C268.4 246.867 265.867 263.667 266 265.267C266 269.001 269.333 272.334 273.067 272.334C274.533 272.334 290.133 264.867 307.733 255.667L339.467 238.867L371.2 255.667C388.667 264.867 404.133 272.334 405.733 272.334C409.333 272.334 412.667 268.867 412.667 265.267C412.8 263.667 410.267 246.867 407.067 227.934L401.333 193.667L426.933 169.001C440.933 155.401 452.933 143.134 453.333 141.667C454.4 138.067 453.067 133.934 450.133 132.467C448.933 131.667 432 128.867 412.8 126.201L377.733 121.134L361.333 88.2006C344.133 53.934 342.533 51.8006 335.6 54.6006Z" fill="#C1596C"/>
<path d="M120.667 76.3345C117.2 79.8012 117.333 84.6012 121.067 87.9345C126.133 92.4678 154 112.468 157.467 113.934C164.267 117.135 171.467 109.134 167.2 103.001C164.4 99.1345 128.4 73.6678 125.733 73.6678C124.4 73.6678 122.133 74.8678 120.667 76.3345Z" fill="#C1596C"/>
<path d="M531.334 87.6672C520.8 95.2672 511.6 102.601 510.934 103.667C509.067 107.001 511.067 112.201 514.667 113.934C519.067 115.934 521.2 114.867 539.6 101.534C558.667 87.6672 560.667 85.9339 560.667 82.0672C560.667 78.4672 556.267 73.6672 552.934 73.6672C551.6 73.6672 541.867 79.9339 531.334 87.6672Z" fill="#C1596C"/>
<path d="M143.333 161.535C142.267 162.201 136.267 173.001 130.133 185.401L118.933 207.935L94.2668 211.401C56.8002 216.735 56.4002 218.201 83.0668 243.668L101.333 261.401L97.2002 285.801C92.4002 313.535 92.8002 316.735 100.133 317.401C103.333 317.668 109.733 315.001 126 306.468L147.6 295.001L168.8 306.468C185.2 315.135 191.2 317.668 194.4 317.401C201.867 316.735 202.267 313.668 197.467 285.801L193.333 261.401L211.734 243.668C238.267 218.201 237.867 216.868 200.4 211.401L175.6 207.668L164.533 185.268C152.267 160.601 149.733 157.801 143.333 161.535Z" fill="#C1596C"/>
<path d="M527.333 161.535C526.267 162.201 520.267 173.001 514.133 185.401L502.933 207.935L478.267 211.401C440.8 216.735 440.4 218.201 466.933 243.668L485.333 261.268L481.2 286.201C476.667 314.068 476.933 316.735 484.267 317.401C487.333 317.668 493.733 315.001 510 306.468L531.6 295.001L552.8 306.468C569.2 315.135 575.2 317.668 578.4 317.401C585.867 316.735 586.267 313.668 581.467 285.801L577.333 261.401L595.733 243.668C622.267 218.201 621.867 216.868 584.4 211.401L559.6 207.668L548.533 185.268C536.267 160.601 533.733 157.801 527.333 161.535Z" fill="#C1596C"/>
<path d="M104.667 355C102 357.667 102 359.4 102 432.333V507H339.333H576.667V432.333C576.667 359.4 576.667 357.667 574 355C571.333 352.333 569.6 352.333 339.333 352.333C109.067 352.333 107.333 352.333 104.667 355ZM142 387C143.467 388.467 144.667 390.333 144.667 391.133C144.667 393.667 151.333 447.4 152.133 450.867C152.667 453.667 153.867 452.333 160.267 441.667C172 422.6 175.867 422.467 187.2 441C191.067 447.267 194.8 452.067 195.333 451.4C195.867 450.867 197.867 436.867 199.867 420.333C201.867 403.8 204.133 389.267 204.8 388.067C207.467 383 216.8 383.933 218.667 389.533C219.333 391.8 209.467 475.4 207.867 480.733C207.467 481.933 206 483.667 204.4 484.467C198.8 487.4 196 485 185.067 467.667C179.333 458.6 174.4 451 174 451C173.6 451 168.933 458.2 163.467 467.133C158 475.933 152.4 483.8 150.933 484.467C147.333 486.467 142.133 484.867 140.667 481.267C139.6 478.867 128.667 396.6 128.667 391.133C128.667 388.733 133.867 384.333 136.667 384.333C138.133 384.333 140.533 385.533 142 387ZM248.667 387C251.2 389.533 251.333 391.4 251.333 435C251.333 478.6 251.2 480.467 248.667 483C245.333 486.333 241.333 486.333 238 483C235.467 480.467 235.333 478.6 235.333 435C235.333 391.4 235.467 389.533 238 387C239.467 385.533 241.867 384.333 243.333 384.333C244.8 384.333 247.2 385.533 248.667 387ZM279.6 385.933C280.8 386.867 288.133 400.2 295.867 415.667L309.867 443.667V416.6C310 391.533 310.133 389.533 312.667 387C314.133 385.533 316.533 384.333 318 384.333C319.467 384.333 321.867 385.533 323.333 387C325.867 389.533 326 391.4 326 435C326 478.6 325.867 480.467 323.333 483C320.267 486.067 316.8 486.467 313.733 483.933C312.533 483.133 305.2 469.667 297.467 454.333L283.467 426.333V453.267C283.333 478.467 283.2 480.467 280.667 483C277.333 486.333 273.333 486.333 270 483C267.467 480.467 267.333 478.6 267.333 435C267.333 391.4 267.467 389.533 270 387C273.067 383.933 276.533 383.533 279.6 385.933ZM354.267 385.933C355.467 386.867 362.8 400.2 370.533 415.667L384.533 443.667V416.6C384.667 391.533 384.8 389.533 387.333 387C388.8 385.533 391.2 384.333 392.667 384.333C394.133 384.333 396.533 385.533 398 387C400.533 389.533 400.667 391.4 400.667 435C400.667 478.6 400.533 480.467 398 483C394.933 486.067 391.467 486.467 388.4 483.933C387.2 483.133 379.867 469.667 372.133 454.333L358.133 426.333V453.267C358 478.467 357.867 480.467 355.333 483C352 486.333 348 486.333 344.667 483C342.133 480.467 342 478.6 342 435C342 391.4 342.133 389.533 344.667 387C347.733 383.933 351.2 383.533 354.267 385.933ZM472.667 387C474.133 388.467 475.333 390.867 475.333 392.333C475.333 393.8 474.133 396.2 472.667 397.667C470.267 400.067 468.267 400.333 451.333 400.333H432.667V413.667V427H448.667C462.933 427 464.933 427.267 467.333 429.667C468.8 431.133 470 433.533 470 435C470 436.467 468.8 438.867 467.333 440.333C464.933 442.733 462.933 443 448.667 443H432.667V456.333V469.667H451.333C468.267 469.667 470.267 469.933 472.667 472.333C474.133 473.8 475.333 476.2 475.333 477.667C475.333 479.133 474.133 481.533 472.667 483C470.133 485.533 468.267 485.667 446 485.667C423.733 485.667 421.867 485.533 419.333 483C416.8 480.467 416.667 478.6 416.667 435C416.667 391.4 416.8 389.533 419.333 387C421.867 384.467 423.733 384.333 446 384.333C468.267 384.333 470.133 384.467 472.667 387ZM535.6 388.733C550.4 397.4 554.4 418.333 543.733 431L540.267 435.133L543.067 438.067C548.4 443.8 550 450.067 550 465.667C550 478.6 549.733 480.6 547.333 483C545.867 484.467 543.467 485.667 542 485.667C540.533 485.667 538.133 484.467 536.667 483C534.4 480.733 534 478.6 534 467C534 446.867 530.933 443 515.333 443H507.333V461.667C507.333 478.6 507.067 480.6 504.667 483C501.333 486.333 497.333 486.333 494 483C491.467 480.467 491.333 478.6 491.333 435C491.333 379.267 489.333 383.8 513.2 384.467C528 385 529.867 385.267 535.6 388.733Z" fill="#C1596C"/>
<path d="M507.333 413.667V427H515.333C524.667 427 530.133 424.733 532.4 419.667C535.467 412.867 533.333 405.4 527.2 402.2C525.067 401.133 519.867 400.333 515.333 400.333H507.333V413.667Z" fill="#C1596C"/>
<path d="M3.33341 429.667C1.86675 431.134 0.666748 433.401 0.666748 434.601C0.666748 435.934 10.0001 453.267 21.4667 473.267L42.1334 509.667L21.4667 546.067C10.0001 566.067 0.666748 583.401 0.666748 584.734C0.666748 585.934 1.86675 588.201 3.33341 589.667C5.86675 592.201 7.73342 592.334 74.6668 592.334H143.2L114.667 552.201L86.0001 512.067V469.534V427.001H46.0001C7.73342 427.001 5.86675 427.134 3.33341 429.667Z" fill="#C1596C"/>
<path d="M592.667 469.534V512.067L564 552.201L535.467 592.334H604C670.933 592.334 672.8 592.201 675.333 589.667C676.8 588.201 678 585.934 678 584.734C678 583.401 668.667 566.067 657.2 546.067L636.533 509.667L657.2 473.267C668.667 453.267 678 435.934 678 434.601C678 433.401 676.8 431.134 675.333 429.667C672.8 427.134 670.933 427.001 632.667 427.001H592.667V469.534Z" fill="#C1596C"/>
<path d="M114.933 524.868C118.933 531.935 156.133 582.602 156.8 581.935C157.333 581.268 177.467 535.002 181.6 524.602C182.133 523.402 174.933 523.002 148.133 523.002C119.067 523.002 114 523.268 114.933 524.868Z" fill="#C1596C"/>
<path d="M497.067 524.602C501.2 535.002 521.333 581.268 521.867 581.935C522.533 582.602 559.733 531.935 563.733 524.868C564.667 523.268 559.6 523.002 530.533 523.002C503.733 523.002 496.533 523.402 497.067 524.602Z" fill="#C1596C"/>
</svg>
