<svg width="1496" height="1919" viewBox="0 0 1496 1919" fill="none" xmlns="http://www.w3.org/2000/svg">
<path d="M535.768 0C535.768 0 514.443 84.3364 491.121 136C448.372 230.697 403.712 279.5 333.283 361C262.853 442.5 247.333 456.442 224.494 531C201.656 605.558 225.752 704.5 229.525 728C233.298 751.5 274.172 854.5 292.409 883.5C310.645 912.5 354.663 992.5 386.734 1054.5C418.805 1116.5 432.639 1193.5 432.639 1193.5C432.639 1193.5 443.713 1282.67 444.587 1340C445.525 1401.56 446.562 1436.53 435.783 1497.5C427.281 1545.59 424.336 1573.66 402.455 1619C382.45 1660.45 365.052 1681.99 333.283 1718.5C304.32 1751.79 285.023 1768.89 249.648 1798C212.418 1828.63 192.178 1847.42 147.148 1870.5C94.8622 1897.3 0 1919 0 1919H1496V0H535.768Z" fill="#41034F" fill-opacity="0.34902"/>
</svg>
