<svg width="70" height="70" viewBox="0 0 70 70" fill="none" xmlns="http://www.w3.org/2000/svg">
<circle cx="35" cy="35" r="35" fill="#D9D9D9"/>
<path d="M51.8 35.3979C51.8 34.157 51.6886 32.9638 51.4818 31.8184H35V38.5956H44.4182C44.0045 40.7752 42.7636 42.6206 40.9023 43.8615V48.2684H46.5818C49.8909 45.2138 51.8 40.7275 51.8 35.3979Z" fill="#4285F4"/>
<path d="M35.0002 52.4999C39.7252 52.4999 43.6865 50.9408 46.582 48.2681L40.9024 43.8613C39.3434 44.9113 37.3547 45.5476 35.0002 45.5476C30.4502 45.5476 26.5843 42.4772 25.2002 38.3408H19.3774V42.859C22.257 48.5704 28.1593 52.4999 35.0002 52.4999Z" fill="#34A853"/>
<path d="M25.2 38.3249C24.85 37.2749 24.6432 36.1613 24.6432 34.9999C24.6432 33.8386 24.85 32.7249 25.2 31.6749V27.1567H19.3773C18.1841 29.5113 17.5 32.1681 17.5 34.9999C17.5 37.8317 18.1841 40.4886 19.3773 42.8431L23.9114 39.3113L25.2 38.3249Z" fill="#FBBC05"/>
<path d="M35.0002 24.4682C37.5774 24.4682 39.8683 25.3591 41.6979 27.0773L46.7093 22.0659C43.6706 19.2341 39.7252 17.5 35.0002 17.5C28.1593 17.5 22.257 21.4295 19.3774 27.1568L25.2002 31.675C26.5843 27.5386 30.4502 24.4682 35.0002 24.4682Z" fill="#EA4335"/>
</svg>
