<svg width="357" height="378" viewBox="0 0 357 378" fill="none" xmlns="http://www.w3.org/2000/svg">
<path d="M231.574 336.225H310.836" stroke="black" stroke-miterlimit="10"/>
<path d="M14.692 327.865H212.412" stroke="black" stroke-miterlimit="10"/>
<path d="M324.772 335.705H357" stroke="black" stroke-miterlimit="10"/>
<path d="M69.5651 343.543H278.609" stroke="black" stroke-miterlimit="10"/>
<path d="M106.98 220.639C99.6661 222.028 92.4651 225.776 88.5931 232.134C82.4451 242.229 86.1191 255.68 81.5981 266.601C79.3521 272.027 75.2461 276.424 71.7841 281.169C62.9441 293.286 58.3621 310.472 66.3551 323.164C72.4211 332.797 83.9771 337.3 94.9631 340.28C100.959 341.906 107.054 343.269 113.25 343.735C125.18 344.632 137.104 342.186 148.675 339.146C160.476 336.046 172.928 331.751 180.11 321.887C185.891 313.947 187.278 303.526 186.327 293.75C184.127 271.152 170.86 251.349 157.786 232.786C151.544 223.922 145.614 220.305 134.636 219.918C125.682 219.6 115.759 218.971 106.98 220.639Z" fill="white" stroke="black" stroke-miterlimit="10"/>
<path d="M175.28 288.494C169.244 296.392 159.743 301.059 150.027 303.164C140.311 305.269 130.264 305.063 120.325 304.848" fill="white"/>
<path d="M175.28 288.494C169.244 296.392 159.743 301.059 150.027 303.164C140.311 305.269 130.264 305.063 120.325 304.848" stroke="black" stroke-miterlimit="10"/>
<path d="M99.8471 228.854C94.7061 231.982 93.2651 238.702 92.6821 244.691C92.0991 250.684 91.8861 256.738 90.6031 262.62C89.3211 268.503 86.8551 274.317 82.4661 278.438" fill="white"/>
<path d="M99.8471 228.854C94.7061 231.982 93.2651 238.702 92.6821 244.691C92.0991 250.684 91.8861 256.738 90.6031 262.62C89.3211 268.503 86.8551 274.317 82.4661 278.438" stroke="black" stroke-miterlimit="10"/>
<path d="M171.848 268.174C172.976 271.765 174.104 275.355 175.231 278.946Z" fill="white"/>
<path d="M171.848 268.174C172.976 271.765 174.104 275.355 175.231 278.946" stroke="black" stroke-miterlimit="10"/>
<path d="M151.944 224.111C151.834 223.341 151.283 223.27 150.758 223.471C150.37 223.522 150.037 223.843 149.769 224.234C149.735 224.273 149.695 224.307 149.663 224.347C149.699 224.242 149.735 224.136 149.771 224.034C149.888 223.71 149.363 223.486 149.211 223.798C148.812 224.618 148.269 225.741 148.5 226.675C148.53 226.796 148.58 226.905 148.637 227.009C148.602 227.4 148.674 227.76 148.969 227.984C149.33 228.259 149.701 228.227 150.053 228.012C150.221 227.999 150.39 227.921 150.496 227.784C150.701 227.519 150.867 227.236 151.01 226.945C151.049 226.881 151.088 226.816 151.125 226.749C151.478 226.307 151.753 225.778 151.852 225.322C151.888 225.158 151.9 224.967 151.887 224.77C151.943 224.502 151.967 224.269 151.944 224.111Z" fill="white"/>
<path d="M180.179 298.814C181.473 303.978 180.584 309.653 177.772 314.174Z" fill="white"/>
<path d="M180.179 298.814C181.473 303.978 180.584 309.653 177.772 314.174" stroke="black" stroke-miterlimit="10"/>
<path d="M153.631 222.123C153.7 222.069 151.532 220.285 151.367 220.156C150.106 219.17 148.76 218.452 147.156 218.21C146.637 218.132 146.144 218.183 145.628 218.118C144.972 218.037 144.312 218.004 143.652 218.006C142.323 218.01 141 218.147 139.679 218.276C139.266 218.316 138.852 218.355 138.437 218.345C138.241 218.34 138.045 218.324 137.85 218.341C137.346 218.383 136.898 218.633 136.417 218.768C135.921 218.907 135.378 218.902 134.867 218.994C133.62 219.216 132.373 219.445 131.122 219.645C130.062 219.815 128.998 219.965 127.929 220.073C127.007 220.166 126.148 220.321 125.224 220.286C123.519 220.222 121.813 220.103 120.109 220.125C118.449 220.146 116.759 220.358 115.256 221.105C113.924 221.767 112.697 222.625 111.593 223.62C111.318 223.868 111.054 224.126 110.787 224.382C111.354 225.124 111.787 226.017 112.137 226.73C113.177 228.848 114.195 231.168 114.509 233.518C115.079 237.779 114.434 242.19 113.371 246.498C113.325 247.554 113.31 248.612 113.307 249.671C113.524 252.454 113.509 255.274 113.551 258.068C113.551 261.831 113.449 263.363 111.821 266.701C110.058 270.314 108.441 274.007 106.752 277.655C106.636 277.906 106.517 278.178 106.572 278.449C106.638 278.779 106.938 279.003 107.222 279.184C111.064 281.646 115.785 282.279 120.344 282.45C126.828 282.692 133.343 282.117 139.684 280.743C142.849 280.057 146.394 278.809 147.558 275.787C148.045 274.522 148.024 273.127 147.996 271.771C147.83 263.678 147.61 255.561 147.74 247.496C146.168 243.704 144.936 239.729 145.34 235.586C145.701 231.888 147.245 228.032 149.874 225.349C150.377 224.836 151.869 223.486 153.631 222.123Z" fill="black"/>
<path d="M123.899 215.586C124.18 216.052 124.514 216.483 124.962 216.785C125.19 216.939 125.443 217.055 125.663 217.219C126.141 217.576 126.082 218.062 126.205 218.593C126.299 218.999 126.396 219.502 125.973 219.747C125.801 219.847 125.601 219.884 125.406 219.917C124.644 220.046 123.873 220.066 123.111 220.171C123.391 220.787 123.776 221.408 124.139 221.985C124.544 222.628 125.012 223.23 125.574 223.743C126.483 224.573 127.905 225.455 129.186 225.455C131.516 225.751 133.877 224.716 135.557 223.126C136.818 221.933 137.601 220.13 137.566 218.387C136.947 218.498 136.098 218.68 135.473 218.545C134.991 218.441 134.866 217.958 134.797 217.518C134.452 215.32 134.042 213.132 133.568 210.958C133.328 209.859 133.072 208.763 132.8 207.671C132.553 206.681 132.177 205.799 131.796 204.853C131.23 203.448 130.5 201.947 129.12 201.324C127.483 200.585 124.037 201.402 122.525 202.433C119.057 204.797 121.142 209.17 122.31 212.196C122.675 213.142 123.092 214.068 123.557 214.968C123.665 215.176 123.778 215.384 123.899 215.586Z" fill="#ED926E"/>
<path d="M110.205 365.883C109.806 362.583 109.407 359.283 109.007 355.984C108.952 355.53 108.579 355.121 108.076 355.275C104.573 356.343 101.04 357.002 97.4552 357.703C96.7122 357.848 96.8282 358.921 97.4752 359.085C97.6402 360.462 97.9092 361.822 98.1672 363.185C98.3352 364.073 98.8292 365.567 98.2172 366.381C97.8292 366.897 96.8902 367.257 96.3612 367.565C94.1412 368.858 91.7952 370.255 89.8752 371.978C88.7592 372.979 87.7142 374.645 88.7392 376.112C89.7682 377.585 91.7442 376.888 93.1512 376.538C96.2012 375.779 99.2382 374.967 102.26 374.105C103.837 373.655 105.41 373.191 106.978 372.713C107.898 372.433 109.229 372.268 110.014 371.684C111.555 370.539 110.395 367.452 110.205 365.883Z" fill="black"/>
<path d="M127.088 361.144C127.829 361.783 129.145 362.043 130.042 362.389C131.572 362.979 133.107 363.555 134.648 364.117C137.6 365.195 140.571 366.222 143.558 367.199C144.936 367.65 146.856 368.487 147.989 367.092C149.117 365.703 148.194 363.966 147.153 362.887C145.361 361.03 143.122 359.468 141.001 358.018C140.496 357.673 139.585 357.246 139.235 356.703C138.684 355.847 139.283 354.393 139.515 353.519C139.87 352.178 140.236 350.841 140.501 349.48C141.158 349.362 141.351 348.301 140.62 348.103C137.094 347.146 133.618 346.234 130.201 344.917C129.71 344.728 129.309 345.109 129.221 345.558C128.585 348.821 127.95 352.083 127.314 355.346C127.013 356.895 125.634 359.891 127.088 361.144Z" fill="black"/>
<path d="M167.088 310.358C166.472 301.957 162.56 294.2 158.723 286.701C156.686 282.72 154.02 277.548 149.652 275.647C145.616 273.89 140.295 276.816 136.166 277.548C127.422 279.099 118.439 278.921 109.625 277.839C101.785 276.876 97.2162 279.455 91.2552 283.819C87.3022 286.713 83.5332 289.871 80.1072 293.373C77.6392 295.896 73.0882 299.39 72.3402 303.037C71.7642 305.844 72.6082 308.727 73.4592 311.464C78.3212 327.086 83.7262 342.539 89.6602 357.786C90.0062 358.675 89.5782 359.013 89.1942 359.142C88.9932 359.21 91.2572 363.365 91.3412 363.577L113.116 357.48L112.245 350.512L110.802 351.158C110.802 351.158 103.914 331.726 100.47 322.01C99.8272 320.197 96.6892 314.537 97.2602 312.775C97.7532 311.255 102.943 309.321 104.372 308.478C109.977 305.172 115.452 301.644 120.778 297.905C121.872 297.137 123.047 296.483 124.309 296.041C127.827 294.809 129.45 295.923 131.623 297.582C133.327 298.884 135.234 300.114 137.07 301.409C140.967 304.158 139.431 306.084 137.997 310.233C136.501 314.561 134.924 318.861 133.269 323.13C131.999 326.405 130.66 329.652 129.375 332.921C128.724 334.577 128.087 336.239 127.48 337.912C126.93 339.43 126.626 340.96 126.125 342.468C125.38 342.558 124.615 342.485 123.9 342.255C123.852 342.71 122.795 346.087 122.389 347.516C124.621 348.335 127.153 348.783 129.38 349.375C131.876 350.039 134.403 350.621 136.89 351.313C139.583 352.063 142.203 353.071 144.869 353.909C145.443 354.089 146.032 354.229 146.622 354.365C147.263 353.536 147.89 352.697 148.478 351.828C149.133 350.861 149.696 349.837 150.32 348.856C150.154 348.832 150.027 348.689 149.922 348.552C149.685 348.241 149.448 347.931 149.211 347.62C149.172 347.569 149.131 347.513 149.133 347.449C149.134 347.404 149.157 347.363 149.178 347.324C151.348 343.418 153.372 339.175 155.982 335.526C157.978 332.735 159.727 329.775 161 326.588C162.569 322.661 165.46 319.032 166.604 314.791C166.992 313.359 167.196 311.839 167.088 310.358Z" fill="#C1596C"/>
<path d="M149.858 251.653C149.971 252.086 150.083 252.513 150.192 252.934C150.77 255.18 150.215 257.428 150.637 259.684C150.974 261.485 151.118 263.515 151.878 265.222C152.413 266.425 153.247 267.464 153.996 268.547C154.126 268.734 154.221 269.051 154.011 269.14C153.668 269.285 152.193 267.263 151.9 266.907C151.019 265.837 149.994 265.04 148.848 264.267C148.464 264.008 148.076 263.746 147.643 263.581C146.256 263.051 144.601 262.889 143.414 261.917C142.913 261.507 142.53 260.966 142.028 260.557C141.214 259.893 140.157 259.626 139.19 259.214C137.686 258.574 136.373 257.568 135.03 256.637C134.472 256.25 133.894 255.868 133.241 255.679C132.026 255.326 130.726 255.911 130.475 257.224C130.365 257.799 130.467 258.395 130.63 258.958C130.818 259.607 131.086 260.232 131.427 260.815C132.625 262.865 134.663 264.32 135.868 266.366C136.199 266.927 136.462 267.527 136.805 268.081C137.589 269.35 138.742 270.319 139.853 271.288C141.007 272.294 141.913 273.342 142.835 274.546C144.764 277.066 146.851 279.513 149.352 281.487C150.972 282.766 152.769 283.831 154.722 284.515C156.383 285.097 158.141 285.398 159.901 285.402C161.866 285.406 163.971 284.812 164.77 282.924C165.688 280.755 166.258 278.47 166.383 276.113C166.547 273.018 166.562 269.834 166.414 266.723C166.314 264.622 166.106 262.527 165.898 260.434C165.683 258.265 165.467 256.095 165.252 253.926C165.061 252.006 164.87 250.082 164.48 248.193C163.49 243.402 155.994 225.504 149.809 236.221C147.089 240.928 148.55 246.659 149.858 251.653Z" fill="#ED926E"/>
<path d="M110.702 251.941C110.684 252.034 110.669 252.128 110.656 252.222C110.591 252.711 110.608 253.207 110.626 253.701C110.775 257.692 110.683 262.62 107.941 265.807C107.532 266.282 106.217 267.234 106.099 267.834C105.899 268.854 106.854 268.042 107.221 267.547C108.032 266.454 109.009 265.468 110.181 264.776C111.028 264.277 111.959 263.94 112.838 263.5C116.604 261.615 120.124 259.314 123.882 257.397C125.036 256.808 128.956 254.266 129.362 256.915C129.689 259.052 126.55 261.537 125.325 262.975C124.949 263.417 124.584 263.881 124.36 264.416C124.17 264.868 124.086 265.356 123.955 265.829C123.135 268.796 120.138 270.888 118.011 272.938C115.543 275.316 112.961 277.593 110.11 279.504C107.618 281.174 100.421 285.723 97.2782 284.125C94.2392 282.58 93.9612 275.001 94.0152 272.189C94.0942 268.072 94.9392 264.014 95.5162 259.937C96.2212 254.951 96.5552 249.8 98.6502 245.22C99.5672 243.216 100.769 241.2 102.322 239.623C103.582 238.343 105.388 236.447 107.245 236.289C108.736 236.162 110.268 236.93 111.058 238.2C111.975 239.674 111.864 241.54 111.723 243.271C111.519 245.775 111.496 248.458 110.939 250.906C110.862 251.253 110.767 251.594 110.702 251.941Z" fill="#ED926E"/>
<path d="M162.754 241.154C161.014 234.602 158.704 227.967 154.285 222.861C152.33 224.343 150.59 225.832 150.196 226.267C147.6 229.132 146.203 233.165 146.124 236.986C146.048 240.671 147.283 244.224 148.723 247.599C148.912 247.467 149.128 247.364 149.342 247.273C153.455 245.509 157.667 243.973 161.95 242.674C162.245 242.585 162.565 242.479 162.733 242.221C162.934 241.913 162.849 241.509 162.754 241.154Z" fill="black"/>
<path d="M113.688 238.288C113.901 235.043 113.522 232.287 112.305 229.269C111.925 228.327 111.241 226.226 110.226 224.92C104.098 231.04 100.224 239.11 96.5012 246.977C101.498 247.977 106.494 248.978 111.491 249.979C112.565 246.147 113.429 242.254 113.688 238.288Z" fill="black"/>
<path d="M130.395 201.055C129.776 200.362 128.958 199.868 127.99 199.733C126.703 199.553 125.377 199.724 124.085 199.718C122.473 199.71 120.991 199.063 119.425 199.021C118.033 198.984 116.7 199.831 116.827 201.38C116.908 202.364 117.641 203.039 118.184 203.809C119.326 205.429 119.995 207.201 120.249 209.169H120.252C120.261 209.231 120.263 209.291 120.273 209.354C120.402 210.115 121.733 209.946 121.634 209.17C121.626 209.108 121.613 209.048 121.605 208.986C121.607 208.986 121.609 208.985 121.609 208.985C121.458 208.098 121.583 207.288 121.9 206.573C124.308 206.18 127.096 203.232 129.508 203.497C129.638 203.555 129.767 203.619 129.891 203.698C131.048 204.429 131.389 205.741 131.733 207.004C131.979 207.905 133.264 207.515 133.11 206.624C132.745 204.514 132.089 202.117 130.395 201.055Z" fill="black"/>
<path d="M134.037 205.813C133.263 205.096 131.662 205.615 131.039 206.32C130.649 206.761 130.494 207.574 130.761 208.035C130.737 208.824 131.247 209.566 132.057 209.748C132.97 209.953 134.204 209.555 134.712 208.743C135.29 207.818 134.785 206.506 134.037 205.813Z" fill="#ED926E"/>
<path d="M122.956 208.949C122.991 208.812 122.956 208.658 122.815 208.589C122.211 208.293 121.552 208.182 120.93 208.511C120.312 208.838 119.98 209.508 120.103 210.194C120.337 211.503 121.709 212.719 122.987 211.815C124.018 211.088 123.816 209.669 122.956 208.949Z" fill="#ED926E"/>
<path d="M128.199 211.245C128.129 210.922 127.715 210.932 127.552 211.161C127.737 210.901 127.301 209.928 127.207 209.665C127.042 209.208 126.865 208.738 126.632 208.312C126.495 208.062 126.132 208.238 126.188 208.499C126.308 209.059 126.511 209.597 126.627 210.159C126.723 210.621 126.686 211.225 126.955 211.629C127.337 212.201 128.366 212.016 128.199 211.245Z" fill="black"/>
<path d="M130.101 213.158C129.955 212.948 129.641 212.92 129.501 213.158C129.495 213.167 129.49 213.177 129.484 213.186C129.473 213.204 129.471 213.223 129.465 213.242C129.355 213.718 128.58 214.127 128.16 214.266C127.605 214.449 127.081 214.394 126.511 214.345C126.25 214.323 126.176 214.699 126.382 214.82C127.125 215.258 128.107 215.124 128.853 214.764C129.279 214.561 130.516 213.756 130.101 213.158Z" fill="black"/>
<path d="M127.799 253.872C127.52 253.837 127.262 253.893 127.021 253.999C125.987 254.155 125.167 255.476 124.608 256.23C124.232 256.736 123.812 257.294 123.958 257.96C124.08 258.516 124.542 258.876 125.114 258.818C125.339 258.795 125.605 258.663 125.649 258.411C125.656 258.369 125.663 258.328 125.67 258.286C125.688 258.182 125.673 258.082 125.635 257.995C126.076 257.823 126.385 257.337 126.624 256.915C127.069 256.13 127.53 255.422 128.179 254.786C128.542 254.429 128.232 253.926 127.799 253.872Z" fill="#ED926E"/>
<path d="M132.352 262.539H127.85C126.928 262.539 126.181 261.792 126.181 260.87V247.659C126.181 246.737 126.928 245.99 127.85 245.99H132.352C133.274 245.99 134.021 246.737 134.021 247.659V260.871C134.02 261.792 133.273 262.539 132.352 262.539Z" fill="white"/>
<path d="M129.7 254.729C130.669 254.612 131.651 254.686 132.624 254.76C133.384 254.818 134.244 254.929 134.688 255.549C135.026 256.022 135.013 256.652 134.987 257.233C134.961 257.804 134.931 258.39 134.702 258.913C134.116 260.253 132.467 260.735 131.009 260.847C129.551 260.959 127.98 260.89 126.76 261.696C126.341 261.973 125.911 262.364 125.415 262.281C124.913 262.196 124.627 261.661 124.495 261.17C123.549 257.646 126.454 255.121 129.7 254.729Z" fill="#ED926E"/>
<path d="M134.79 254.571C134.755 254.524 134.657 254.55 134.684 254.616C135.328 256.15 134.721 258.37 133.933 259.734C133.851 259.876 134.056 260.049 134.168 259.915C135.179 258.712 135.799 255.92 134.79 254.571Z" fill="black"/>
<path d="M130.105 247.412C129.164 247.412 129.162 248.874 130.105 248.874C131.046 248.875 131.048 247.412 130.105 247.412Z" fill="black"/>
<path d="M132.672 207.081C132.387 206.904 132.092 207.303 132.319 207.538C132.477 207.701 132.521 207.899 132.564 208.115C132.587 208.232 132.692 208.314 132.798 208.349C132.86 208.37 132.913 208.359 132.976 208.349C133.124 208.326 133.217 208.161 133.222 208.026C133.24 207.602 133.024 207.299 132.672 207.081Z" fill="black"/>
<path d="M121.562 210.545C121.426 210.363 121.407 210.184 121.503 210.008C121.603 209.726 121.133 209.522 121.015 209.802C120.836 210.224 120.785 211.126 121.512 210.924C121.695 210.874 121.703 210.645 121.562 210.545Z" fill="black"/>
<path d="M90.925 358.035C97.435 355.54 103.999 353.185 110.611 350.971" stroke="black" stroke-miterlimit="10"/>
<path d="M149.171 347.829C147.139 346.28 144.637 345.498 142.17 344.832C137.5 343.572 132.746 342.624 127.949 341.998" stroke="black" stroke-miterlimit="10"/>
<path d="M144.01 295.628C141.556 299.255 140.128 303.857 138.841 308.001C138.8 308.132 138.999 308.184 139.044 308.057C140.553 303.836 142.761 299.937 144.395 295.79C144.488 295.556 144.136 295.441 144.01 295.628Z" fill="black"/>
<path d="M93.4001 305.941C93.2321 305.733 92.8641 305.958 92.9511 306.204C93.5461 307.894 94.5921 309.424 95.3711 311.039C96.3561 313.08 97.2321 315.178 97.9861 317.315C98.0441 317.478 98.3011 317.412 98.2491 317.243C97.1091 313.576 95.8481 308.974 93.4001 305.941Z" fill="black"/>
<path d="M163.498 311.352C163.333 311.077 162.892 311.124 162.808 311.442C162.565 312.357 162.015 313.017 161.045 313.22C159.99 313.441 158.95 312.743 159.05 311.613C159.077 311.303 158.577 311.239 158.509 311.54C158.168 313.034 159.443 314.192 160.897 314.107C162.036 314.041 164.331 312.734 163.498 311.352Z" fill="black"/>
<path d="M78.3041 307.808C77.7091 308.001 77.4361 308.567 76.7211 308.541C76.3371 308.527 75.9771 308.35 75.7141 308.071C75.5341 307.88 75.3761 307.269 75.1851 307.206C75.2481 307.178 75.3011 307.133 75.3151 307.057C75.3181 307.039 75.3221 307.021 75.3251 307.002C75.3541 306.841 75.2821 306.718 75.1301 306.659C75.1061 306.65 75.0831 306.641 75.0591 306.631C74.9641 306.594 74.8311 306.636 74.7641 306.709C74.0271 307.509 75.2541 308.899 75.9721 309.206C76.8411 309.578 78.6761 309.339 78.7691 308.162C78.7881 307.929 78.5191 307.739 78.3041 307.808Z" fill="black"/>
<path d="M163.786 277.971C163.756 277.578 163.238 277.503 163.104 277.879C162.796 278.742 162.679 279.765 161.94 280.395C161.288 280.95 160.01 280.982 159.678 280.048C159.552 279.693 159.014 279.831 159.107 280.205C159.394 281.359 160.718 281.82 161.785 281.487C163.167 281.056 163.89 279.309 163.786 277.971Z" fill="black"/>
<path d="M99.5241 280.273C98.9391 280.28 98.3821 280.545 97.8331 280.203C97.2881 279.863 97.1491 279.17 97.3441 278.596C97.4791 278.198 96.8791 278.055 96.7271 278.426C96.3871 279.26 96.6391 280.267 97.3561 280.821C97.9951 281.315 99.3161 281.529 99.7471 280.662C99.8321 280.491 99.7301 280.27 99.5241 280.273Z" fill="black"/>
<path d="M319.798 233.714H191.548C177.958 233.714 166.94 221.936 166.94 207.408L149.221 211.695L166.94 182.343V47.6517C166.94 33.1227 177.957 21.3457 191.548 21.3457H319.798C333.388 21.3457 344.406 33.1237 344.406 47.6517V207.408C344.406 221.936 333.389 233.714 319.798 233.714Z" fill="#CFECFF"/>
<path d="M318.349 229.323H192.299C180.722 229.323 171.337 219.938 171.337 208.361V46.964C171.337 35.387 180.722 26.002 192.299 26.002H318.349C329.926 26.002 339.311 35.387 339.311 46.964V208.362C339.311 219.938 329.926 229.323 318.349 229.323Z" fill="white" stroke="black" stroke-miterlimit="10"/>
<path d="M302.449 90.2641C304.736 89.9401 306.965 89.3771 309.055 88.3851C316.172 85.0091 317.792 76.4061 317.849 69.2881C317.909 61.8241 317.772 51.1061 312.135 45.6451C308.305 41.9351 302.963 40.1351 297.665 39.5351C292.367 38.9351 287.016 39.4221 281.69 39.6771C276.897 39.9071 272.098 39.9491 267.3 39.9911C248.626 40.1551 229.953 40.3191 211.278 40.4831C204.622 40.5411 198.067 40.5291 191.505 41.7961C184.313 43.1851 181.859 46.3281 181.19 53.8671C180.477 61.9001 176.035 89.5911 187.076 90.9071C199.864 92.4311 212.807 91.5251 225.714 91.3981C248.465 91.1741 271.216 90.9501 293.967 90.7261C296.786 90.6991 299.661 90.6591 302.449 90.2641Z" fill="#C1596C"/>
<path d="M295.736 60.5448C295.041 58.9108 294.974 57.0788 294.424 55.3898C294.249 54.8508 294.004 54.3019 293.548 53.9659C292.444 53.1529 290.935 54.0118 289.731 54.0458C288.282 54.0868 286.794 54.3848 285.564 55.1848C284.229 56.0528 282.63 57.7788 282.673 59.4638C282.716 61.1438 284.253 62.3658 284.923 63.9068C285.754 65.8208 285.212 68.1528 285.788 70.0998C285.902 70.4848 286.059 70.8549 286.28 71.2029C287.944 73.8359 287.599 76.4358 288.676 79.3098C289.267 80.8878 290.377 82.3509 291.942 82.9769C293.339 83.5359 294.902 83.3728 296.406 83.3438C301.337 83.2498 305.205 86.2948 310.247 84.2208C314.074 82.6468 316.213 78.9018 315.42 74.8048C314.709 71.1318 311.988 68.4739 308.335 67.7209C306.443 67.3309 305.465 66.7569 303.824 65.9419C300.744 64.4139 297.267 64.1418 295.736 60.5448Z" fill="black"/>
<path d="M284.091 61.9151C285.021 60.8431 286.787 60.1651 288.054 60.1021C289.704 60.0191 291.417 60.7431 292.077 62.3431C292.353 63.0121 292.382 63.7531 292.404 64.4761C292.489 67.1761 292.54 69.8981 293.13 72.5341C293.341 73.4761 293.627 74.4181 294.159 75.2231C294.692 76.0281 295.501 76.6881 296.45 76.8641C295.377 78.1751 294.095 79.3131 292.669 80.2271C291.981 80.6681 291.231 81.0011 290.553 81.4551C289.936 81.8691 289.352 82.2891 288.589 82.3841C287.556 82.5121 286.565 81.7621 285.73 81.2511C284.842 80.7071 284.081 79.9821 283.311 79.2881C282.369 78.4401 281.385 77.6171 280.253 77.0461C281.687 76.4071 282.684 75.0151 283.158 73.5171C283.632 72.0201 283.641 70.4171 283.547 68.8501C283.453 67.2831 283.259 65.7151 283.342 64.1481C283.369 63.6371 283.427 63.1181 283.626 62.6461C283.736 62.3861 283.895 62.1421 284.091 61.9151Z" fill="#ED926E"/>
<path d="M263.365 89.7429C263.374 89.8129 263.377 89.8779 263.387 89.9489C263.388 89.9529 263.388 89.9559 263.389 89.9599C263.486 90.6149 264.066 91.0909 264.728 91.0909H281.571H317.921C319.069 91.0909 319.829 89.8749 319.309 88.8509C318.997 88.2359 318.658 87.6579 318.287 87.1139C314.608 81.7189 308.153 78.8869 302.072 77.1829C301.089 76.9079 300.099 76.6589 299.104 76.4339C298.586 76.3159 298.056 76.2499 297.525 76.2519C296.827 76.2549 296.382 76.1269 295.949 76.6009C295.359 77.2469 294.929 77.9929 294.262 78.5979C292.299 80.3799 290.133 80.9169 287.552 80.6149C284.966 80.3119 282.563 78.9249 280.772 77.0709C279.953 76.2239 278.193 77.1079 277.204 77.3879C275.787 77.7899 274.379 78.2259 272.945 78.5649C271.678 78.8649 270.389 79.0899 269.161 79.5219C266.035 80.6209 263.394 83.6388 263.097 86.9968C263.021 87.8518 263.083 88.7159 263.247 89.5569C263.264 89.6419 263.313 89.6959 263.365 89.7429Z" fill="white"/>
<path d="M294.91 61.6795C294.584 61.3815 294.184 61.1935 293.734 61.1935C293.73 61.1935 293.726 61.1945 293.722 61.1945C293.498 56.9775 290.784 53.6445 287.461 53.6445C284.129 53.6445 281.411 56.9945 281.198 61.2265C280.875 61.2915 280.563 61.4525 280.335 61.6805C280.173 61.8305 280.058 62.0085 279.991 62.2145C279.887 62.4125 279.839 62.6255 279.848 62.8545C279.867 63.2835 280.009 63.7295 280.335 64.0285C280.661 64.3265 281.061 64.5145 281.511 64.5145C281.526 64.5145 281.541 64.5105 281.557 64.5095C282.431 67.6315 284.741 69.8675 287.461 69.8675C290.192 69.8675 292.51 67.6135 293.376 64.4705C293.491 64.4975 293.61 64.5135 293.734 64.5135C294.459 64.5135 295.123 64.0195 295.328 63.3255C295.494 62.7675 295.348 62.0805 294.91 61.6795Z" fill="#ED926E"/>
<path d="M294.022 54.5804C293.879 54.3104 293.717 54.0544 293.53 53.8134C292.296 52.2294 289.857 51.3464 287.912 51.7264C286.387 52.0244 284.984 52.8474 283.499 53.2964C282.046 53.7354 280.558 53.9774 279.298 54.8974C278.955 55.1484 278.629 55.4374 278.415 55.8044C278.209 56.1574 278.115 56.5664 278.074 56.9734C277.962 58.0914 278.252 59.2724 278.986 60.1224C279.649 60.8904 280.677 61.4064 281.674 61.1444C282.782 60.8534 283.78 60.2644 284.741 59.6584C286.036 58.8424 287.276 57.9334 288.634 57.2204C289.773 56.6224 291.625 55.9354 292.288 57.4844C292.738 58.5354 292.611 59.7764 292.613 60.8904C292.614 61.1304 292.62 61.3754 292.703 61.5994C292.787 61.8234 292.963 62.0274 293.197 62.0804C293.294 62.1024 293.401 62.0964 293.488 62.0464C293.621 61.9704 293.68 61.8144 293.749 61.6784C293.935 61.4004 294.087 61.1784 294.436 61.1094C294.85 61.0274 295.142 61.3914 295.451 61.6254C295.536 61.6904 295.624 61.7554 295.726 61.7864C295.828 61.8174 295.95 61.8064 296.027 61.7324C296.158 61.6054 296.094 61.3874 296.022 61.2194C295.548 60.1044 295.318 59.0164 295.056 57.8514C294.807 56.7374 294.561 55.5974 294.022 54.5804Z" fill="black"/>
<path d="M288.674 69.5421C288.217 69.5211 287.765 69.6161 287.305 69.6111C286.952 69.6071 286.565 69.4801 286.24 69.6411C286.201 69.6601 286.181 69.7251 286.209 69.7611C286.456 70.0831 286.922 70.0911 287.305 70.1231C287.804 70.1651 288.323 70.1501 288.779 69.9321C288.979 69.8371 288.866 69.5511 288.674 69.5421Z" fill="black"/>
<path d="M289.42 65.0646C289.343 64.8666 289.094 64.7626 288.928 64.9346C288.92 64.9426 288.912 64.9506 288.904 64.9586C288.837 65.0286 288.805 65.1316 288.831 65.2266C288.793 65.8566 287.742 66.1916 287.303 66.2056C286.612 66.2276 285.78 65.9446 285.53 65.2326C285.472 65.0676 285.243 65.1346 285.271 65.3036C285.445 66.3776 286.659 66.8666 287.649 66.7506C288.113 66.6966 288.557 66.4966 288.896 66.1756C289.141 65.9426 289.562 65.4326 289.42 65.0646Z" fill="black"/>
<path d="M287.501 63.8249C287.492 63.7549 287.457 63.6869 287.382 63.6679C287.191 63.6209 287.278 63.4859 287.294 63.2939C287.318 63.0089 287.347 62.7229 287.374 62.4379C287.422 61.9269 287.509 61.4099 287.432 60.8999C287.408 60.7389 287.187 60.7769 287.142 60.8999C286.885 61.6019 286.896 62.4479 286.816 63.1869C286.773 63.5789 286.711 64.1549 287.267 64.1339C287.386 64.1289 287.528 64.0259 287.51 63.8909C287.507 63.8689 287.504 63.8469 287.501 63.8249Z" fill="black"/>
<path d="M281.611 62.7003L281.61 62.6983V62.6213C281.8 62.3923 281.511 62.0993 281.283 62.2943C281.087 62.4623 281.025 62.7043 281.114 62.9453C281.234 63.2673 281.727 63.1453 281.637 62.8013C281.629 62.7673 281.62 62.7343 281.611 62.7003Z" fill="black"/>
<path d="M294.443 62.6292C294.491 62.2782 293.958 62.1192 293.9 62.4792C293.846 62.8122 293.901 63.0662 294.228 63.2012C294.344 63.2492 294.472 63.1292 294.47 63.0172C294.468 62.9072 294.43 62.7272 294.443 62.6292Z" fill="black"/>
<path d="M244.418 63.3016C244.433 62.9436 244.221 62.5866 243.79 62.6416C229.778 62.2606 215.59 62.4866 201.582 62.9596C201.141 62.9746 201.14 63.6306 201.582 63.6456C215.59 64.1176 229.778 64.3446 243.79 63.9636C244.221 64.0176 244.433 63.6596 244.418 63.3016Z" fill="white"/>
<path d="M244.233 68.3223C237.101 68.0913 229.931 68.3023 222.794 68.3113C215.749 68.3193 208.348 67.7253 201.355 68.6283C200.915 68.6853 200.914 69.2573 201.355 69.3143C208.349 70.2183 215.748 69.6233 222.794 69.6313C229.93 69.6393 237.1 69.8513 244.233 69.6203C245.081 69.5933 245.048 68.2293 244.233 68.3223Z" fill="white"/>
<path d="M244.439 73.7549C240.935 73.2909 237.202 73.6289 233.668 73.6319C230.078 73.6359 226.487 73.6349 222.897 73.6439C215.816 73.6609 208.385 73.0869 201.355 73.9509C200.763 74.0239 200.762 74.8009 201.355 74.8739C208.386 75.7379 215.816 75.1619 222.897 75.1809C226.316 75.1899 229.736 75.1879 233.155 75.1919C236.852 75.1959 240.775 75.5559 244.439 75.0699C245.283 74.9579 245.284 73.8669 244.439 73.7549Z" fill="white"/>
<path d="M238.004 84.6771C237.799 83.7651 236.738 83.4711 235.919 83.4631C235.113 83.4551 234.091 83.7111 233.762 84.5371C233.394 85.4611 234.126 86.2921 234.97 86.5491C235.029 86.5671 235.083 86.5621 235.135 86.5481C235.718 86.7061 236.402 86.6941 236.826 86.5491C237.577 86.2911 238.188 85.4961 238.004 84.6771Z" fill="white"/>
<path d="M244.276 84.6771C244.071 83.7651 243.01 83.4711 242.191 83.4631C241.385 83.4551 240.363 83.7111 240.034 84.5371C239.666 85.4611 240.398 86.2921 241.242 86.5491C241.301 86.5671 241.355 86.5621 241.406 86.5481C241.989 86.7061 242.673 86.6941 243.097 86.5491C243.849 86.2911 244.46 85.4961 244.276 84.6771Z" fill="white"/>
<mask id="mask0_1188_1101" style="mask-type:luminance" maskUnits="userSpaceOnUse" x="263" y="76" width="57" height="16">
<path d="M263.365 89.7429C263.374 89.8129 263.377 89.8779 263.387 89.9489C263.388 89.9529 263.388 89.9559 263.389 89.9599C263.486 90.6149 264.066 91.0909 264.728 91.0909H281.571H317.921C319.069 91.0909 319.829 89.8749 319.309 88.8509C318.997 88.2359 318.658 87.6579 318.287 87.1139C314.608 81.7189 308.153 78.8869 302.072 77.1829C301.089 76.9079 300.099 76.6589 299.104 76.4339C298.586 76.3159 298.056 76.2499 297.525 76.2519C296.827 76.2549 296.382 76.1269 295.949 76.6009C295.359 77.2469 294.929 77.9929 294.262 78.5979C292.299 80.3799 290.133 80.9169 287.552 80.6149C284.966 80.3119 282.563 78.9249 280.772 77.0709C279.953 76.2239 278.193 77.1079 277.204 77.3879C275.787 77.7899 274.379 78.2259 272.945 78.5649C271.678 78.8649 270.389 79.0899 269.161 79.5219C266.035 80.6209 263.394 83.6388 263.097 86.9968C263.021 87.8518 263.083 88.7159 263.247 89.5569C263.264 89.6419 263.313 89.6959 263.365 89.7429Z" fill="white"/>
</mask>
<g mask="url(#mask0_1188_1101)">
<path d="M310.319 86.8688C310.411 86.2168 310.482 85.5468 310.29 84.9208C310.081 84.2418 309.468 83.6318 308.759 83.6718C308.26 83.6998 307.825 84.0368 307.521 84.4338C307.217 84.8308 307.011 85.2938 306.743 85.7158C306.302 86.4098 305.68 87.0158 305.456 87.8068C305.243 88.5588 305.423 89.3598 305.604 90.1198C305.741 90.6958 305.767 92.1958 306.372 92.4698C306.596 92.5718 307.349 92.5068 307.631 92.4898C309.093 92.4008 309.733 90.8998 309.918 89.6298C310.044 88.7638 310.17 87.8978 310.296 87.0318C310.304 86.9778 310.312 86.9228 310.319 86.8688Z" fill="black"/>
<path d="M314.363 87.4427C314.057 87.7527 313.754 88.1037 313.685 88.5347C313.594 89.1027 313.959 89.6777 314.463 89.9547C314.967 90.2317 315.578 90.2537 316.144 90.1527C316.71 90.0517 317.249 89.8377 317.798 89.6637C318.394 89.4747 319.013 89.3287 319.557 89.0197C320.101 88.7107 320.574 88.1977 320.646 87.5767C320.779 86.4277 319.356 84.8407 318.173 84.9167C316.817 85.0037 315.258 86.5357 314.363 87.4427Z" fill="black"/>
<path d="M300.918 78.7866C300.218 79.5716 299.336 80.3887 299.375 81.4387C299.403 82.2057 299.94 82.8657 300.551 83.3307C301.124 83.7677 301.885 84.0967 302.555 83.8307C303.273 83.5467 303.589 82.7047 303.691 81.9387C303.793 81.1727 303.773 80.3587 304.15 79.6847C304.451 79.1467 304.968 78.7687 305.368 78.3007C305.713 77.8957 305.973 77.4187 306.126 76.9087C306.255 76.4767 306.29 75.9607 305.994 75.6217C305.798 75.3977 305.499 75.2997 305.212 75.2207C304.203 74.9437 303.069 74.7797 302.611 75.8717C302.154 76.9637 301.726 77.8806 300.918 78.7866Z" fill="black"/>
<path d="M296.954 87.3217C297.756 86.8347 298.767 86.9157 299.676 86.6887C300.283 86.5367 300.853 86.2447 301.472 86.1477C302.09 86.0507 302.816 86.2117 303.131 86.7527C303.468 87.3347 303.192 88.0857 302.789 88.6237C302.386 89.1617 301.854 89.6217 301.606 90.2467C301.377 90.8247 301.418 91.4837 301.184 92.0597C300.864 92.8477 300.064 93.3597 299.236 93.5557C297.713 93.9167 295.738 93.9047 295.55 92.0417C295.397 90.5247 295.481 88.2157 296.954 87.3217Z" fill="black"/>
<path d="M289.165 83.1612C288.628 83.3602 288.079 83.5672 287.64 83.9352C287.201 84.3032 286.885 84.8712 286.972 85.4372C287.036 85.8552 287.303 86.2102 287.569 86.5392C287.927 86.9822 288.328 87.4342 288.871 87.6052C289.483 87.7972 290.148 87.5892 290.72 87.2992C291.292 87.0092 291.828 86.6332 292.444 86.4572C293.454 86.1682 294.675 86.4062 295.454 85.7022C295.945 85.2572 296.105 84.5082 295.91 83.8752C295.015 80.9862 291.063 82.4562 289.165 83.1612Z" fill="black"/>
<path d="M283.913 93.1947C284.998 92.5737 285.546 91.2047 285.416 89.9847C285.216 88.1107 284.189 85.8597 282.438 84.9867C282.038 84.7867 281.582 84.6557 281.144 84.7417C280.267 84.9137 279.769 85.8887 279.72 86.7807C279.671 87.6727 279.937 88.5537 279.967 89.4467C280.005 90.5727 279.705 91.8427 280.405 92.7257C280.65 93.0347 280.996 93.2537 281.364 93.3937C282.186 93.7077 283.148 93.6327 283.913 93.1947Z" fill="black"/>
<path d="M278.471 76.8207C277.769 77.8997 277.441 79.2167 277.557 80.4987C277.613 81.1157 277.919 81.8577 278.538 81.8827C278.791 81.8927 279.029 81.7717 279.249 81.6457C280.233 81.0817 281.121 80.3507 281.863 79.4937C282.157 79.1537 282.433 78.7877 282.596 78.3687C282.905 77.5777 282.787 76.6897 282.611 75.8587C282.433 75.0197 281.682 73.0887 280.459 73.8077C280.084 74.0277 279.94 74.6187 279.744 74.9747C279.383 75.6337 278.88 76.1927 278.471 76.8207Z" fill="black"/>
<path d="M275.12 82.2903C274.827 82.0273 274.483 81.8103 274.099 81.7213C273.424 81.5643 272.719 81.8183 272.12 82.1643C271.488 82.5293 270.918 83.0023 270.442 83.5563C270.161 83.8833 269.909 84.2473 269.802 84.6653C269.695 85.0823 269.755 85.5603 270.041 85.8823C270.295 86.1683 270.681 86.2913 271.049 86.3943C272.083 86.6813 273.163 86.9113 274.045 87.5213C274.399 87.7663 274.713 88.0673 275.083 88.2863C275.453 88.5053 275.907 88.6383 276.315 88.5033C276.896 88.3113 277.197 87.6293 277.15 87.0183C277.08 86.0843 276.378 85.3893 276.206 84.4953C276.039 83.6193 275.817 82.9173 275.12 82.2903Z" fill="black"/>
<path d="M265.747 86.3178C266.31 86.2948 266.895 86.3858 267.366 86.6938C267.787 86.9688 268.088 87.3998 268.288 87.8618C268.787 89.0108 268.673 90.4188 267.952 91.4428C267.231 92.4678 265.912 93.0528 264.676 92.8488C264.298 92.7868 263.923 92.6558 263.542 92.6928C263.025 92.7428 262.568 93.0938 262.049 93.1138C260.104 93.1858 260.007 89.8648 260.895 88.7358C261.908 87.4468 264.149 86.3828 265.747 86.3178Z" fill="black"/>
<path d="M266.638 82.3827C266.708 82.5527 266.787 82.7277 266.932 82.8417C267.212 83.0617 267.621 82.9707 267.949 82.8307C268.276 82.6897 268.617 82.5047 268.968 82.5697C269.139 82.6017 269.337 82.6847 269.468 82.5707C269.513 82.5317 269.539 82.4747 269.563 82.4197C270.002 81.4217 270.298 80.3057 270.052 79.2437C269.681 77.6387 267.659 76.4997 266.202 77.6487C265.06 78.5507 266.216 81.3577 266.638 82.3827Z" fill="black"/>
</g>
<path d="M166.873 87.7373C166.942 87.7433 167.788 88.0043 167.769 87.8103C167.626 86.3203 167.482 84.8313 167.339 83.3413C167.299 82.9243 167.126 81.2633 168.041 81.7243C168.433 81.9213 168.675 82.5973 168.755 82.9983C168.89 83.6733 168.868 84.3563 168.945 85.0363C169.041 85.8813 169.112 86.7273 169.197 87.5733C169.262 88.2153 169.125 89.1263 169.421 89.7013C169.632 90.1113 170.221 90.3563 170.57 90.0543C170.688 89.9523 170.76 89.8073 170.823 89.6643C171.039 89.1793 171.203 88.6733 171.379 88.1733C171.496 87.8403 171.632 87.4923 171.909 87.2753C172.186 87.0573 172.651 87.0393 172.852 87.3293C173.005 87.5503 172.953 87.8493 172.893 88.1113C172.542 89.6413 172.139 91.1603 171.685 92.6623C171.382 93.6673 171.051 94.6733 170.52 95.5783C170.273 96.0003 169.98 96.4023 169.815 96.8623C169.644 97.3393 169.617 97.8563 169.493 98.3473C169.208 99.4763 168.32 99.8393 167.26 99.4043C165.35 99.5373 164.168 97.0133 163.737 95.4433C162.825 92.1203 161.798 88.1483 161.985 84.6823C162.005 84.3163 162.485 84.2773 162.602 84.6083C162.836 85.2693 163.02 85.9473 163.176 86.6303C163.329 87.2983 163.367 88.0603 163.595 88.7003C163.835 88.5983 163.869 88.2853 163.834 88.0523C163.672 86.9683 163.51 85.8833 163.348 84.7993C163.218 83.9323 163.099 83.0513 163.319 82.1893C163.394 81.8963 163.496 81.6413 163.844 81.6443C164.127 81.6463 164.366 81.8583 164.391 82.1413C164.561 84.0593 164.838 85.9553 165.201 87.8443C165.318 87.8253 165.435 87.8083 165.57 87.7913C165.226 85.4353 164.996 83.0573 164.803 80.6933C164.751 80.0553 165.845 79.9123 165.93 80.5583C166.245 82.9513 166.559 85.3443 166.873 87.7373Z" fill="#ED926E"/>
<path d="M326.747 145.061C328.369 144.066 329.703 142.708 330.57 140.844C331.769 138.265 332.114 135.377 332.269 132.537C332.637 125.835 332.07 118.656 330.845 112.087C330.18 108.52 327.237 105.711 323.911 104.261C316.642 101.09 307.466 102.334 299.749 102.304C290.907 102.27 282.065 102.269 273.222 102.302C262.294 102.343 251.365 102.435 240.438 102.579C234.974 102.651 229.507 102.805 224.043 102.833C218.847 102.86 213.941 100.889 208.627 101.491C203.996 102.016 199.343 104.195 196.861 108.14C195.156 110.85 194.615 114.108 194.109 117.27C193.545 120.793 192.979 124.357 193.264 127.914C194.22 139.851 204.308 147.889 215.945 148.157C221.643 148.288 227.341 148.419 233.039 148.55C258.57 149.138 284.172 149.402 309.663 148.05C314.822 147.775 322.011 147.967 326.747 145.061Z" fill="#91E3AB"/>
<path d="M297.705 119.538C297.719 119.195 297.516 118.852 297.103 118.905C283.676 118.54 270.079 118.757 256.655 119.21C256.232 119.224 256.231 119.853 256.655 119.868C270.078 120.321 283.676 120.538 297.103 120.172C297.516 120.225 297.719 119.881 297.705 119.538Z" fill="white"/>
<path d="M297.528 124.35C290.693 124.129 283.822 124.331 276.983 124.339C270.232 124.347 263.14 123.777 256.438 124.643C256.016 124.698 256.015 125.246 256.438 125.301C263.14 126.167 270.231 125.597 276.983 125.605C283.822 125.613 290.693 125.815 297.528 125.594C298.34 125.568 298.309 124.261 297.528 124.35Z" fill="white"/>
<path d="M297.725 129.556C294.367 129.111 290.79 129.435 287.403 129.438C283.962 129.442 280.522 129.441 277.081 129.449C270.296 129.466 263.174 128.915 256.437 129.743C255.87 129.813 255.868 130.558 256.437 130.628C263.174 131.456 270.295 130.904 277.081 130.922C280.358 130.931 283.634 130.929 286.911 130.933C290.454 130.937 294.213 131.281 297.724 130.816C298.533 130.71 298.535 129.664 297.725 129.556Z" fill="white"/>
<path d="M291.558 140.023C291.362 139.149 290.345 138.867 289.56 138.86C288.788 138.853 287.808 139.097 287.493 139.889C287.14 140.774 287.842 141.571 288.65 141.817C288.706 141.834 288.759 141.829 288.808 141.816C289.366 141.967 290.022 141.956 290.429 141.816C291.149 141.57 291.734 140.808 291.558 140.023Z" fill="white"/>
<path d="M297.568 140.023C297.372 139.149 296.355 138.867 295.57 138.86C294.798 138.853 293.818 139.097 293.502 139.889C293.149 140.774 293.851 141.571 294.659 141.817C294.715 141.834 294.768 141.829 294.817 141.816C295.375 141.967 296.031 141.956 296.438 141.816C297.16 141.57 297.745 140.808 297.568 140.023Z" fill="white"/>
<path d="M283.322 138.992C282.431 138.895 281.005 139.315 280.695 140.286C280.549 140.743 280.778 141.405 281.171 141.809C281.188 141.826 281.209 141.839 281.227 141.855C281.379 141.997 281.55 142.1 281.734 142.141C282.235 142.32 282.848 142.34 283.3 142.338C284.248 142.334 285.615 141.999 285.543 140.775C285.481 139.729 284.234 139.091 283.322 138.992Z" fill="white"/>
<path d="M207.788 129.591C209.12 129.526 210.439 129.371 211.651 129.258C212.844 129.146 214.037 129 215.234 129.026C216.85 129.062 218.476 129.412 220.07 129.142C221.343 128.926 222.545 128.306 223.46 127.394C224.246 126.609 224.831 125.57 224.866 124.46C224.898 123.466 224.492 122.503 223.946 121.672C223.4 120.841 222.715 120.112 222.1 119.33C220.88 117.779 219.938 116.011 219.33 114.134C218.742 112.319 218.458 110.286 217.307 108.711C216.322 107.362 214.502 106.952 212.917 106.896C211.096 106.832 209.141 107.097 207.585 108.11C205.364 109.555 204.353 111.92 203.822 114.443C203.571 115.636 203.632 116.855 203.251 118.007C202.847 119.232 202.267 120.399 201.534 121.46C201.064 122.141 200.526 122.787 200.203 123.549C199.806 124.486 199.764 125.568 200.088 126.532C201.146 129.672 205.029 129.726 207.788 129.591Z" fill="black"/>
<path d="M205.628 114.798C206.745 113.77 208.899 113.517 210.25 113.381C212.805 113.123 215.122 114.18 215.478 116.918C215.714 118.728 215.546 120.659 215.643 122.492C215.747 124.455 215.915 126.415 216.147 128.368C216.217 128.956 216.318 129.593 216.751 129.996C217.091 130.313 217.57 130.418 218.006 130.579C219.301 131.055 219.37 132.511 218.929 133.653C218.416 134.983 217.659 136.282 216.466 137.063C214.842 138.126 212.724 138.038 210.827 137.629C208.737 137.178 206.724 136.378 204.888 135.281C203.967 134.731 203.081 134.083 202.253 133.404C201.88 133.098 200.821 132.407 200.719 131.932C200.522 131.008 202.019 131.225 202.518 131.192C202.935 131.165 203.334 131.015 203.72 130.852C204.246 130.629 204.789 130.349 205.077 129.856C205.292 129.487 205.336 129.046 205.37 128.62C205.558 126.249 205.579 123.864 205.435 121.49C205.365 120.339 205.356 119.082 205.094 117.956C204.887 117.068 204.681 116.527 205.06 115.597C205.186 115.288 205.382 115.024 205.628 114.798Z" fill="#ED926E"/>
<path d="M237.66 140.496C237.645 140.474 237.63 140.452 237.615 140.43C235.506 137.338 232.345 135.267 228.93 133.857C227.213 133.149 225.439 132.592 223.653 132.087C222.764 131.836 221.871 131.599 220.977 131.363C220.181 131.153 219.164 130.704 218.366 130.717C218.53 131.473 217.483 132.443 216.988 132.91C214.814 134.962 211.621 135.753 208.663 135.317C205.652 134.873 203.047 133.27 200.835 131.249C200.309 130.828 197.575 131.024 196.794 130.881C195.333 130.613 193.894 130.228 192.478 129.78C189.676 128.893 187.125 127.631 184.279 126.769C183.405 126.504 182.513 126.231 181.771 125.699C181.152 125.256 180.667 124.654 180.218 124.04C178.32 121.446 176.941 118.514 175.862 115.496C174.953 112.955 174.551 109.159 172.783 107.063C172.592 106.837 172.377 106.623 172.256 106.353C172.172 106.164 172.138 105.957 172.106 105.753C171.685 103.114 171.475 100.307 170.93 97.6641C170.005 97.8411 169.076 97.9931 168.145 98.1271C166.893 98.3541 165.557 98.5421 164.459 98.4971C164.079 98.5171 163.699 98.5441 163.318 98.5501C162.838 101.84 163.131 105.626 163.292 108.879C163.396 110.977 163.61 113.068 163.686 115.167C163.745 116.794 163.722 118.427 163.928 120.041C164.151 121.789 164.641 123.491 165.13 125.184C165.501 126.47 165.872 127.757 166.243 129.043C168.924 138.343 178.855 144.251 187.493 147.146C191.344 148.437 196.714 147.742 200.763 147.742H225.906C226.379 147.742 230.23 147.618 233.854 147.563C237.451 147.51 239.671 143.48 237.66 140.496Z" fill="black"/>
<path d="M209.613 123.795C213.32 123.795 216.325 119.915 216.325 115.129C216.325 110.343 213.32 106.463 209.613 106.463C205.906 106.463 202.901 110.343 202.901 115.129C202.901 119.915 205.906 123.795 209.613 123.795Z" fill="#ED926E"/>
<path d="M204.514 115.045C204.166 114.726 203.739 114.525 203.257 114.525C202.801 114.525 202.322 114.723 202 115.045C201.827 115.206 201.704 115.396 201.633 115.616C201.522 115.827 201.471 116.055 201.48 116.299C201.501 116.758 201.652 117.233 202.001 117.553C202.349 117.871 202.776 118.072 203.258 118.072C203.714 118.072 204.193 117.874 204.515 117.553C204.688 117.392 204.811 117.202 204.882 116.982C204.993 116.771 205.044 116.543 205.035 116.299C205.014 115.841 204.863 115.365 204.514 115.045Z" fill="#ED926E"/>
<path d="M217.571 115.045C217.223 114.726 216.796 114.525 216.314 114.525C215.858 114.525 215.379 114.723 215.057 115.045C214.884 115.206 214.761 115.396 214.69 115.616C214.579 115.827 214.528 116.055 214.537 116.299C214.558 116.758 214.709 117.233 215.058 117.553C215.406 117.871 215.833 118.072 216.315 118.072C216.771 118.072 217.249 117.874 217.572 117.553C217.745 117.392 217.868 117.202 217.939 116.982C218.05 116.771 218.101 116.543 218.092 116.299C218.071 115.841 217.92 115.365 217.571 115.045Z" fill="#ED926E"/>
<path d="M217.117 107.225C216.959 106.887 216.8 106.56 216.649 106.247C216.013 104.93 215.131 103.896 213.772 103.292C213.284 103.075 212.774 102.899 212.246 102.82C210.573 102.569 208.913 103.298 207.449 104.146C205.985 104.994 204.561 105.994 202.912 106.37C202.376 106.492 201.824 106.546 201.304 106.723C200.088 107.136 199.838 108.129 199.902 109.317C199.915 109.553 199.942 109.788 199.983 110.021C200.24 111.476 201.038 112.83 202.182 113.763C202.51 114.031 202.731 114.186 203.157 114.208C203.613 114.232 204.071 114.225 204.527 114.191C205.422 114.125 206.309 113.955 207.173 113.714C208.602 113.315 209.97 112.723 211.303 112.071C211.897 111.781 212.487 111.477 213.108 111.25C213.503 111.105 213.951 110.994 214.336 111.165C214.519 111.246 214.669 111.384 214.816 111.52C215.043 111.729 215.411 111.962 215.549 112.242C215.669 112.485 215.705 112.83 215.765 113.094C215.824 113.352 215.883 113.611 215.942 113.869C215.981 114.039 216.023 114.217 216.137 114.348C216.548 114.822 217.321 114.437 217.602 114.034C219.063 111.943 218.119 109.371 217.117 107.225Z" fill="black"/>
<path d="M211.356 118.249C211.34 118.272 211.324 118.296 211.308 118.319C211.288 118.348 211.291 118.381 211.284 118.412C210.728 120.003 208.807 120.154 207.775 118.895C207.653 118.747 207.447 118.935 207.523 119.089C208.532 121.132 211.416 120.608 211.983 118.513C212.089 118.123 211.571 117.938 211.356 118.249Z" fill="black"/>
<path d="M210.648 123.329C210.418 123.468 210.204 123.607 209.931 123.645C209.583 123.694 209.23 123.58 208.899 123.485C208.681 123.422 208.534 123.75 208.742 123.857C209.45 124.224 210.669 124.663 211.075 123.657C211.172 123.415 210.849 123.207 210.648 123.329Z" fill="black"/>
<path d="M209.746 116.995C209.655 116.912 209.579 116.908 209.485 116.853C209.243 116.714 209.294 116.7 209.289 116.482C209.285 116.332 209.358 116.154 209.382 116.006C209.461 115.504 209.439 115.001 209.403 114.495C209.39 114.316 209.13 114.313 209.122 114.495C209.1 114.996 209.002 115.483 208.885 115.969C208.819 116.243 208.624 116.593 208.68 116.886C208.764 117.325 209.443 117.603 209.747 117.24C209.804 117.171 209.82 117.063 209.746 116.995Z" fill="black"/>
<path d="M217.101 115.962C217.044 115.654 216.593 115.79 216.637 116.09C216.659 116.239 216.675 116.273 216.739 116.407C216.836 116.61 217.098 116.482 217.119 116.304C217.137 116.152 217.129 116.112 217.101 115.962Z" fill="black"/>
<path d="M202.743 116.165C202.705 115.748 202.105 115.821 202.172 116.242C202.202 116.428 202.24 116.537 202.354 116.68C202.432 116.777 202.623 116.751 202.674 116.639C202.752 116.47 202.76 116.353 202.743 116.165Z" fill="black"/>
<path d="M319.657 178.475C319.078 174.567 319.316 170.227 317.416 166.684C316.299 164.601 314.751 162.027 312.652 160.826C310.123 159.38 307.162 158.935 304.273 158.556C287.745 156.389 271.424 156.685 254.87 156.082C237.919 155.465 220.846 156.143 203.934 157.356C203.054 157.419 202.174 157.484 201.294 157.552C198.342 157.778 195.337 158.039 192.597 159.161C187.771 161.137 184.309 165.62 182.463 170.497C180.617 175.374 180.194 180.66 179.955 185.869C179.448 196.903 190.344 202.312 200.221 202.535C206.043 202.666 211.866 202.797 217.689 202.929C243.778 203.517 269.939 203.781 295.987 202.429C300.285 202.206 304.401 201.501 308.645 200.955C310.501 200.717 312.16 200.691 313.667 200.251C315.067 199.842 316.335 199.075 317.506 197.447C321.363 192.084 320.567 184.618 319.657 178.475Z" fill="#91D8E3"/>
<path d="M281.779 171.988C284.059 169.569 288.65 169.037 290.145 172.615C290.535 173.549 290.585 174.584 290.643 175.595C290.804 178.401 291.09 181.288 292.407 183.771C292.729 184.378 293.114 184.964 293.291 185.629C293.755 187.376 292.626 188.069 291.432 188.893C290.827 189.311 290.293 189.827 289.758 190.328C287.811 192.153 286.707 192.855 284.076 192.007C282.029 191.347 280.168 190.102 278.799 188.441C278.297 187.832 277.837 187.068 278.01 186.298C278.125 185.784 278.501 185.377 278.829 184.964C280.05 183.423 280.742 181.47 280.764 179.504C280.78 177.987 280.412 176.483 280.469 174.967C280.512 173.817 281.016 172.797 281.779 171.988Z" fill="#ED926E"/>
<path d="M262.479 198.263C262.613 200.223 263.157 202.434 264.689 202.872C266.388 203.358 268.18 203.384 269.947 203.375C281.518 203.32 293.072 201.943 304.635 202.363C306.265 202.422 307.899 202.517 309.526 202.404C310.527 202.334 311.522 202.186 312.514 202.036C313.311 201.916 314.159 201.771 314.754 201.227C315.564 200.487 315.648 199.193 315.248 198.172C314.537 196.354 312.7 194.296 311.281 192.978C309.688 191.499 307.844 190.304 305.909 189.32C304.042 188.371 302.081 187.616 300.085 186.99C298.969 186.64 297.84 186.332 296.703 186.058C295.988 185.885 294.001 185.064 293.338 185.391C293.044 185.536 292.849 185.82 292.653 186.083C290.977 188.327 288.201 189.708 285.401 189.69C282.6 189.672 279.842 188.256 278.195 185.99C277.889 185.568 272.856 187.011 272.218 187.174C270.246 187.677 268.166 188.305 266.411 189.362C264.092 190.757 262.768 193.182 262.502 195.838C262.445 196.438 262.415 197.322 262.479 198.263Z" fill="black"/>
<path d="M291.447 171.759C291.447 176.292 288.6 179.967 285.089 179.967C281.577 179.967 278.731 176.292 278.731 171.759C278.731 167.226 281.578 163.551 285.089 163.551C288.6 163.551 291.447 167.226 291.447 171.759Z" fill="#ED926E"/>
<path d="M280.258 171.681C279.929 171.379 279.524 171.189 279.068 171.189C278.636 171.189 278.183 171.376 277.878 171.681C277.714 171.833 277.598 172.013 277.53 172.222C277.425 172.422 277.376 172.638 277.385 172.869C277.405 173.303 277.548 173.754 277.878 174.057C278.207 174.359 278.612 174.549 279.068 174.549C279.5 174.549 279.953 174.362 280.258 174.057C280.422 173.905 280.538 173.725 280.606 173.516C280.711 173.316 280.76 173.1 280.751 172.869C280.732 172.434 280.589 171.984 280.258 171.681Z" fill="#ED926E"/>
<path d="M292.627 171.681C292.298 171.379 291.893 171.189 291.437 171.189C291.005 171.189 290.552 171.376 290.247 171.681C290.083 171.833 289.967 172.013 289.899 172.222C289.794 172.422 289.745 172.638 289.754 172.869C289.774 173.303 289.917 173.754 290.247 174.057C290.576 174.359 290.981 174.549 291.437 174.549C292.17 174.549 292.842 174.049 293.05 173.347C293.217 172.782 293.07 172.087 292.627 171.681Z" fill="#ED926E"/>
<path d="M292.354 164.773C292.346 164.629 292.338 164.485 292.33 164.34C292.294 163.696 292.255 163.036 292.002 162.442C291.098 160.317 289.748 161.281 288.082 160.634C287.422 160.378 287.008 159.817 286.335 159.575C285.498 159.274 284.619 159.113 283.728 159.128C281.611 159.163 281.583 160.452 280.692 161.976C280.291 162.661 279.552 163.074 279.049 163.689C278.044 164.916 278.149 166.68 278.305 168.258C278.383 169.048 278.239 171.188 279.444 171.368C280.512 171.527 280.207 169.703 280.437 168.899C280.499 168.684 280.565 168.466 280.683 168.276C281.417 167.092 283.437 167.017 284.653 166.974C286.241 166.918 288.275 166.423 289.654 167.341C290.294 167.767 290.627 168.537 290.757 169.296C290.757 169.921 290.724 170.538 290.682 171.164C290.676 171.247 290.677 171.345 290.743 171.397C290.779 171.425 290.826 171.432 290.871 171.438C293.062 171.735 292.61 169.374 292.525 167.842C292.468 166.819 292.411 165.796 292.354 164.773Z" fill="black"/>
<path d="M286.315 179.638C285.852 179.616 285.395 179.713 284.93 179.708C284.573 179.704 284.181 179.575 283.853 179.739C283.814 179.758 283.793 179.824 283.821 179.86C284.071 180.186 284.543 180.194 284.93 180.227C285.435 180.27 285.96 180.255 286.422 180.034C286.624 179.937 286.51 179.647 286.315 179.638Z" fill="black"/>
<path d="M285.129 173.851C285.12 173.78 285.084 173.711 285.008 173.692C284.814 173.645 284.902 173.508 284.919 173.313C284.943 173.024 284.973 172.736 285 172.447C285.048 171.93 285.136 171.407 285.059 170.891C285.035 170.728 284.812 170.767 284.766 170.891C284.506 171.602 284.517 172.457 284.436 173.205C284.393 173.602 284.33 174.184 284.892 174.163C285.012 174.158 285.156 174.053 285.138 173.917C285.135 173.895 285.132 173.874 285.129 173.851Z" fill="black"/>
<path d="M279.169 172.716L279.168 172.714V172.636C279.36 172.404 279.068 172.108 278.837 172.305C278.638 172.474 278.576 172.72 278.666 172.964C278.787 173.29 279.286 173.166 279.196 172.818C279.187 172.784 279.178 172.75 279.169 172.716Z" fill="black"/>
<path d="M292.154 172.643C292.203 172.288 291.664 172.127 291.605 172.492C291.551 172.829 291.606 173.086 291.937 173.223C292.054 173.271 292.184 173.15 292.181 173.037C292.178 172.923 292.141 172.741 292.154 172.643Z" fill="black"/>
<path d="M286.66 176.111C286.133 176.235 285.635 176.369 285.086 176.365C284.534 176.361 284.039 176.213 283.507 176.096C283.268 176.043 283.123 176.362 283.339 176.495C284.347 177.118 285.831 177.151 286.907 176.696C287.251 176.55 286.998 176.031 286.66 176.111Z" fill="black"/>
<path d="M252.601 174.862C252.616 174.505 252.404 174.147 251.973 174.202C237.961 173.821 223.773 174.047 209.765 174.52C209.324 174.535 209.323 175.191 209.765 175.206C223.773 175.678 237.961 175.905 251.973 175.524C252.404 175.578 252.616 175.22 252.601 174.862Z" fill="white"/>
<path d="M252.416 179.883C245.284 179.652 238.114 179.863 230.977 179.872C223.932 179.88 216.531 179.286 209.538 180.189C209.098 180.246 209.097 180.818 209.538 180.875C216.532 181.779 223.931 181.184 230.977 181.192C238.113 181.2 245.283 181.412 252.416 181.181C253.264 181.154 253.231 179.79 252.416 179.883Z" fill="white"/>
<path d="M252.622 185.315C249.118 184.851 245.385 185.189 241.851 185.192C238.261 185.196 234.67 185.195 231.08 185.204C224 185.221 216.568 184.647 209.538 185.511C208.946 185.584 208.945 186.361 209.538 186.434C216.569 187.298 223.998 186.722 231.08 186.741C234.499 186.75 237.919 186.748 241.338 186.752C245.035 186.756 248.957 187.116 252.622 186.63C253.465 186.518 253.467 185.427 252.622 185.315Z" fill="white"/>
<path d="M246.186 196.238C245.981 195.326 244.92 195.032 244.101 195.024C243.295 195.017 242.273 195.272 241.944 196.098C241.576 197.022 242.308 197.854 243.152 198.11C243.211 198.128 243.265 198.123 243.317 198.109C243.9 198.267 244.584 198.255 245.008 198.109C245.76 197.852 246.37 197.057 246.186 196.238Z" fill="white"/>
<path d="M252.458 196.238C252.253 195.326 251.192 195.032 250.373 195.024C249.567 195.017 248.545 195.272 248.216 196.098C247.848 197.022 248.58 197.854 249.424 198.11C249.483 198.128 249.537 198.123 249.589 198.109C250.172 198.267 250.856 198.255 251.28 198.109C252.032 197.852 252.642 197.057 252.458 196.238Z" fill="white"/>
<path d="M237.592 195.163C236.662 195.062 235.175 195.501 234.851 196.513C234.698 196.99 234.937 197.681 235.348 198.102C235.366 198.12 235.388 198.133 235.407 198.15C235.565 198.298 235.744 198.406 235.936 198.448C236.458 198.635 237.098 198.655 237.57 198.653C238.559 198.649 239.986 198.299 239.91 197.022C239.845 195.932 238.544 195.266 237.592 195.163Z" fill="white"/>
<path d="M8.621 287.916C9.518 285.439 11.412 283.379 12.062 280.826C13.039 276.984 11.034 272.681 12.635 269.054C13.655 266.745 15.952 265.213 17.067 262.949C18.4 260.244 17.824 257.042 18.027 254.034C18.317 249.73 20.339 245.567 23.543 242.679C24.577 241.747 25.789 240.92 27.17 240.746C30.08 240.381 32.614 243.136 33.168 246.015C33.722 248.895 32.862 251.832 32.153 254.677C31.444 257.522 30.896 260.609 32.02 263.318C33.646 267.239 38.543 269.87 38.254 274.105C38.08 276.644 36.012 278.606 35.045 280.96C33.733 284.152 34.531 287.797 33.998 291.206C33.416 294.926 31.147 298.349 27.947 300.334C19.821 305.375 4.551 299.153 8.621 287.916Z" fill="#91E3AB"/>
<path d="M4.90605 292.29C4.45905 290.2 4.48705 288.069 4.30105 285.948C4.09005 283.541 3.96905 281.116 4.18205 278.704C4.33005 277.03 4.63705 275.371 4.75005 273.695C4.98005 270.3 4.40206 266.852 3.07705 263.718C2.19405 261.629 0.977053 259.655 0.498053 257.438C-0.0729474 254.8 0.461051 252.02 1.50005 249.529C2.17205 247.918 3.05305 246.392 3.60705 244.737C5.08805 240.31 4.09905 235.491 4.11305 230.822C4.11905 229.036 4.28805 227.2 5.08605 225.603C5.64105 224.493 6.73305 223.439 7.95505 223.655C9.24205 223.883 9.95005 225.449 10.5271 226.466C11.3421 227.905 11.687 229.705 11.964 231.324C12.538 234.681 12.4891 238.114 12.2591 241.501C11.8871 246.988 10.47 251.725 13.089 257.044C13.812 258.513 14.7401 259.881 15.3601 261.396C16.2621 263.601 16.4721 266.084 15.9551 268.409C15.5311 270.315 14.6281 272.171 14.7931 274.117C15.0121 276.686 17.0021 278.685 18.3911 280.857C21.4041 285.568 21.6871 291.473 21.3031 296.897C21.0321 300.729 18.3381 306.378 13.4451 304.232C9.08605 302.321 5.85005 296.707 4.90605 292.29Z" fill="black"/>
<path d="M12.21 283.995C10.944 276.104 10.121 268.15 9.65801 260.173C9.64301 259.912 9.23802 259.909 9.25002 260.173C9.58902 267.925 10.352 275.644 11.526 283.315C12.726 291.154 14.094 299.251 16.574 306.8C16.653 307.042 17.006 306.944 16.955 306.695C15.388 299.109 13.438 291.655 12.21 283.995Z" fill="white"/>
<path d="M3.41403 296.958C3.04103 296.958 2.75103 297.28 2.79403 297.65C2.90203 298.589 3.01003 300.174 3.02403 300.38C3.13403 301.943 3.36803 301.716 4.46803 301.713C4.77803 301.712 5.05203 301.945 5.09703 302.252C5.60903 305.692 5.71803 309.012 5.94503 312.502C6.25403 317.233 6.64703 322.002 7.24303 326.729C7.24503 326.747 7.24803 326.765 7.25203 326.782C7.34703 327.227 7.43803 327.672 7.50603 328.117C7.55303 328.427 7.81103 328.661 8.12403 328.661C11.624 328.661 15.125 328.628 18.625 328.617C20.609 328.611 22.594 328.606 24.578 328.598C26.106 328.592 27.708 328.71 29.226 328.462C29.701 328.385 30.583 322.184 30.722 321.476C31.195 319.058 31.633 316.634 32.065 314.208C32.811 310.015 33.415 305.74 34.329 301.591C34.388 301.322 34.623 301.13 34.897 301.103C35.577 301.037 35.796 300.744 35.808 299.847C35.818 299.113 35.824 298.379 35.884 297.648C35.915 297.278 35.636 296.957 35.264 296.957H3.41403V296.958Z" fill="black"/>
<path d="M20.69 270.836C20.443 270.567 20.012 270.486 19.698 270.303C19.323 270.084 19.002 269.795 18.746 269.444C18.519 269.133 18.008 269.409 18.217 269.753C18.479 270.185 18.81 270.561 19.217 270.861C19.575 271.125 20.101 271.461 20.561 271.319C20.775 271.254 20.839 270.998 20.69 270.836Z" fill="black"/>
<path d="M21.516 261.597C21.052 261.276 20.553 261.024 20.031 260.813C19.712 260.684 19.481 261.227 19.795 261.373C20.257 261.587 20.699 261.84 21.106 262.148C21.448 262.407 21.756 262.873 22.206 262.896C22.337 262.903 22.464 262.775 22.458 262.644C22.434 262.161 21.881 261.85 21.516 261.597Z" fill="black"/>
<path d="M29.0361 263.12C28.5401 263.502 27.9881 263.861 27.6221 264.377C27.4441 264.629 27.7781 264.862 28.0041 264.759C28.5491 264.509 28.9971 264.037 29.4401 263.643C29.7181 263.396 29.3381 262.887 29.0361 263.12Z" fill="black"/>
<path d="M29.8511 265.698C29.3921 265.884 28.9761 266.123 28.6011 266.447C28.3001 266.708 27.8281 267.129 27.8821 267.565C27.8971 267.685 27.9991 267.805 28.1361 267.759C28.4941 267.638 28.6891 267.248 28.9541 266.994C29.2841 266.676 29.6691 266.442 30.0901 266.263C30.4091 266.128 30.1771 265.566 29.8511 265.698Z" fill="black"/>
<path d="M30.8511 249.754L29.7841 250.903C29.4741 251.237 29.1171 251.56 28.9701 252C28.9001 252.209 29.1411 252.339 29.3101 252.261C29.7261 252.069 30.0161 251.652 30.3111 251.312C30.6361 250.937 30.9601 250.562 31.2851 250.187C31.5391 249.892 31.1211 249.462 30.8511 249.754Z" fill="black"/>
<path d="M23.1751 250.239C22.9531 249.747 22.4371 249.374 22.0581 249.001C21.7611 248.709 21.3081 249.161 21.6011 249.458C21.9741 249.837 22.3481 250.352 22.8401 250.574C23.0691 250.678 23.2791 250.469 23.1751 250.239Z" fill="black"/>
<path d="M27.095 244.976C26.93 244.554 26.243 244.733 26.406 245.166C26.595 245.667 26.5221 246.159 26.6461 246.661C26.7051 246.901 27.047 246.938 27.168 246.729C27.468 246.213 27.3 245.5 27.095 244.976Z" fill="black"/>
<path d="M31.341 279.898C30.576 280.641 29.769 281.353 28.969 282.057C28.689 282.303 29.046 282.715 29.352 282.554C30.36 282.025 31.204 281.37 32.01 280.567C32.442 280.136 31.778 279.473 31.341 279.898Z" fill="black"/>
<path d="M30.9031 287.076C30.2631 287.451 29.5261 287.795 29.0301 288.359C28.8681 288.543 29.0241 288.823 29.2681 288.768C30.0021 288.605 30.6581 288.125 31.2951 287.745C31.7231 287.49 31.3351 286.822 30.9031 287.076Z" fill="black"/>
<path d="M35.8701 301.05C30.8831 300.201 25.4101 300.713 20.3651 300.79C14.9311 300.873 9.50009 301.068 4.07309 301.346C3.45809 301.377 3.45509 302.34 4.07309 302.306C9.35709 302.01 14.6451 301.811 19.9361 301.712C25.1431 301.615 30.6511 302.179 35.8091 301.499C36.0361 301.468 36.1501 301.098 35.8701 301.05Z" fill="white"/>
<path d="M26.2731 249.188C24.2981 265.458 23.5601 281.825 21.0631 298.048C20.9891 298.526 21.7251 298.726 21.7911 298.249C24.0601 282.033 26.0621 265.557 26.7631 249.189C26.7761 248.866 26.3101 248.884 26.2731 249.188Z" fill="black"/>
<path d="M302.629 267.948C302.659 267.86 302.687 267.771 302.715 267.682C304.066 263.247 303.86 258.296 301.854 254.089C301.264 252.852 300.536 251.673 300.103 250.373C298.525 245.637 301.114 240.297 299.665 235.52C298.645 232.156 295.517 229.534 292.026 229.116C288.535 228.698 284.877 230.509 283.092 233.537C281.133 236.86 281.196 241.491 278.104 243.798C276.668 244.869 274.819 245.191 273.213 245.986C270.345 247.405 268.354 250.451 268.203 253.647C268.046 256.988 269.729 260.424 268.629 263.583C267.854 265.809 265.863 267.354 264.516 269.289C262.535 272.135 262.018 275.945 263.169 279.216C263.927 281.37 265.339 283.245 266.117 285.392C268.185 291.094 261.056 293.22 263.551 298.918C266.646 305.987 270.928 317.165 280.837 312.777C285.229 310.832 288.03 306.154 288.545 301.377C288.786 299.146 288.636 296.726 289.879 294.858C291.254 292.793 294.001 291.955 295.328 289.859C297.382 286.616 295.086 282.266 296.036 278.547C297.027 274.678 301.229 272.075 302.629 267.948Z" fill="black"/>
<path d="M260.153 297.949C258.136 294.305 256.894 289.776 258.695 286.021C259.018 285.348 259.435 284.708 259.599 283.98C259.905 282.623 259.286 281.25 258.72 279.979C256.723 275.499 255.237 270.155 257.564 265.837C258.081 264.878 258.774 264.003 259.128 262.972C259.566 261.694 259.443 260.299 259.262 258.96C258.779 255.398 257.921 251.878 257.761 248.287C257.601 244.696 258.214 240.918 260.377 238.047C261.793 236.168 264.23 234.708 266.45 235.485C268.411 236.171 269.441 238.29 270.096 240.261C271.197 243.572 271.822 247.041 271.945 250.528C272.006 252.262 271.95 254.037 272.504 255.681C273.992 260.1 279.442 262.435 280.451 266.987C281.229 270.496 279.046 274.135 279.723 277.665C280.501 281.724 284.922 285.085 283.804 289.064C283.283 290.917 281.648 292.239 280.819 293.977C278.968 297.86 281.548 302.515 280.662 306.724C277.967 319.536 262.902 302.915 260.153 297.949Z" fill="#91E3AB"/>
<path d="M291.71 305.439C291.692 305.234 291.557 305.086 291.345 305.075C291.229 305.069 291.132 305.077 291.041 305.093C290.439 304.882 289.809 304.932 289.172 304.988C288.64 304.928 288.111 304.916 287.6 304.997C286.947 304.959 286.279 304.931 285.725 305.159C285.605 305.208 285.508 305.313 285.455 305.433L265.326 305.939C263.747 305.771 262.15 305.799 260.555 305.919C260.283 305.94 260.022 306.141 260.034 306.44C260.071 307.331 260.121 308.214 260.243 309.098C260.319 309.643 260.31 310.728 260.8 311.128C260.999 311.291 261.281 311.383 261.594 311.427L261.739 312.475C261.885 315.916 262.444 319.399 262.87 322.781C263.104 324.643 263.352 326.504 263.614 328.363C263.888 330.303 264.029 332.402 264.559 334.304C264.422 334.316 264.292 334.35 264.186 334.412C263.945 334.553 263.811 334.771 263.763 335.011C263.699 335.106 263.659 335.214 263.664 335.333C263.648 335.571 263.761 335.81 264.041 335.871C264.085 335.883 264.132 335.888 264.183 335.887C267.857 335.898 271.532 335.856 275.205 335.845C277.042 335.839 278.879 335.835 280.716 335.827C282.329 335.82 284.031 335.968 285.606 335.588C285.85 335.529 285.851 335.153 285.606 335.093C285.515 335.071 285.422 335.055 285.33 335.038C285.622 334.394 285.652 333.419 285.781 332.864C286.401 330.187 287.025 327.512 287.647 324.836C288.753 320.083 290.114 315.296 290.833 310.458C291.054 310.359 291.245 310.194 291.378 309.918C291.614 309.428 291.602 308.721 291.646 308.194C291.723 307.282 291.789 306.352 291.71 305.439Z" fill="black"/>
<path d="M274.584 305.077C273.467 299.177 272.378 293.272 271.339 287.357C269.261 275.535 267.578 263.644 265.487 251.825C265.45 251.616 265.089 251.662 265.113 251.876C266.429 263.594 268.478 275.262 270.481 286.878C271.501 292.797 272.558 298.71 273.675 304.611C274.786 310.481 275.692 316.49 277.291 322.25C277.366 322.521 277.84 322.479 277.8 322.181C277.037 316.445 275.66 310.762 274.584 305.077Z" fill="black"/>
<path d="M264.652 293.63C264.367 293.392 264.038 293.439 263.685 293.373C263.304 293.302 262.96 293.156 262.593 293.042C262.353 292.967 262.136 293.309 262.339 293.479C262.65 293.741 263.04 293.918 263.425 294.044C263.781 294.161 264.258 294.32 264.592 294.094C264.737 293.998 264.808 293.76 264.652 293.63Z" fill="black"/>
<path d="M264.171 290.904C263.938 290.982 263.558 291.201 263.393 290.871C263.278 290.641 262.879 290.746 262.9 291.005C262.932 291.41 263.127 291.723 263.526 291.867C263.915 292.007 264.456 291.94 264.65 291.528C264.796 291.22 264.552 290.776 264.171 290.904Z" fill="black"/>
<path d="M262.605 271.612C262.476 271.15 262.023 271.125 261.607 271.038C261.072 270.927 260.535 270.826 260.001 270.711C259.554 270.615 259.372 271.26 259.812 271.397C260.333 271.559 260.85 271.734 261.37 271.9C261.774 272.028 262.191 272.234 262.531 271.893C262.604 271.821 262.633 271.712 262.605 271.612Z" fill="black"/>
<path d="M264.054 244.452C263.807 244.3 263.542 244.596 263.67 244.836C263.923 245.305 264.077 245.735 264.213 246.248C264.332 246.698 265.068 246.62 265.041 246.136C265.005 245.467 264.623 244.801 264.054 244.452Z" fill="black"/>
<path d="M266.019 243.368C265.849 242.856 265.053 243.066 265.205 243.592C265.39 244.232 265.623 244.995 266.161 245.428C266.414 245.631 266.789 245.447 266.714 245.106C266.58 244.499 266.215 243.959 266.019 243.368Z" fill="black"/>
<path d="M274.837 267.849C274.209 268.47 273.628 269.384 273.849 270.299C273.904 270.527 274.244 270.574 274.356 270.365C274.713 269.696 274.882 268.997 275.425 268.436C275.798 268.053 275.219 267.472 274.837 267.849Z" fill="black"/>
<path d="M282.514 253.053C282.195 252.094 281.334 251.261 280.549 250.666C280.254 250.443 279.872 250.938 280.152 251.18C280.505 251.486 280.833 251.821 281.107 252.2C281.372 252.567 281.544 252.982 281.789 253.358C281.884 253.505 282.063 253.591 282.237 253.54C282.27 253.531 282.303 253.518 282.332 253.5C282.473 253.409 282.57 253.223 282.514 253.053Z" fill="white"/>
<path d="M283.082 249.612C282.678 249.215 282.239 248.851 281.815 248.476C281.491 248.19 281.063 248.623 281.343 248.948C281.713 249.377 282.072 249.822 282.463 250.231C282.853 250.638 283.484 250.008 283.082 249.612Z" fill="white"/>
<path d="M291.315 234.405C291.106 234.852 290.95 235.314 290.878 235.803C290.819 236.204 290.701 236.775 291.061 237.057C291.236 237.194 291.427 237.17 291.561 236.993C291.794 236.685 291.636 236.269 291.64 235.906C291.645 235.467 291.731 235.054 291.874 234.64C291.985 234.317 291.462 234.09 291.315 234.405Z" fill="white"/>
<path d="M297.063 260.782C296.542 260.618 295.982 260.653 295.485 260.879C295.042 261.081 294.489 261.515 294.513 262.055C294.525 262.327 294.808 262.501 295.053 262.365C295.353 262.198 295.535 261.884 295.838 261.71C296.153 261.53 296.498 261.463 296.854 261.541C297.348 261.651 297.548 260.934 297.063 260.782Z" fill="white"/>
<path d="M297.144 263.365C296.839 263.365 296.542 263.413 296.261 263.534C295.93 263.676 295.857 263.838 295.701 264.142C295.582 264.373 295.816 264.576 296.037 264.478C296.121 264.441 296.226 264.457 296.312 264.43C296.406 264.401 296.487 264.341 296.574 264.298C296.757 264.208 296.941 264.159 297.145 264.147C297.642 264.116 297.651 263.366 297.144 263.365Z" fill="white"/>
<path d="M297.59 265.84C297.247 265.769 296.909 265.659 296.564 265.765C296.408 265.813 296.322 266.035 296.461 266.155C296.737 266.39 297.061 266.43 297.408 266.502C297.839 266.592 298.023 265.93 297.59 265.84Z" fill="white"/>
<path d="M291.374 287.449C290.685 287.394 290.033 287.27 289.439 286.902C289.085 286.683 288.77 287.232 289.115 287.457C289.811 287.911 290.62 288.146 291.443 287.957C291.741 287.888 291.65 287.471 291.374 287.449Z" fill="white"/>
<path d="M291.786 285.914C291.16 285.825 290.539 285.775 289.955 285.512C289.636 285.368 289.353 285.825 289.675 285.991C290.331 286.328 291.052 286.544 291.785 286.37C292 286.319 292.023 285.947 291.786 285.914Z" fill="white"/>
<path d="M292.512 310.189C287.254 309.848 281.864 310.291 276.598 310.409C271.294 310.528 265.988 310.614 260.684 310.756C260.033 310.773 260.03 311.786 260.684 311.77C265.989 311.64 271.294 311.454 276.598 311.301C281.866 311.149 287.275 311.314 292.512 310.705C292.838 310.667 292.851 310.211 292.512 310.189Z" fill="white"/>
<path d="M82.385 213.396H62.901H42.047H27.57C18.202 213.396 10.608 205.802 10.608 196.434V85.7882C10.608 76.4202 18.202 68.8262 27.57 68.8262H78.84C88.208 68.8262 95.802 76.4202 95.802 85.7882V178.28L108.605 204.066L95.802 199.98C95.801 207.39 89.795 213.396 82.385 213.396Z" fill="#CFECFF"/>
<path d="M78.8371 209.094H27.5731C20.9991 209.094 15.6691 203.765 15.6691 197.19V85.0329C15.6691 78.4589 20.9981 73.1289 27.5731 73.1289H78.8371C85.4111 73.1289 90.7411 78.4579 90.7411 85.0329V197.19C90.7401 203.764 85.4111 209.094 78.8371 209.094Z" fill="white" stroke="black" stroke-miterlimit="10"/>
<path d="M109.889 68.1511C109.831 68.1441 109.088 68.2041 109.138 68.0471C109.528 66.8471 109.918 65.6481 110.308 64.4481C110.417 64.1121 110.863 62.7771 110.025 62.9891C109.666 63.0801 109.344 63.5921 109.205 63.9081C108.971 64.4391 108.864 65.0051 108.677 65.5501C108.444 66.2281 108.231 66.9121 108.006 67.5921C107.836 68.1081 107.782 68.8831 107.433 69.3031C107.184 69.6021 106.655 69.6961 106.423 69.3841C106.344 69.2781 106.312 69.1461 106.286 69.0171C106.197 68.5791 106.154 68.1331 106.101 67.6891C106.065 67.3941 106.017 67.0831 105.829 66.8531C105.64 66.6231 105.262 66.5231 105.043 66.7251C104.876 66.8791 104.865 67.1341 104.867 67.3611C104.876 68.6841 104.931 70.0071 105.03 71.3271C105.097 72.2091 105.185 73.0981 105.457 73.9401C105.584 74.3321 105.751 74.7161 105.803 75.1251C105.857 75.5491 105.784 75.9791 105.797 76.4061C105.826 77.3871 106.49 77.8481 107.442 77.6831C108.99 78.1411 110.423 76.2791 111.064 75.0661C112.421 72.4971 113.991 69.4151 114.47 66.5291C114.521 66.2241 114.133 66.1041 113.976 66.3551C113.663 66.8561 113.387 67.3811 113.134 67.9151C112.886 68.4371 112.715 69.0571 112.412 69.5431C112.233 69.4151 112.262 69.1511 112.334 68.9661C112.665 68.1031 112.997 67.2401 113.328 66.3771C113.593 65.6871 113.852 64.9841 113.828 64.2341C113.82 63.9791 113.782 63.7511 113.495 63.6901C113.262 63.6401 113.026 63.7711 112.954 63.9991C112.464 65.5461 111.89 67.0571 111.247 68.5451C111.154 68.5081 111.061 68.4721 110.953 68.4341C111.666 66.5581 112.289 64.6421 112.879 62.7321C113.038 62.2171 112.164 61.8991 111.976 62.4151C111.28 64.3261 110.584 66.2381 109.889 68.1511Z" fill="#ED926E"/>
<path d="M49.8961 103.408C51.3011 101.917 53.4501 101.018 55.5051 101.186C56.4941 101.267 57.4571 101.61 58.2241 102.249C58.6441 102.599 58.9921 103.026 59.2671 103.497C59.5131 103.919 60.0391 104.438 60.0381 104.916C60.0341 107.194 60.0651 109.477 60.2841 111.747C60.3951 112.891 60.5531 114.032 60.7871 115.158C60.9011 115.708 61.0331 116.255 61.1881 116.795C61.3061 117.21 61.4151 117.8 61.6761 118.15C61.7491 118.247 61.8461 118.33 61.9491 118.394C62.2171 118.561 62.5321 118.626 62.8331 118.722C63.8731 119.053 63.4731 120.347 63.0641 121.06C62.6011 121.865 61.8261 122.462 61.0751 122.981C60.3741 123.465 59.7561 124.062 59.1361 124.643C56.8821 126.756 55.6031 127.568 52.5581 126.586C50.1881 125.822 48.0331 124.38 46.4481 122.458C45.7891 121.658 45.2821 120.669 45.4611 119.607C45.5171 119.272 45.6631 118.94 45.9241 118.723C46.4471 118.289 47.2711 118.418 47.8101 118.004C48.3091 117.62 48.4051 116.991 48.4531 116.414C48.5151 115.65 48.5891 114.887 48.6341 114.122C48.7251 112.566 48.7511 111.006 48.7121 109.448C48.6841 108.329 48.3801 107.019 48.5071 105.926C48.6111 105.008 49.2851 104.057 49.8961 103.408Z" fill="#ED926E"/>
<path d="M81.5591 117.932C80.1671 118.442 78.6491 118.621 77.1711 118.676C74.6011 118.772 72.0281 118.794 69.4571 118.741C67.4091 118.699 65.3651 118.561 63.3201 118.566C63.2611 118.566 63.2001 118.567 63.1471 118.592C62.9821 118.67 62.8211 118.947 62.7071 119.092C62.5491 119.293 62.3931 119.495 62.2371 119.698C61.9171 120.113 61.6001 120.53 61.2731 120.939C60.5681 121.82 59.4141 122.577 58.3771 123.004C55.7691 124.078 52.8491 123.767 50.2121 122.936C49.2681 122.639 48.3401 122.17 47.6391 121.459C46.8451 120.655 46.6831 119.637 46.5121 118.552C46.3531 117.539 35.3651 121.528 34.4961 122.01C32.1781 123.296 30.0891 125.086 28.7701 127.385C28.1081 128.538 27.6521 129.795 27.1981 131.044C26.6391 132.583 26.0811 134.121 25.5231 135.66C25.1711 136.629 24.8191 137.599 24.5331 138.589C23.4211 142.434 23.3221 146.488 23.2311 150.49C26.9571 150.784 30.6321 150.516 34.3501 150.306C34.8961 150.275 35.3331 149.839 35.3621 149.293C35.3991 148.594 35.3681 142.832 35.9931 143.087C36.1921 143.168 36.2931 143.387 36.3601 143.591C36.9331 145.349 36.1061 147.176 36.5261 148.914C36.8901 150.423 37.9451 150.074 39.1781 149.974C41.0981 149.818 43.0241 149.714 44.9471 149.584C51.9371 149.112 58.9271 148.64 65.9221 148.248L70.2551 148.006C71.1151 147.958 71.7551 147.203 71.6761 146.346C71.1001 140.093 74.1821 140.798 79.8251 139.625C85.3131 138.484 90.2661 135.264 94.3201 131.489C96.3971 129.555 98.2861 127.413 99.9281 125.098C100.686 124.03 101.369 122.925 101.997 121.781C102.596 120.689 103.523 120.036 104.248 119.039C104.607 118.545 104.834 117.969 105.052 117.399C106.272 114.203 107.327 110.935 108.034 107.585C108.719 104.337 108.494 100.94 109.18 97.7568C110.637 90.9898 110.86 83.9578 111.207 77.0678C111.211 76.9918 111.215 76.9158 111.218 76.8398C109.164 76.0988 107.11 75.3588 105.056 74.6178C104.664 74.4958 98.2141 92.4358 97.5751 94.2728C96.5761 97.1448 95.8221 100.101 95.3331 103.103C95.1991 103.927 95.0821 104.765 94.7521 105.532C93.9451 107.412 92.0451 108.526 90.4151 109.762C89.0211 110.818 87.7571 112.044 86.6571 113.404C85.6611 114.635 84.7781 115.999 83.4921 116.923C82.8891 117.355 82.2391 117.683 81.5591 117.932Z" fill="black"/>
<path d="M53.7281 112.647C57.7934 112.647 61.0891 108.392 61.0891 103.144C61.0891 97.8953 57.7934 93.6406 53.7281 93.6406C49.6627 93.6406 46.3671 97.8953 46.3671 103.144C46.3671 108.392 49.6627 112.647 53.7281 112.647Z" fill="#ED926E"/>
<path d="M48.2011 103.029C48.0511 102.624 47.8081 102.255 47.4681 101.993C47.3251 101.883 47.1631 101.792 46.9861 101.755C46.7131 101.698 46.4261 101.777 46.1811 101.91C44.9161 102.594 44.1981 104.721 45.3791 105.803C45.7601 106.152 46.2291 106.373 46.7571 106.373C47.4441 106.373 48.1531 106.039 48.2781 105.344C48.3851 104.748 48.4441 104.135 48.3391 103.539C48.3081 103.366 48.2621 103.194 48.2011 103.029Z" fill="#ED926E"/>
<path d="M62.4551 103.054C62.0741 102.705 61.6051 102.484 61.0771 102.484C60.5771 102.484 60.0521 102.701 59.6991 103.054C59.5091 103.23 59.3751 103.439 59.2961 103.68C59.1741 103.912 59.1181 104.162 59.1281 104.429C59.1511 104.932 59.3161 105.454 59.6991 105.804C60.0801 106.153 60.5491 106.374 61.0771 106.374C61.9261 106.374 62.7041 105.795 62.9451 104.982C63.1391 104.328 62.9681 103.523 62.4551 103.054Z" fill="#ED926E"/>
<path d="M61.1951 95.4462C60.8411 94.7582 60.3801 94.1592 59.8011 93.7222C58.8331 92.9912 57.6391 92.6262 56.4511 92.3812C55.6751 92.2212 54.8791 92.1042 54.1611 91.7712C52.2571 90.8892 51.2361 88.5351 48.7791 89.5501C47.4841 90.0861 46.6091 91.3892 46.3311 92.7632C46.2311 93.2562 46.1991 93.7732 46.3291 94.2582C46.4241 94.6132 46.6021 94.9432 46.6781 95.3032C46.8701 96.2192 46.6751 97.2512 46.6711 98.1742C46.6671 99.2602 46.4861 100.343 46.4921 101.436C46.4931 101.663 46.4981 101.893 46.5691 102.109C46.7411 102.632 47.2721 102.985 47.4091 103.518C47.4591 103.713 47.4541 103.925 47.5501 104.101C47.6461 104.277 47.9101 104.386 48.0471 104.239C48.1071 104.174 48.1231 104.081 48.1341 103.993C48.3061 102.544 47.2451 99.3382 48.9381 98.4442C50.2081 97.7732 51.8161 97.6541 53.2251 97.6041C55.0641 97.5401 57.4181 96.9652 59.0151 98.0292C60.5811 99.0732 60.4991 100.765 60.3891 102.393C60.3641 102.761 60.3481 103.164 60.5641 103.463C60.5971 103.508 60.6391 103.553 60.6941 103.561C60.7561 103.57 60.8131 103.53 60.8621 103.491C61.5571 102.929 61.8701 102.02 62.0161 101.139C62.2971 99.4482 62.0821 97.1692 61.1951 95.4462Z" fill="black"/>
<path d="M55.1481 112.265C54.6121 112.24 54.0831 112.352 53.5451 112.346C53.1321 112.341 52.6781 112.192 52.2981 112.381C52.2531 112.403 52.2291 112.479 52.2611 112.521C52.5511 112.898 53.0971 112.908 53.5451 112.946C54.1291 112.995 54.7381 112.978 55.2721 112.722C55.5061 112.611 55.3731 112.275 55.1481 112.265Z" fill="black"/>
<path d="M53.7751 105.567C53.7641 105.484 53.7241 105.405 53.6351 105.383C53.4111 105.328 53.5131 105.169 53.5321 104.944C53.5601 104.609 53.5941 104.275 53.6251 103.941C53.6811 103.343 53.7831 102.737 53.6931 102.139C53.6651 101.95 53.4061 101.995 53.3541 102.139C53.0531 102.962 53.0661 103.953 52.9721 104.818C52.9221 105.277 52.8491 105.952 53.5001 105.927C53.6391 105.922 53.8051 105.8 53.7851 105.642C53.7811 105.618 53.7781 105.592 53.7751 105.567Z" fill="black"/>
<path d="M46.8741 104.249L46.8731 104.247V104.157C47.0951 103.889 46.7571 103.545 46.4901 103.774C46.2601 103.97 46.1871 104.254 46.2921 104.537C46.4321 104.915 47.0101 104.771 46.9051 104.368C46.8951 104.328 46.8841 104.288 46.8741 104.249Z" fill="black"/>
<path d="M61.9081 104.167C61.9651 103.755 61.3401 103.569 61.2721 103.992C61.2091 104.382 61.2731 104.68 61.6561 104.838C61.7911 104.894 61.9421 104.754 61.9391 104.623C61.9361 104.492 61.8921 104.281 61.9081 104.167Z" fill="black"/>
<path d="M55.5561 108.047C55.5621 107.952 55.5521 107.857 55.5251 107.764C55.1081 107.844 54.6901 107.924 54.2681 107.978C53.7911 108.039 52.6621 107.844 52.3151 108.182C51.7441 108.739 52.6671 108.995 53.0941 109.081C53.8191 109.226 54.5121 109.364 55.1311 108.845C55.3681 108.647 55.5381 108.35 55.5561 108.047Z" fill="white"/>
<path d="M76.974 165.31C59.666 164.928 42.145 165.144 24.833 165.607V166.364C42.145 166.827 59.666 167.043 76.974 166.661C77.017 166.666 77.047 166.652 77.087 166.651V165.318C77.047 165.319 77.017 165.306 76.974 165.31Z" fill="black"/>
<path d="M50.498 169.387C42.071 169.395 33.246 168.864 24.833 169.597V170.528C33.246 171.261 42.07 170.73 50.498 170.738C59.349 170.746 68.24 170.951 77.087 170.733V169.392C68.24 169.174 59.349 169.379 50.498 169.387Z" fill="black"/>
<path d="M64.21 173.112C59.683 173.116 55.155 173.115 50.628 173.124C42.156 173.141 33.291 172.628 24.833 173.329V174.491C33.292 175.192 42.155 174.678 50.628 174.696C54.94 174.705 59.252 174.704 63.563 174.708C67.99 174.712 72.67 175.035 77.087 174.643V173.178C72.874 172.806 68.431 173.108 64.21 173.112Z" fill="black"/>
<path d="M50.498 180.575C42.071 180.583 33.246 180.052 24.833 180.785V181.717C33.246 182.45 42.07 181.919 50.498 181.927C59.349 181.935 68.24 182.14 77.087 181.922V180.581C68.24 180.362 59.349 180.567 50.498 180.575Z" fill="black"/>
<path d="M64.21 184.298C59.683 184.302 55.155 184.301 50.628 184.31C42.156 184.327 33.291 183.814 24.833 184.515V185.677C33.292 186.378 42.155 185.864 50.628 185.882C54.94 185.891 59.252 185.89 63.563 185.894C67.99 185.898 72.67 186.221 77.087 185.829V184.364C72.874 183.992 68.431 184.294 64.21 184.298Z" fill="black"/>
<path d="M41.206 155.418C40.949 154.949 40.693 154.479 40.436 154.01C40.573 153.91 40.711 153.811 40.848 153.711C41.347 153.349 41.0581 152.571 40.4241 152.704C40.2111 152.749 39.996 152.775 39.782 152.814C39.674 152.616 39.565 152.417 39.456 152.219C39.295 151.925 38.843 151.93 38.681 152.219C38.526 152.496 38.372 152.778 38.224 153.063C37.654 153.134 37.082 153.195 36.505 153.23C36.001 153.261 35.706 153.994 36.228 154.254C36.627 154.454 37.0351 154.636 37.4391 154.825C37.2691 154.948 37.098 155.072 36.928 155.195C36.32 155.578 36.916 156.561 37.485 156.148L38.583 155.352C39.254 155.645 39.931 155.926 40.618 156.182C41.066 156.349 41.408 155.787 41.206 155.418Z" fill="#91BBE3"/>
<path d="M49.027 153.169C48.727 153.16 48.426 153.161 48.125 153.16C48.122 153.16 48.119 153.16 48.116 153.16C48.05 153.16 47.984 153.159 47.918 153.158C47.751 152.817 47.512 152.302 47.125 152.194C46.614 152.052 46.398 152.625 46.216 152.98C46.187 153.037 46.154 153.096 46.12 153.156C45.57 153.132 44.944 153.067 44.492 153.361C44.206 153.547 44.168 153.994 44.488 154.175C44.533 154.244 44.593 154.307 44.688 154.351C44.911 154.454 45.14 154.536 45.37 154.618C45.381 154.623 45.391 154.629 45.402 154.634C45.299 154.831 45.212 155.031 45.135 155.232C45.014 155.349 44.907 155.481 44.814 155.641C44.601 156.007 45.045 156.513 45.424 156.251C45.738 156.033 46.063 155.831 46.385 155.624C46.559 155.536 46.733 155.445 46.908 155.356C47.361 155.559 47.816 155.762 48.266 155.955C48.546 156.075 48.806 155.952 48.953 155.759C48.963 155.747 48.973 155.737 48.982 155.724C48.99 155.711 48.997 155.699 49.004 155.685C49.106 155.531 49.139 155.342 49.017 155.167C49.019 155.168 49.022 155.168 49.024 155.169C48.889 154.905 48.74 154.654 48.592 154.403C48.845 154.239 49.097 154.074 49.326 153.892C49.629 153.648 49.36 153.178 49.027 153.169Z" fill="#91BBE3"/>
<path d="M58.291 155.418C58.034 154.949 57.778 154.479 57.521 154.01C57.659 153.91 57.796 153.811 57.934 153.711C58.433 153.349 58.144 152.571 57.51 152.704C57.297 152.749 57.082 152.775 56.868 152.814C56.759 152.616 56.651 152.417 56.542 152.219C56.381 151.925 55.929 151.93 55.767 152.219C55.612 152.496 55.458 152.778 55.31 153.063C54.739 153.134 54.168 153.195 53.591 153.23C53.087 153.261 52.792 153.994 53.314 154.254C53.713 154.454 54.121 154.636 54.525 154.825C54.355 154.948 54.184 155.072 54.014 155.195C53.406 155.578 54.002 156.561 54.571 156.148L55.669 155.352C56.34 155.645 57.017 155.926 57.704 156.182C58.151 156.349 58.493 155.787 58.291 155.418Z" fill="#91BBE3"/>
<path d="M66.1121 153.169C65.8111 153.16 65.5111 153.161 65.2101 153.16C65.2071 153.16 65.2041 153.16 65.2011 153.16C65.1351 153.16 65.0691 153.159 65.0031 153.158C64.8361 152.817 64.5971 152.302 64.2101 152.194C63.7001 152.052 63.4831 152.625 63.3011 152.98C63.2721 153.037 63.2391 153.096 63.2051 153.156C62.6551 153.132 62.0291 153.067 61.5771 153.361C61.2911 153.547 61.2531 153.994 61.5731 154.175C61.6171 154.244 61.6781 154.307 61.7721 154.351C61.9951 154.454 62.2241 154.536 62.4541 154.618C62.4651 154.623 62.4751 154.629 62.4861 154.634C62.3831 154.831 62.2961 155.031 62.2201 155.232C62.0991 155.349 61.9921 155.481 61.8991 155.641C61.6861 156.007 62.1301 156.513 62.5081 156.251C62.8221 156.033 63.1471 155.831 63.4691 155.624C63.6431 155.536 63.8171 155.445 63.9921 155.356C64.4451 155.559 64.9001 155.762 65.3501 155.955C65.6301 156.075 65.8911 155.952 66.0361 155.759C66.0461 155.747 66.0561 155.737 66.0651 155.724C66.0731 155.711 66.0801 155.699 66.0871 155.685C66.1891 155.531 66.2221 155.342 66.1001 155.167C66.1021 155.168 66.1051 155.168 66.1071 155.169C65.9721 154.905 65.8241 154.654 65.6751 154.403C65.9281 154.239 66.1801 154.074 66.4091 153.892C66.7141 153.648 66.4451 153.178 66.1121 153.169Z" fill="#91BBE3"/>
<path d="M76.452 193.013C75.824 191.614 74.103 191.483 72.835 192.082C72.253 192.219 71.743 192.627 71.473 193.271C70.994 194.413 71.497 195.701 72.508 196.364C74.682 197.79 77.528 195.41 76.452 193.013Z" fill="#91BBE3"/>
<path d="M68.001 193.656C67.762 191.883 65.51 190.382 63.892 191.546C63.773 191.631 63.714 191.751 63.682 191.875C63.182 192.244 62.786 192.815 62.631 193.414C62.222 194.998 63.437 196.542 65.02 196.719C66.732 196.91 68.23 195.356 68.001 193.656ZM65.43 195.357C64.666 195.47 63.889 194.875 63.816 194.107C63.776 193.684 64.065 192.984 64.498 192.59C65.219 192.69 66 192.656 66.398 193.376C66.836 194.171 66.341 195.223 65.43 195.357Z" fill="#91BBE3"/>
<path d="M57.8561 191.549C56.9191 190.67 55.1841 190.855 54.4731 191.913C53.4401 192.746 53.407 194.452 54.163 195.517C55.08 196.809 56.935 196.852 57.874 195.583C58.707 194.459 58.9641 192.588 57.8561 191.549ZM57.2871 194.454C56.9951 195.158 56.3561 195.581 55.7351 195.441C56.0591 194.518 56.3831 193.594 56.7071 192.671C56.7421 192.573 56.73 192.476 56.693 192.391C56.712 192.367 56.7281 192.332 56.7501 192.324C56.8051 192.304 56.838 192.264 56.859 192.219C57.677 192.606 57.5771 193.756 57.2871 194.454Z" fill="#91BBE3"/>
<path d="M61.8711 114.215C60.5811 119.111 56.9351 123.282 51.8061 124.277C48.8031 124.859 45.9611 123.951 43.9701 121.634C42.3551 119.755 41.6581 117.435 40.4941 115.302C40.3161 114.975 39.8731 115.213 39.9291 115.54C40.8771 121.078 45.3341 126.17 51.2931 125.427C56.9401 124.723 61.7491 120.012 62.8891 114.496C63.0251 113.836 62.0451 113.553 61.8711 114.215Z" fill="white"/>
<path d="M42.4181 216.852C42.6071 217.834 42.8171 218.813 43.0451 219.786" stroke="black" stroke-miterlimit="10"/>
<path d="M44.5811 225.369C48.9451 239.174 57.1931 251.749 68.1421 261.223" stroke="black" stroke-miterlimit="10" stroke-dasharray="5.79 5.79"/>
<path d="M70.3611 263.072C71.1421 263.697 71.9351 264.307 72.7401 264.901" stroke="black" stroke-miterlimit="10"/>
<path d="M243.787 240.602C237.13 258.373 221.49 272.509 203.139 277.342" stroke="black" stroke-miterlimit="10" stroke-dasharray="6 6"/>
<path d="M160.823 92.5098C142.894 101.725 128.542 117.697 121.291 136.506C114.039 155.315 113.954 176.787 121.057 195.653" stroke="black" stroke-miterlimit="10" stroke-dasharray="6 6"/>
<path d="M59.7211 62.5169C63.7281 42.6019 77.8861 25.9609 94.8201 15.4159C113.502 3.78194 136.313 -0.684064 158.069 2.17694C170.453 3.80594 182.547 7.83494 193.26 14.2889" stroke="black" stroke-miterlimit="10" stroke-dasharray="6 6"/>
</svg>
