<svg width="124" height="71" viewBox="0 0 124 71" fill="none" xmlns="http://www.w3.org/2000/svg">
<path d="M47.9223 5.018C49.3583 5.018 50.5223 3.895 50.5223 2.509C50.5223 1.124 49.3583 0 47.9223 0C46.4863 0 45.3223 1.124 45.3223 2.51C45.3223 3.895 46.4863 5.018 47.9223 5.018Z" fill="#C1596C"/>
<path d="M50.886 23.0781C50.4923 22.0784 50.2418 21.028 50.142 19.9581C50.123 17.9301 50.469 15.4361 50.816 13.0221C50.911 12.2941 51.023 11.5771 51.106 10.8741C51.1747 10.3603 51.1352 9.83772 50.99 9.34003C50.8448 8.84233 50.5972 8.38049 50.263 7.98414C49.9308 7.59355 49.5174 7.28022 49.0516 7.06603C48.5857 6.85185 48.0787 6.742 47.566 6.74414C47.0532 6.75038 46.548 6.86915 46.0861 7.09206C45.6242 7.31496 45.2169 7.63656 44.893 8.03414C44.5672 8.43722 44.3279 8.9031 44.1901 9.40273C44.0523 9.90236 44.0189 10.425 44.092 10.9381C44.199 11.6401 44.313 12.3541 44.422 13.0811C44.812 15.4881 45.217 17.9751 45.235 19.9671C45.163 21.0494 44.9322 22.1151 44.55 23.1301C43.445 26.0501 41.348 27.8821 39.584 28.9701L55.946 28.8201C54.174 27.7701 52.037 25.9771 50.886 23.0781ZM28.73 4.81714H31.973C34.179 4.81714 35.538 5.19514 36.051 5.95114C36.296 6.30614 36.485 6.65114 36.619 6.98514C36.775 7.31814 36.875 7.84014 36.919 8.55214C37.0363 9.98309 37.0924 11.4184 37.087 12.8541C37.087 14.4321 37.076 15.5771 37.054 16.2891C37.031 16.9781 36.954 17.6891 36.82 18.4231C36.708 19.1341 36.552 19.6571 36.352 19.9901C36.151 20.3011 35.85 20.5901 35.449 20.8571C35.048 21.1241 34.579 21.3021 34.045 21.3911C33.51 21.4581 32.819 21.4911 31.973 21.4911H28.73V18.9901H30.535C31.115 18.9901 31.482 18.9121 31.638 18.7561C31.817 18.6011 31.906 18.3561 31.906 18.0231V8.31814C31.906 7.96314 31.816 7.70714 31.638 7.55114C31.482 7.39614 31.115 7.31814 30.535 7.31814H28.73V4.81714ZM27.727 28.9271H25.687C24.707 28.9271 23.961 28.6831 23.448 28.1941C22.958 27.7271 22.713 27.1161 22.713 26.3601V7.38514C22.713 6.62914 22.958 6.01714 23.448 5.55014C23.961 5.06114 24.708 4.81714 25.688 4.81714H27.727V28.9271ZM66.482 4.81714H71.162C73.591 4.81714 74.805 6.00714 74.805 8.38514V21.4911H70.995C70.638 21.4911 70.348 21.3691 70.125 21.1241C69.903 20.8801 69.791 20.5571 69.791 20.1571V8.31814C69.791 7.96314 69.702 7.70714 69.524 7.55114C69.368 7.39614 69 7.31814 68.421 7.31814H66.481L66.482 4.81714ZM60.632 4.81714H62.671C63.651 4.81714 64.387 5.06114 64.877 5.55014C65.39 6.01714 65.646 6.62914 65.646 7.38514V21.4911H61.836C61.479 21.4911 61.189 21.3691 60.966 21.1241C60.743 20.8801 60.632 20.5571 60.632 20.1571V4.81714ZM86.742 7.31714H84.937C84.357 7.31714 83.979 7.39614 83.801 7.55114C83.645 7.70714 83.567 7.96314 83.567 8.31814V18.0231C83.567 18.3561 83.645 18.6011 83.801 18.7561C83.979 18.9121 84.358 18.9901 84.937 18.9901H86.742V21.4901H83.5C82.653 21.4901 81.962 21.4581 81.427 21.3901C80.9264 21.3145 80.4477 21.1328 80.023 20.8571C79.623 20.5901 79.321 20.3011 79.121 19.9901C78.921 19.6571 78.753 19.1341 78.619 18.4231C78.463 17.4231 78.385 16.0221 78.385 14.2211C78.385 12.4211 78.396 11.2091 78.419 10.5861C78.441 9.94114 78.474 9.26314 78.519 8.55214C78.586 7.84014 78.686 7.31814 78.819 6.98514C78.9832 6.63742 79.1738 6.30278 79.389 5.98414C79.633 5.62814 79.945 5.38414 80.324 5.25014C81.149 4.96114 82.207 4.81714 83.5 4.81714H86.742V7.31714ZM83.901 23.6251V25.3931C83.901 25.7711 83.957 26.0261 84.068 26.1601C84.18 26.3151 84.469 26.3931 84.938 26.3931H86.742V28.8941H82.53C80.101 28.8941 78.887 27.7041 78.887 25.3261V24.3261C78.887 23.9921 78.92 23.8031 78.987 23.7591C79.0467 23.733 79.1028 23.6994 79.154 23.6591C79.2105 23.6526 79.2664 23.6412 79.321 23.6251H83.901ZM87.745 4.81714H89.785C90.765 4.81714 91.5 5.06114 91.991 5.55014C92.503 6.01714 92.76 6.62914 92.76 7.38514V26.3601C92.76 27.1161 92.503 27.7271 91.99 28.1941C91.5 28.6831 90.765 28.9281 89.784 28.9281H87.746L87.745 4.81714ZM82.695 33.3481H89.975C93.754 33.3481 95.643 35.1981 95.643 38.8981V59.2861H89.715C89.16 59.2861 88.71 59.0961 88.363 58.7151C88.016 58.3351 87.843 57.8331 87.843 57.2111V38.7951C87.843 38.2421 87.703 37.8441 87.427 37.6021C87.184 37.3601 86.612 37.2391 85.711 37.2391H82.695V33.3481ZM73.595 33.3481H76.767C78.292 33.3481 79.436 33.7281 80.199 34.4891C80.996 35.2161 81.395 36.1671 81.395 37.3431V59.2861H75.466C74.911 59.2861 74.461 59.0961 74.114 58.7151C73.767 58.3351 73.594 57.8331 73.594 57.2111L73.595 33.3481ZM114.211 37.2381H111.403C110.502 37.2381 109.912 37.3601 109.635 37.6021C109.392 37.8441 109.271 38.2421 109.271 38.7951V53.8911C109.271 54.4091 109.392 54.7901 109.635 55.0311C109.912 55.2741 110.502 55.3951 111.403 55.3951H114.211V59.2851H109.167C107.85 59.2851 106.775 59.2341 105.943 59.1301C105.111 58.9921 104.383 58.7151 103.759 58.3001C103.135 57.8851 102.667 57.4351 102.355 56.9511C102.043 56.4321 101.783 55.6201 101.575 54.5131C101.332 52.9571 101.211 50.7781 101.211 47.9771C101.211 45.1761 101.228 43.2911 101.263 42.3221C101.298 41.3201 101.35 40.2651 101.419 39.1581C101.523 38.0511 101.679 37.2381 101.887 36.7201C102.142 36.1799 102.437 35.6597 102.771 35.1641C103.152 34.6101 103.638 34.2301 104.227 34.0221C105.51 33.5721 107.156 33.3481 109.167 33.3481H114.211V37.2381ZM109.791 62.6061V65.3551C109.791 65.9431 109.878 66.3411 110.051 66.5481C110.224 66.7901 110.675 66.9111 111.403 66.9111H114.211V70.8011H107.659C103.88 70.8011 101.991 68.9511 101.991 65.2511V63.6951C101.991 63.1761 102.043 62.8821 102.147 62.8131C102.286 62.7441 102.372 62.6931 102.407 62.6571C102.442 62.6571 102.528 62.6401 102.667 62.6061H109.791ZM115.771 33.3481H118.943C120.468 33.3481 121.612 33.7281 122.375 34.4891C123.172 35.2161 123.571 36.1671 123.571 37.3431V66.8591C123.571 68.0351 123.172 68.9861 122.375 69.7131C121.612 70.4731 120.468 70.8531 118.943 70.8531H115.771V33.3481ZM9.36 33.3481H14.404C17.836 33.3481 19.951 33.9361 20.748 35.1121C21.1011 35.6139 21.3976 36.1531 21.632 36.7201C21.875 37.2391 22.031 38.0511 22.1 39.1581C22.273 41.1641 22.36 43.3951 22.36 45.8501C22.36 48.3051 22.343 50.0861 22.308 51.1931C22.2687 52.3073 22.1471 53.417 21.944 54.5131C21.771 55.6201 21.528 56.4331 21.216 56.9511C20.904 57.4351 20.436 57.8851 19.812 58.3001C19.188 58.7151 18.46 58.9921 17.628 59.1301C16.796 59.2341 15.721 59.2861 14.404 59.2861H9.36V55.3951H12.168C13.069 55.3951 13.641 55.2741 13.884 55.0321C14.161 54.7901 14.3 54.4091 14.3 53.8911V38.7951C14.3 38.2421 14.161 37.8441 13.884 37.6021C13.641 37.3601 13.069 37.2391 12.168 37.2391H9.36V33.3481ZM7.8 70.8541H4.628C3.103 70.8541 1.941 70.4741 1.144 69.7131C0.381 68.9861 0 68.0351 0 66.8591V37.3431C0 36.1671 0.381 35.2161 1.144 34.4891C1.941 33.7291 3.103 33.3491 4.628 33.3491H7.8V70.8531V70.8541Z" fill="white"/>
<path fill-rule="evenodd" clip-rule="evenodd" d="M35.546 33.3481C34.7745 33.8835 34.0666 34.5052 33.436 35.2011C30.836 38.1651 28.978 43.3531 28.978 47.7991C28.978 57.8261 37.521 66.3261 47.921 65.9551C58.321 65.5851 66.864 57.8261 66.864 47.7991C66.864 42.2411 64.636 37.4241 61.664 34.4591C61.2548 34.0556 60.8148 33.6845 60.348 33.3491L35.546 33.3481Z" fill="#C1596C"/>
</svg>
