<svg width="25" height="31" viewBox="0 0 25 31" fill="none" xmlns="http://www.w3.org/2000/svg">
<path d="M8.23438 27.9138C8.20391 28.1071 8.03633 28.1587 7.85352 28.1845C7.06133 28.3005 6.42148 28.6872 5.73594 29.0224C5.30937 29.2286 4.83711 29.3833 4.38008 29.5638C4.31914 29.5896 4.2125 29.6024 4.18203 29.5767C3.95352 29.3188 3.69453 29.5251 3.49648 29.5896C3.10039 29.7185 2.75 29.9376 2.38437 30.1052C2.18633 30.1954 1.98828 30.2985 1.775 30.3759C1.54648 30.4532 1.30273 30.479 1.11992 30.6595C1.05898 30.711 0.921875 30.7239 0.830469 30.7239C0.754297 30.7239 0.693359 30.6595 0.617188 30.6337C0.647656 30.5821 0.678125 30.5306 0.739062 30.5048C0.937109 30.4017 1.15039 30.3114 1.34844 30.2212C1.65312 30.0794 1.95781 29.9247 2.27773 29.7829C2.32344 29.7571 2.36914 29.7313 2.41484 29.7185C3.16133 29.5638 3.78594 29.2028 4.44102 28.9063C4.68477 28.7903 4.89805 28.6356 5.1418 28.4938C4.94375 28.2747 4.7457 28.3392 4.59336 28.4165C3.98398 28.6743 3.38984 28.945 2.7957 29.2157C2.7043 29.2544 2.62812 29.3317 2.52148 29.3575C2.43008 29.3833 2.27773 29.3704 2.24727 29.3317C2.20156 29.2673 2.20156 29.1384 2.24727 29.0868C2.53672 28.7646 2.7957 28.4165 3.34414 28.3649C3.51172 28.3521 3.69453 28.3134 3.55742 28.1071C3.49648 28.0169 3.46602 27.9396 3.57266 27.8751C3.69453 27.7978 3.83164 27.6946 3.99922 27.7849C4.1668 27.888 4.36484 27.9267 4.54766 27.8493C4.73047 27.7849 4.91328 27.7075 4.77617 27.4884C4.68477 27.3466 4.80664 27.2692 4.94375 27.2048C5.2332 27.0888 5.52266 26.9599 5.81211 26.8567C5.90352 26.8181 6.07109 26.7794 6.1168 26.8181C6.40625 27.0888 6.58906 26.8438 6.78711 26.7278C6.86328 26.6763 6.96992 26.6505 7.06133 26.6247C7.24414 26.8825 6.86328 26.8825 6.83281 27.063C6.90898 27.0759 6.98516 27.1146 7.04609 27.1017C7.45742 26.9599 7.85352 26.7923 8.24961 26.6376C8.28008 26.6247 8.28008 26.5474 8.31055 26.4958C8.26484 26.4829 8.20391 26.4571 8.17344 26.47C8.03633 26.5216 7.89922 26.586 7.70117 26.5989C7.80781 26.4958 7.91445 26.3798 8.05156 26.3024C8.52383 26.0575 9.01133 25.8384 9.49883 25.6192C9.59023 25.5806 9.75781 25.5419 9.83398 25.5806C10.032 25.6837 10.2148 25.645 10.3977 25.5806C10.7633 25.4517 11.1137 25.3228 11.4641 25.181C11.525 25.1552 11.5402 25.0907 11.6012 25.0263C11.266 24.8329 11.007 25.0521 10.6719 25.1165C10.7328 25.0005 10.7328 24.8974 10.7938 24.8716C11.0223 24.7556 11.2508 24.6396 11.4945 24.5493C11.6926 24.472 11.9059 24.472 12.0582 24.2528C11.9363 24.2271 11.8449 24.1884 11.7687 24.2013C11.0984 24.2399 10.4586 24.3173 10.0016 24.8071C9.75781 25.0521 9.37695 25.0649 9.02656 25.0907C8.82852 25.1036 8.76758 24.9876 8.81328 24.8458C8.85898 24.7169 8.90469 24.5622 9.02656 24.4978C9.37695 24.3173 9.69688 24.0337 10.1844 24.1497C10.2758 24.1755 10.3977 24.1626 10.4891 24.1368C10.9766 23.995 11.4641 23.8403 11.9363 23.6728C12.1039 23.6212 12.3477 23.5567 12.0887 23.3376C12.0734 23.3247 12.1648 23.1829 12.241 23.1442C12.8199 22.8091 13.3988 22.4868 13.9777 22.1646C15.0746 21.5458 16.2629 21.0688 17.4512 20.5661C18.1824 20.2567 18.7918 19.8185 19.4164 19.3931C19.5535 19.3028 19.6754 19.1739 19.782 19.0579C20.041 18.7614 19.9953 18.5294 19.5992 18.3618C19.3555 18.2587 19.066 18.1813 18.7918 18.1427C17.8168 18.0138 16.8418 17.9235 15.882 17.7817C15.1051 17.6657 14.4652 17.3048 14.1148 16.7118C13.9168 16.3767 13.8406 15.9384 13.9168 15.5774C14.1301 14.5849 14.6176 13.6825 15.4707 12.9478C16.3238 12.2001 17.3141 11.6716 18.4719 11.3493C19.1727 11.156 19.9191 11.2204 20.6352 11.3622C21.0922 11.4524 21.534 11.4524 21.991 11.2849C22.4328 11.1173 22.8746 10.9626 23.2555 10.7048C23.2859 10.6919 23.3164 10.6661 23.3469 10.6532C23.4992 10.6146 23.6211 10.8724 23.7887 10.6532C23.8801 10.5501 24.002 10.4599 24.1086 10.3696C24.1086 10.3696 24.1391 10.3696 24.2 10.3696C24.2 10.4599 24.2152 10.563 24.2152 10.6532C24.2152 10.8466 24.1086 11.0271 24.2914 11.2075C24.3523 11.272 24.2914 11.4138 24.2914 11.5169C24.2914 11.9165 24.3219 12.329 24.3066 12.7286C24.2762 13.1669 24.2 13.6052 23.8953 13.979C23.5297 14.4302 23.0879 14.8169 22.5547 15.1263C22.4023 15.2036 22.2805 15.2165 22.1129 15.1778C21.7168 15.0876 21.3664 14.92 21.077 14.6493C20.6352 14.2368 20.102 13.9017 19.5078 13.631C19.066 13.4376 18.6699 13.4634 18.2586 13.7083C17.7559 14.0177 17.2531 14.3271 16.9332 14.804C16.6133 15.2938 16.5371 15.8095 16.7961 16.3122C16.9332 16.57 17.2531 16.6989 17.573 16.7505C18.2434 16.8536 18.9137 16.9438 19.584 17.0083C20.1629 17.0599 20.7723 17.0341 21.3359 17.1372C22.1281 17.279 22.8594 17.5497 23.2555 18.22C23.4078 18.4907 23.6059 18.7485 23.7277 19.0321C23.8648 19.3802 23.8801 19.7282 23.6516 20.0763C23.3012 20.5919 22.8594 21.0302 22.2957 21.404C21.3816 21.997 20.3762 22.4353 19.3859 22.9251C19.0203 23.1056 18.7309 23.3247 18.4871 23.6083C18.3348 23.7888 18.1367 23.9563 17.9082 24.0724C16.7961 24.6267 15.684 25.1423 14.5566 25.6837C14.191 25.8513 13.7949 25.8384 13.4141 25.8513C13.3531 25.8513 13.277 25.7997 13.2617 25.761C13.2465 25.7224 13.3074 25.645 13.3684 25.6192C13.673 25.4903 13.9625 25.3614 14.2824 25.2454C14.45 25.181 14.6176 25.1294 14.6328 24.8845C14.4348 24.9231 14.2672 24.9489 14.1148 25.0005C13.475 25.2196 12.8352 25.4517 12.1801 25.6579C11.7535 25.7868 11.2965 25.8642 10.9004 26.0962C10.8242 26.1349 10.6871 26.122 10.5957 26.1091C10.3062 26.0446 10.0777 26.1091 9.83398 26.2251C9.39219 26.4185 8.95039 26.6118 8.49336 26.7923C7.79258 27.0759 7.06133 27.3337 6.40625 27.7075C6.22344 27.8106 6.07109 27.9267 5.90352 28.0427C5.87305 28.0556 5.87305 28.1329 5.88828 28.1587C5.90352 28.1845 5.97969 28.236 6.01016 28.2231C6.25391 28.1587 6.49766 28.1071 6.71094 28.0298C7.03086 27.9009 7.33555 27.7333 7.65547 27.6044C7.96016 27.4755 8.26484 27.3079 8.66094 27.411C8.81328 27.4497 9.01133 27.3079 9.20938 27.2692C9.28555 27.2563 9.39219 27.295 9.48359 27.3208C9.45312 27.3981 9.43789 27.5142 9.37695 27.5399C9.1332 27.656 8.87422 27.7333 8.6 27.8235C8.49336 27.8622 8.35625 27.888 8.23438 27.9138C8.21914 27.9009 8.21914 27.8622 8.20391 27.8364C8.18867 27.7978 8.1582 27.772 8.12773 27.7462C8.12773 27.7462 8.08203 27.772 8.05156 27.7849C8.08203 27.8106 8.09727 27.8493 8.14297 27.8751C8.1582 27.9009 8.20391 27.9009 8.23438 27.9138Z" fill="#C1596C"/>
<path d="M16.1412 6.68287C16.8725 5.84497 17.4209 4.95552 18.2131 4.22076C18.2588 4.24654 18.3045 4.27232 18.335 4.28521C18.0608 4.73638 17.8018 5.20044 17.5276 5.65162C17.558 5.66451 17.6037 5.69029 17.6342 5.70318C17.7561 5.56138 17.8932 5.41958 17.9998 5.2649C18.2436 4.91685 18.4416 4.54302 18.7006 4.19497C19.3862 3.26685 20.026 2.31294 20.9858 1.53951C21.0467 1.48794 21.1076 1.42349 21.1838 1.38482C21.4123 1.24302 21.5951 1.24302 21.8389 1.39771C21.8694 1.42349 21.8998 1.50083 21.8846 1.53951C21.8237 1.65552 21.7323 1.78443 21.6408 1.88755C21.3819 2.20982 21.1381 2.53208 20.8639 2.85435C20.5744 3.18951 20.4526 3.55044 20.4526 3.95005C20.4526 4.19497 20.3307 4.37544 20.0108 4.46568C19.9955 4.36255 19.9955 4.28521 19.9803 4.1563C19.5842 4.64615 19.2033 5.09732 18.8377 5.56138C18.8225 5.57427 18.7768 5.56138 18.6854 5.56138C19.0358 4.86529 19.6908 4.31099 19.8584 3.55044C19.4014 3.73091 19.2186 4.10474 18.9596 4.40122C18.7006 4.69771 18.5178 5.04576 18.3197 5.38091C18.1065 5.72896 17.8932 6.07701 17.7104 6.43794C17.5428 6.7731 17.2229 7.06958 17.3143 7.52076C17.7865 7.36607 17.8475 6.88912 18.3045 6.72154C18.3045 6.79888 18.3198 6.85044 18.3045 6.88912C17.817 7.80435 17.3752 8.74536 16.6592 9.57036C16.2631 10.0215 15.9584 10.5501 15.6233 11.0399C15.4709 11.259 15.2881 11.4653 15.1205 11.6715C15.0596 11.7489 14.9987 11.8133 14.953 11.9036C14.8006 12.2129 14.694 12.5352 14.4959 12.8188C14.2979 13.1024 14.3283 13.4247 14.2217 13.7211C13.978 14.4301 13.719 15.1262 13.46 15.8352C13.1096 16.8278 12.8811 17.859 12.683 18.8774C12.5916 19.3801 12.5612 19.8958 12.5612 20.4114C12.5612 20.9399 11.8908 21.3266 11.3272 21.1204C11.2662 21.0946 11.2053 21.0559 11.1748 21.0043C10.8854 20.5532 10.4436 20.1793 10.0018 19.8442C9.62092 19.5477 9.57522 19.2254 9.69709 18.8645C9.7885 18.5809 9.75803 18.336 9.68186 18.0782C9.55998 17.6657 9.42287 17.2661 9.37717 16.8407C9.3467 16.57 9.13342 16.3895 9.02678 16.1575C8.82873 15.7579 8.64592 15.3454 8.47834 14.9458C8.18889 14.2626 7.91467 13.5793 7.62522 12.909C7.48811 12.5739 7.29006 12.2516 7.18342 11.9036C7.06155 11.4782 6.75686 11.1688 6.376 10.911C6.04084 10.6918 5.8885 10.4083 5.9342 10.086C5.97991 9.71216 5.91897 9.31255 6.19319 8.96451C6.376 8.74537 6.45217 8.47466 6.58928 8.21685C6.66545 8.04927 6.78733 7.94615 6.98538 8.06216C7.15295 8.16529 7.29006 8.11372 7.42717 8.03638C7.77756 7.81724 8.14319 7.97193 8.50881 7.99771C8.90491 8.33287 9.39241 8.57779 9.48381 9.11919C9.62092 9.95708 9.81897 10.7821 10.0475 11.5942C10.2455 12.3161 10.5045 13.0251 10.733 13.734C10.7635 13.8501 10.7787 13.979 10.8092 14.095C10.8701 14.2754 10.9158 14.4688 10.992 14.6493C11.0225 14.7266 11.0682 14.7911 11.0987 14.8555C11.1596 14.9844 11.0834 15.2036 11.3272 15.2036C11.4186 15.2036 11.51 14.9715 11.5709 14.8426C11.9518 13.9016 12.3022 12.9606 12.683 12.0196C13.003 11.2333 13.3533 10.4598 13.658 9.67349C13.8408 9.22232 13.8865 8.73247 14.1608 8.29419C14.4045 7.90747 14.6483 7.53365 14.9225 7.15982C14.9987 7.0438 15.1358 6.88912 15.349 7.05669C15.3643 7.06958 15.5014 7.01802 15.5471 6.96646C15.6537 6.85044 15.7451 6.72154 15.8518 6.59263C15.9127 6.38638 15.9432 6.39927 16.1412 6.68287ZM21.0619 2.06802C20.8791 2.10669 20.7572 2.0938 20.7268 2.14536C20.483 2.40318 20.2393 2.66099 20.0108 2.9188C19.9955 2.94458 20.0108 3.02193 20.0412 3.03482C20.1022 3.04771 20.1936 3.0606 20.224 3.03482C20.544 2.77701 20.8487 2.5063 21.0619 2.06802Z" fill="#C1596C"/>
<path d="M19.9651 0.753181C19.767 0.985213 19.7518 1.38482 19.31 1.5524C19.2338 1.57818 19.0967 1.56529 19.0205 1.53951C18.9748 1.52662 18.9748 1.4106 18.9901 1.34615C19.051 1.11412 19.1424 0.882088 19.2186 0.650056C19.2338 0.611385 19.2491 0.559822 19.2643 0.52115C19.3862 0.327791 19.5385 0.263338 19.7366 0.3149C19.9194 0.353572 19.9803 0.456697 19.9651 0.753181Z" fill="#C1596C"/>
</svg>
