<svg width="683" height="683" viewBox="0 0 683 683" fill="none" xmlns="http://www.w3.org/2000/svg">
<path d="M161.867 1.866C156.533 4.26599 152.4 9.59933 150.533 16.5327C148.4 24.3993 150 54.5327 153.333 67.5993C162.667 103.599 189.2 131.066 226.4 142.666L237.467 146.133L240.667 155.199C247.333 174.399 263.467 192.666 281.6 201.733C292.267 207.066 304.533 210.666 312.133 210.666C321.867 210.666 321.333 208.666 321.333 245.466V278.666H297.067C276.533 278.666 272 279.066 268.133 281.066C261.733 284.266 258.4 289.333 257.733 296.933C256.933 305.599 260.4 311.733 268 315.599C273.867 318.666 274 318.666 341.333 318.666C408.667 318.666 408.8 318.666 414.667 315.599C422.267 311.733 425.733 305.599 424.933 296.933C424.267 289.333 420.933 284.266 414.533 281.066C410.667 279.066 406.133 278.666 385.733 278.666H361.333V245.466C361.333 208.666 360.8 210.666 370.533 210.666C390.933 210.666 418.533 194.533 432 174.799C436.8 167.599 443.2 154.133 444.133 148.799C444.533 147.066 448.133 145.199 458.133 141.999C487.467 132.399 509.333 113.733 522.133 87.1993C529.867 71.1993 532.133 59.5993 532.4 35.9993C532.667 13.1993 531.733 9.466 523.6 3.466L519.867 0.665985L342.933 0.399323C196.933 0.13266 165.333 0.399323 161.867 1.866ZM236 71.9993C236 89.5993 235.733 103.999 235.333 103.999C232.4 103.999 217.067 94.666 211.6 89.5993C199.067 77.866 192.133 63.7327 190.133 45.5993L189.6 39.9993H212.8H236V71.9993ZM492.533 45.5993C490.533 63.7327 483.6 77.866 471.067 89.5993C465.6 94.666 450.267 103.999 447.333 103.999C446.933 103.999 446.667 89.5993 446.667 71.9993V39.9993H469.867H493.067L492.533 45.5993Z" fill="white" fill-opacity="0.109804"/>
<path d="M139.067 216.8C136.667 218 133.333 221.2 131.733 223.866C128.8 228.533 128.667 230 128.267 264.266L127.867 300H114.133C99.0667 300 94.8 301.6 88.8 309.733C86.1333 313.333 86 315.2 85.6 360.933C85.2 406.266 85.3333 408.533 88 413.866C92.2667 422.8 98.1333 425.333 114.533 425.333H128V447.866V470.533L93.0667 470.933C60.8 471.333 57.6 471.6 53.4667 474C50.9333 475.466 47.7333 478.4 46.1333 480.4C43.4667 484 43.3333 486 42.9333 520.8L42.5333 557.333H28.1333C15.3333 557.333 13.2 557.733 9.2 560.4C0.133333 566.4 0 567.2 0 619.733C0 664.266 0.133333 667.066 2.66667 672C4.4 675.466 7.2 678.266 10.6667 680C15.8667 682.666 17.8667 682.8 64.4 682.4L112.667 682L117.2 678.8C125.2 673.066 125.333 671.733 125.333 619.066C125.333 573.733 125.2 571.066 122.667 566.933C117.867 559.066 113.2 557.333 96.9333 557.333H82.6667L82.9333 534.266L83.3333 511.333H148.667H214V534V556.666L199.333 557.333C184 558 181.467 558.8 176 564.666L172.667 568.266L172.267 618.533L171.867 668.8L174.933 673.466C181.2 682.666 181.6 682.8 235.6 682.4C281.867 682 284 681.866 287.467 679.2C289.467 677.733 292.4 674.8 293.867 672.8C296.533 669.333 296.667 667.2 297.067 621.6C297.467 574.266 297.333 574 294.4 568.133C289.867 559.333 285.067 557.333 268.4 557.333H254.667V522.933C254.667 490 254.533 488.266 251.733 482.666C246.133 471.733 244.533 471.333 203.6 470.933L168 470.533L168.267 448.266L168.667 426L183.6 425.333C199.6 424.666 202.667 423.466 208.533 415.466C211.2 411.866 211.333 410.266 211.333 363.6C211.333 317.733 211.2 315.066 208.667 310.8C203.6 302.133 200.267 300.666 183.2 300.266L168 299.733V277.2V254.666H191.733C213.733 254.666 215.867 254.4 221.333 251.6C232 246.266 235.733 233.6 229.6 223.6C224.267 215.066 222 214.666 180.4 214.666C149.2 214.666 142.667 215.066 139.067 216.8Z" fill="white" fill-opacity="0.109804"/>
<path d="M460.4 216.8C451.067 221.467 447.467 234.8 452.8 244.133C454.267 246.8 457.867 249.867 461.334 251.6C466.8 254.4 468.934 254.667 490.934 254.667H514.667V277.333V300H501.467C486.8 300 482.4 301.067 477.067 306.267C471.067 312 470.4 318.8 470.934 367.6C471.334 409.867 471.467 412 474.134 415.467C480 423.467 483.067 424.667 499.067 425.333L514 426L514.4 448.267L514.667 470.533L479.067 470.933C438.134 471.333 436.534 471.733 431.067 482.667C428.134 488.267 428 490 428 522.933V557.333H414.267C397.6 557.333 392.8 559.333 388.267 568.133C385.334 574 385.2 574.267 385.6 621.6C386 667.2 386.134 669.333 388.8 672.8C390.267 674.8 393.2 677.733 395.2 679.2C398.667 681.867 400.8 682 447.067 682.4C501.067 682.8 501.467 682.667 507.734 673.467L510.8 668.8L510.4 618.533L510 568.267L506.667 564.667C501.2 558.8 498.667 558 483.334 557.333L468.667 556.667V534V511.333H534H599.334L599.734 534.4L600 557.333H585.734C569.467 557.333 564.8 559.067 560 566.933C557.467 571.067 557.334 573.733 557.334 620.133C557.334 688.133 551.867 682.667 619.734 682.667C664.267 682.667 667.067 682.533 672 680C675.467 678.267 678.267 675.467 680 672C682.534 667.067 682.667 664.267 682.667 619.733C682.667 567.2 682.534 566.4 673.467 560.4C669.467 557.733 667.334 557.333 654.534 557.333H640.134L639.734 520.8C639.334 486 639.2 484 636.534 480.4C634.934 478.4 631.734 475.467 629.2 474C625.067 471.6 621.867 471.333 589.734 470.933L554.667 470.533V447.867V425.333H568.4C584.934 425.333 589.734 423.333 594.4 414.533C597.467 408.8 597.467 408.667 597.067 361.067C596.667 315.2 596.534 313.333 593.867 309.733C587.867 301.6 583.6 300 568.534 300H554.8L554.4 264.267C553.867 212.133 556.4 214.667 501.734 214.667C470.534 214.667 464 215.067 460.4 216.8Z" fill="white" fill-opacity="0.109804"/>
</svg>
