<svg width="81" height="81" viewBox="0 0 81 81" fill="none" xmlns="http://www.w3.org/2000/svg">
<path d="M18.7717 31.4861L17.9186 31.5461L17.2625 31.9663L17 32.6265V52.2544L17.3281 53.2748L17.9186 54.2352L18.7717 55.0755L39.0473 65.8198L39.6379 65.9999L40.2284 65.8198L40.6877 65.3396L40.819 64.8594V44.9315L40.6221 44.3312L40.2284 43.5509L39.6379 42.7106L38.8505 42.1103L18.7717 31.4861Z" fill="#C1596C" stroke="#C1596C"/>
<path d="M64.7033 31.7264L44.6902 42.4107L44.0996 42.8908L43.7715 43.4311L43.4434 44.1514L43.2466 44.8716V64.7396V65.2198L43.7715 65.76L44.4277 65.88L45.2807 65.7L65.4251 55.0157L66.2781 54.0553L66.8031 53.0349L66.9999 52.4347V32.4467L66.7375 31.7264L66.2125 31.4263H65.4907L64.7033 31.7264Z" fill="#C1596C" stroke="#C1596C"/>
<path d="M19.2951 27.3171L40.5306 16.1801L42.0002 16L43.4709 16.1801L64.8371 27.3171L65.0974 27.7047L65.2942 28.1248L65.163 28.6651L64.8371 29.1134L44.1896 40.1905L43.0449 40.5498H41.9681L41.0159 40.4298L40.1386 40.1905L19.8178 29.4128L19.2951 29.1134L19.0343 28.8451L18.8374 28.485V27.9448L19.2951 27.3171Z" fill="#C1596C" stroke="#C1596C"/>
<path d="M40.4429 27.875C40.4429 27.5576 40.5576 27.2988 40.7871 27.0986C41.0166 26.8984 41.3242 26.7349 41.71 26.6079C41.9785 26.5249 42.335 26.4395 42.7793 26.3516C43.0234 26.3076 43.2114 26.2686 43.3433 26.2344C43.3774 26.1855 43.3945 26.1294 43.3945 26.0659C43.3945 26.0122 43.3823 25.9658 43.3579 25.9268C43.0454 25.6777 42.6328 25.4385 42.1201 25.209C41.6074 24.9795 40.8115 24.6938 39.7324 24.3521C39.7227 24.2544 39.7178 24.1763 39.7178 24.1177C39.7178 23.7466 39.8057 23.373 39.9814 22.9971C40.1621 22.6162 40.3867 22.2988 40.6553 22.0449C40.9238 21.7861 41.1777 21.6421 41.417 21.6128C41.6807 21.6128 42.0615 21.7202 42.5596 21.9351C43.0625 22.1499 43.5508 22.4478 44.0244 22.8286C44.498 23.2046 44.8496 23.6294 45.0791 24.103C45.2012 24.3569 45.2988 24.6475 45.3721 24.9746C45.4502 25.3018 45.4893 25.6289 45.4893 25.9561C45.4893 26.6641 45.2891 27.2476 44.8887 27.7065C44.4932 28.1606 43.8389 28.3877 42.9258 28.3877L42.7646 28.3804L42.4424 29.4644C42.208 29.5376 41.9834 29.5742 41.7686 29.5742C41.4805 29.5742 41.1997 29.5132 40.9263 29.3911C40.77 29.0591 40.6504 28.7832 40.5674 28.5635C40.4844 28.3389 40.4429 28.1094 40.4429 27.875ZM41.9297 30.563C42.5742 30.563 43.043 30.7046 43.3359 30.9878C43.6338 31.2661 43.7827 31.6177 43.7827 32.0425C43.7827 32.3257 43.6924 32.5918 43.5117 32.8408C43.3359 33.085 43.104 33.2803 42.8159 33.4268C42.5327 33.5732 42.2373 33.6465 41.9297 33.6465C41.6221 33.6465 41.3242 33.5732 41.0361 33.4268C40.7529 33.2803 40.521 33.085 40.3403 32.8408C40.1646 32.5918 40.0767 32.3257 40.0767 32.0425C40.0767 31.6177 40.2231 31.2661 40.5161 30.9878C40.814 30.7046 41.2852 30.563 41.9297 30.563Z" fill="white"/>
<path d="M54.4429 49.375C54.4429 49.0576 54.5576 48.7988 54.7871 48.5986C55.0166 48.3984 55.3242 48.2349 55.71 48.1079C55.9785 48.0249 56.335 47.9395 56.7793 47.8516C57.0234 47.8076 57.2114 47.7686 57.3433 47.7344C57.3774 47.6855 57.3945 47.6294 57.3945 47.5659C57.3945 47.5122 57.3823 47.4658 57.3579 47.4268C57.0454 47.1777 56.6328 46.9385 56.1201 46.709C55.6074 46.4795 54.8115 46.1938 53.7324 45.8521C53.7227 45.7544 53.7178 45.6763 53.7178 45.6177C53.7178 45.2466 53.8057 44.873 53.9814 44.4971C54.1621 44.1162 54.3867 43.7988 54.6553 43.5449C54.9238 43.2861 55.1777 43.1421 55.417 43.1128C55.6807 43.1128 56.0615 43.2202 56.5596 43.4351C57.0625 43.6499 57.5508 43.9478 58.0244 44.3286C58.498 44.7046 58.8496 45.1294 59.0791 45.603C59.2012 45.8569 59.2988 46.1475 59.3721 46.4746C59.4502 46.8018 59.4893 47.1289 59.4893 47.4561C59.4893 48.1641 59.2891 48.7476 58.8887 49.2065C58.4932 49.6606 57.8389 49.8877 56.9258 49.8877L56.7646 49.8804L56.4424 50.9644C56.208 51.0376 55.9834 51.0742 55.7686 51.0742C55.4805 51.0742 55.1997 51.0132 54.9263 50.8911C54.77 50.5591 54.6504 50.2832 54.5674 50.0635C54.4844 49.8389 54.4429 49.6094 54.4429 49.375ZM55.9297 52.063C56.5742 52.063 57.043 52.2046 57.3359 52.4878C57.6338 52.7661 57.7827 53.1177 57.7827 53.5425C57.7827 53.8257 57.6924 54.0918 57.5117 54.3408C57.3359 54.585 57.104 54.7803 56.8159 54.9268C56.5327 55.0732 56.2373 55.1465 55.9297 55.1465C55.6221 55.1465 55.3242 55.0732 55.0361 54.9268C54.7529 54.7803 54.521 54.585 54.3403 54.3408C54.1646 54.0918 54.0767 53.8257 54.0767 53.5425C54.0767 53.1177 54.2231 52.7661 54.5161 52.4878C54.814 52.2046 55.2852 52.063 55.9297 52.063Z" fill="white"/>
<path d="M25.4429 48.375C25.4429 48.0576 25.5576 47.7988 25.7871 47.5986C26.0166 47.3984 26.3242 47.2349 26.71 47.1079C26.9785 47.0249 27.335 46.9395 27.7793 46.8516C28.0234 46.8076 28.2114 46.7686 28.3433 46.7344C28.3774 46.6855 28.3945 46.6294 28.3945 46.5659C28.3945 46.5122 28.3823 46.4658 28.3579 46.4268C28.0454 46.1777 27.6328 45.9385 27.1201 45.709C26.6074 45.4795 25.8115 45.1938 24.7324 44.8521C24.7227 44.7544 24.7178 44.6763 24.7178 44.6177C24.7178 44.2466 24.8057 43.873 24.9814 43.4971C25.1621 43.1162 25.3867 42.7988 25.6553 42.5449C25.9238 42.2861 26.1777 42.1421 26.417 42.1128C26.6807 42.1128 27.0615 42.2202 27.5596 42.4351C28.0625 42.6499 28.5508 42.9478 29.0244 43.3286C29.498 43.7046 29.8496 44.1294 30.0791 44.603C30.2012 44.8569 30.2988 45.1475 30.3721 45.4746C30.4502 45.8018 30.4893 46.1289 30.4893 46.4561C30.4893 47.1641 30.2891 47.7476 29.8887 48.2065C29.4932 48.6606 28.8389 48.8877 27.9258 48.8877L27.7646 48.8804L27.4424 49.9644C27.208 50.0376 26.9834 50.0742 26.7686 50.0742C26.4805 50.0742 26.1997 50.0132 25.9263 49.8911C25.77 49.5591 25.6504 49.2832 25.5674 49.0635C25.4844 48.8389 25.4429 48.6094 25.4429 48.375ZM26.9297 51.063C27.5742 51.063 28.043 51.2046 28.3359 51.4878C28.6338 51.7661 28.7827 52.1177 28.7827 52.5425C28.7827 52.8257 28.6924 53.0918 28.5117 53.3408C28.3359 53.585 28.104 53.7803 27.8159 53.9268C27.5327 54.0732 27.2373 54.1465 26.9297 54.1465C26.6221 54.1465 26.3242 54.0732 26.0361 53.9268C25.7529 53.7803 25.521 53.585 25.3403 53.3408C25.1646 53.0918 25.0767 52.8257 25.0767 52.5425C25.0767 52.1177 25.2231 51.7661 25.5161 51.4878C25.814 51.2046 26.2852 51.063 26.9297 51.063Z" fill="white"/>
</svg>
