<svg width="262" height="205" viewBox="0 0 262 205" fill="none" xmlns="http://www.w3.org/2000/svg">
<g id="logo design">
<g id="Group 5">
<g id="Group">
<path id="Vector" d="M71.3614 182.187L65.6599 189.626C62.7058 193.48 63.4354 198.999 67.2894 201.953C71.1435 204.907 76.6626 204.177 79.6166 200.323L85.3182 192.885C93.1562 182.659 104.408 188.015 114.361 186.746L69.743 152.546C71.1033 162.487 79.1994 171.961 71.3614 182.187Z" fill="#9D9D9D" fill-opacity="0.85098"/>
<path id="Vector_2" d="M125.998 126.248C110.582 114.432 88.5056 117.35 76.6893 132.766C73.4896 136.941 71.607 141.296 70.8681 145.663L121.575 184.529C125.6 182.681 129.317 179.732 132.516 175.557C144.333 160.141 141.414 138.064 125.998 126.248Z" fill="#C1596C"/>
</g>
<path id="Ping" d="M34.8768 95V23.7273H58.9592C64.5505 23.7273 69.1211 24.7365 72.6708 26.755C76.2437 28.7502 78.8886 31.4531 80.6055 34.8636C82.3223 38.2741 83.1808 42.0791 83.1808 46.2784C83.1808 50.4777 82.3223 54.2943 80.6055 57.728C78.9118 61.1617 76.2901 63.8994 72.7404 65.941C69.1907 67.9595 64.6433 68.9688 59.0984 68.9688H41.837V61.3125H58.82C62.6481 61.3125 65.7222 60.6513 68.0423 59.3288C70.3623 58.0064 72.0444 56.2199 73.0884 53.9695C74.1557 51.6958 74.6893 49.1321 74.6893 46.2784C74.6893 43.4247 74.1557 40.8726 73.0884 38.6222C72.0444 36.3717 70.3507 34.6084 68.0075 33.3324C65.6642 32.0331 62.5553 31.3835 58.6808 31.3835H43.5075V95H34.8768ZM95.9702 95V41.5455H104.183V95H95.9702ZM100.146 32.6364C98.5455 32.6364 97.165 32.0911 96.005 31.0007C94.8681 29.9103 94.2997 28.5994 94.2997 27.0682C94.2997 25.5369 94.8681 24.2261 96.005 23.1357C97.165 22.0452 98.5455 21.5 100.146 21.5C101.747 21.5 103.116 22.0452 104.253 23.1357C105.413 24.2261 105.993 25.5369 105.993 27.0682C105.993 28.5994 105.413 29.9103 104.253 31.0007C103.116 32.0911 101.747 32.6364 100.146 32.6364ZM127.439 62.8438V95H119.226V41.5455H127.161V49.8977H127.857C129.11 47.1832 131.012 45.0024 133.564 43.3551C136.116 41.6847 139.411 40.8494 143.448 40.8494C147.067 40.8494 150.234 41.5919 152.948 43.0767C155.663 44.5384 157.774 46.7656 159.282 49.7585C160.79 52.7282 161.544 56.4867 161.544 61.0341V95H153.331V61.5909C153.331 57.3916 152.241 54.1203 150.06 51.777C147.879 49.4105 144.886 48.2273 141.081 48.2273C138.459 48.2273 136.116 48.7957 134.051 49.9325C132.01 51.0694 130.397 52.7282 129.214 54.9091C128.031 57.09 127.439 59.7348 127.439 62.8438ZM198.129 116.159C194.162 116.159 190.751 115.649 187.897 114.628C185.044 113.63 182.666 112.308 180.763 110.661C178.884 109.036 177.387 107.296 176.274 105.44L182.816 100.847C183.559 101.821 184.498 102.935 185.635 104.188C186.772 105.464 188.327 106.566 190.299 107.494C192.294 108.445 194.904 108.92 198.129 108.92C202.444 108.92 206.006 107.876 208.813 105.788C211.62 103.7 213.024 100.429 213.024 95.9744V85.1165H212.328C211.725 86.0909 210.866 87.2973 209.752 88.7358C208.662 90.151 207.084 91.4155 205.02 92.5291C202.978 93.6196 200.217 94.1648 196.737 94.1648C192.422 94.1648 188.547 93.1439 185.113 91.1023C181.703 89.0606 179 86.0909 177.005 82.1932C175.033 78.2955 174.047 73.5625 174.047 67.9943C174.047 62.5189 175.009 57.7512 176.935 53.691C178.861 49.6077 181.54 46.4524 184.974 44.2251C188.408 41.9747 192.375 40.8494 196.876 40.8494C200.356 40.8494 203.117 41.4295 205.159 42.5895C207.224 43.7263 208.801 45.0256 209.892 46.4872C211.005 47.9257 211.864 49.1089 212.467 50.0369H213.302V41.5455H221.237V96.5312C221.237 101.125 220.193 104.86 218.105 107.737C216.04 110.637 213.256 112.76 209.752 114.106C206.272 115.475 202.398 116.159 198.129 116.159ZM197.85 86.7869C201.145 86.7869 203.929 86.0329 206.203 84.5249C208.476 83.0168 210.205 80.8475 211.388 78.017C212.571 75.1866 213.163 71.7992 213.163 67.8551C213.163 64.0038 212.583 60.6049 211.423 57.6584C210.263 54.7119 208.546 52.4034 206.272 50.733C203.999 49.0625 201.191 48.2273 197.85 48.2273C194.37 48.2273 191.47 49.1089 189.15 50.8722C186.853 52.6354 185.125 55.0019 183.965 57.9716C182.828 60.9413 182.26 64.2358 182.26 67.8551C182.26 71.5672 182.84 74.8501 184 77.7038C185.183 80.5343 186.923 82.7616 189.22 84.3857C191.54 85.9865 194.417 86.7869 197.85 86.7869Z" fill="#9D9D9D" fill-opacity="0.85098"/>
<path id="P ng" d="M8.66096 181V109.727H32.7433C38.3347 109.727 42.9053 110.737 46.455 112.755C50.0279 114.75 52.6728 117.453 54.3896 120.864C56.1065 124.274 56.9649 128.079 56.9649 132.278C56.9649 136.478 56.1065 140.294 54.3896 143.728C52.696 147.162 50.0743 149.899 46.5246 151.941C42.9749 153.96 38.4275 154.969 32.8825 154.969H15.6212V147.312H32.6041C36.4323 147.312 39.5064 146.651 41.8264 145.329C44.1465 144.006 45.8286 142.22 46.8726 139.969C47.9398 137.696 48.4735 135.132 48.4735 132.278C48.4735 129.425 47.9398 126.873 46.8726 124.622C45.8286 122.372 44.1349 120.608 41.7916 119.332C39.4484 118.033 36.3395 117.384 32.4649 117.384H17.2916V181H8.66096ZM160.655 148.844V181H152.442V127.545H160.377V135.898H161.073C162.325 133.183 164.228 131.002 166.78 129.355C169.332 127.685 172.627 126.849 176.663 126.849C180.283 126.849 183.45 127.592 186.164 129.077C188.879 130.538 190.99 132.766 192.498 135.759C194.006 138.728 194.76 142.487 194.76 147.034V181H186.547V147.591C186.547 143.392 185.457 140.12 183.276 137.777C181.095 135.411 178.102 134.227 174.297 134.227C171.675 134.227 169.332 134.796 167.267 135.933C165.225 137.069 163.613 138.728 162.43 140.909C161.247 143.09 160.655 145.735 160.655 148.844ZM231.345 202.159C227.377 202.159 223.967 201.649 221.113 200.628C218.26 199.63 215.881 198.308 213.979 196.661C212.1 195.036 210.603 193.296 209.49 191.44L216.032 186.847C216.775 187.821 217.714 188.935 218.851 190.188C219.988 191.464 221.542 192.566 223.514 193.494C225.51 194.445 228.12 194.92 231.345 194.92C235.66 194.92 239.221 193.876 242.029 191.788C244.836 189.7 246.24 186.429 246.24 181.974V171.116H245.544C244.94 172.091 244.082 173.297 242.968 174.736C241.878 176.151 240.3 177.415 238.235 178.529C236.194 179.62 233.433 180.165 229.953 180.165C225.637 180.165 221.763 179.144 218.329 177.102C214.919 175.061 212.216 172.091 210.22 168.193C208.248 164.295 207.262 159.562 207.262 153.994C207.262 148.519 208.225 143.751 210.151 139.691C212.076 135.608 214.756 132.452 218.19 130.225C221.624 127.975 225.591 126.849 230.092 126.849C233.572 126.849 236.333 127.429 238.375 128.589C240.439 129.726 242.017 131.026 243.108 132.487C244.221 133.926 245.08 135.109 245.683 136.037H246.518V127.545H254.453V182.531C254.453 187.125 253.409 190.86 251.321 193.737C249.256 196.637 246.472 198.76 242.968 200.106C239.488 201.475 235.614 202.159 231.345 202.159ZM231.066 172.787C234.361 172.787 237.145 172.033 239.419 170.525C241.692 169.017 243.421 166.848 244.604 164.017C245.787 161.187 246.379 157.799 246.379 153.855C246.379 150.004 245.799 146.605 244.639 143.658C243.479 140.712 241.762 138.403 239.488 136.733C237.215 135.062 234.407 134.227 231.066 134.227C227.586 134.227 224.686 135.109 222.366 136.872C220.069 138.635 218.341 141.002 217.181 143.972C216.044 146.941 215.475 150.236 215.475 153.855C215.475 157.567 216.055 160.85 217.215 163.704C218.399 166.534 220.139 168.762 222.436 170.386C224.756 171.987 227.633 172.787 231.066 172.787Z" fill="#9D9D9D" fill-opacity="0.85098"/>
<circle id="Ellipse 3" cx="100" cy="27" r="6" fill="#C1596C"/>
</g>
</g>
</svg>
