<svg width="534" height="533" viewBox="0 0 534 533" fill="none" xmlns="http://www.w3.org/2000/svg">
<path d="M439.733 1.53334C425.867 6.06668 416.267 14.6 410.133 27.6667C405.467 37.5333 405.2 53.1333 409.6 62.6L412.533 69L404.667 76.7333C390.267 91.1333 384.667 106.867 384.667 132.6V149H452H519.333V131.267C519.333 105.133 515.2 93.4 500.533 77.8L492.4 69.1333L495.2 61.6667C503.333 39.9333 493.067 14.6 472 4.20001C463.333 0.0666755 448.267 -1.26666 439.733 1.53334ZM461.6 23C468 25.6667 471.067 28.4667 474.267 34.8667C478.267 42.6 477.2 53.9333 471.867 60.4667C466.533 67.1333 460.133 70.3333 452.267 70.3333C441.6 70.3333 433.333 64.8667 429.333 55.2667C420.933 35 441.333 14.6 461.6 23ZM454.533 91.4C462.133 91 467.067 89.9333 471.067 87.8L476.667 85L480.8 87.9333C489.867 94.7333 496.8 107.4 497.733 119.267L498.4 127.667H452H405.6L406.533 119.267C407.6 108.467 412.4 98.8667 420.533 91.2667L427.067 85.1333L435.467 88.6C442.667 91.5333 445.333 91.9333 454.533 91.4Z" fill="#C1596C"/>
<path d="M274.133 98.1993C271.867 102.599 270 106.999 270 107.933C270 108.999 276.267 112.733 284 116.333L298.133 122.999L153.067 189.533C73.3334 226.066 7.73337 256.333 7.46671 256.599C6.80004 257.133 15.4667 275.666 16.4 275.666C16.6667 275.666 27.7334 270.599 41.0667 264.466C63.0667 254.333 168.267 206.066 268 160.199C289.333 150.466 306.8 142.999 307.067 143.533C307.333 144.199 305.867 150.733 304 158.066C302.133 165.399 300.667 172.066 300.667 172.733C300.667 174.599 319.2 178.999 320.667 177.533C321.733 176.333 335.333 121.266 335.333 118.066C335.333 116.599 294.533 96.5993 279.733 90.7327C278.8 90.3327 276.4 93.5327 274.133 98.1993Z" fill="#C1596C"/>
<path d="M399.333 312.333V454.333H388.667H378V341V227.667H324.667H271.333V341V454.333H260.667H250L249.733 369.267L249.333 284.333L196.4 283.933L143.333 283.667V369V454.333H132.667H122V397.667V341H68.6665H15.3332V397.667V454.333H7.99984H0.666504V493.667V533H267.333H534V493.667V454.333H520H506V312.333V170.333H452.667H399.333V312.333ZM484.667 323V454.333H452.667H420.667V323V191.667H452.667H484.667V323ZM356.667 351.667V454.333H324.667H292.667V351.667V249H324.667H356.667V351.667ZM228.4 379.933L228.667 454.333H196.667H164.667V379.667V305L196.4 305.267L228 305.667L228.4 379.933ZM100.667 408.333V454.333H68.6665H36.6665V408.333V362.333H68.6665H100.667V408.333ZM512.667 493.667V511.667H267.333H21.9998V493.667V475.667H267.333H512.667V493.667Z" fill="#C1596C"/>
</svg>
