<svg width="682" height="683" viewBox="0 0 682 683" fill="none" xmlns="http://www.w3.org/2000/svg">
<path d="M315.333 0.799379C272.533 5.19938 234.933 14.7994 201.333 29.9994C126.666 63.5994 63.4665 126.666 30.2665 200.799C-21.0668 315.066 -6.13351 446.933 69.4665 547.599C81.4665 563.466 107.2 590.266 124 604.266C151.733 627.466 192 650.399 225.866 662.399C352 707.199 490 675.866 583.6 581.199C637.867 526.266 669.867 460.399 680.267 382.666C682.8 363.733 682.4 314.799 679.6 295.333C674 257.199 658.133 207.733 643.6 183.066L640.933 178.533L655.867 163.466C670.533 148.533 670.667 148.399 670.667 142.133C670.667 129.733 668.8 128.266 632.267 112.666C620.533 107.599 617.467 105.733 618.133 104.133C623.467 91.3327 621.333 79.866 612 70.666C602.8 61.3327 591.333 59.1994 578.533 64.5327C576.933 65.1994 575.067 62.1327 570 50.3994C554.4 13.866 552.933 11.9994 540.533 11.9994C534.266 11.9994 534.133 12.1327 519.2 26.7994L504.133 41.7327L498.4 38.3994C489.333 33.066 465.866 23.1994 448.4 17.3327C430.4 11.3327 410.133 6.53271 389.333 3.33271C375.866 1.33271 326.933 -0.400622 315.333 0.799379ZM386 23.1994C420.666 28.3994 455.2 38.9327 481.733 52.266L489.6 56.1327L477.733 68.3994C468.266 78.1327 465.466 81.9994 464.133 86.9327C462.4 92.7994 462.8 100.533 464.8 105.866C465.333 107.333 461.733 106.133 453.066 102.133C387.866 71.5994 310.933 69.466 243.467 96.1327C166.933 126.399 107.2 193.599 86.5332 272.666C79.8665 298.533 78.1332 311.599 78.1332 340.666C78.1332 360.399 78.6665 371.066 80.5332 381.866C90.6665 443.066 118.666 494.933 164.266 536.933C239.2 605.733 351.066 624.399 445.6 583.599C528.666 547.866 587.6 471.999 602 382.666C604.933 364.266 604.667 360.799 600.533 357.466C596.133 353.999 591.867 353.866 588.133 356.933C585.733 358.933 584.8 362.533 582.667 375.999C576.533 415.599 562.267 451.333 540.266 482.666C528.933 498.933 499.2 528.533 482.666 540.266C424.666 581.466 349.466 595.199 280 577.333C211.333 559.733 152.666 511.466 121.866 447.333C88.5332 377.999 89.3332 299.999 124 231.199C136.533 206.266 147.866 190.799 169.333 169.333C190.666 147.866 205.866 136.666 231.2 123.999C290.133 94.2661 356.266 89.3327 418.266 109.999C436.533 115.999 456.4 125.333 471.066 134.666C478.266 139.066 480.133 141.199 482.533 146.666C484 150.266 485.333 153.599 485.333 154.266C485.333 154.933 477.6 163.066 468.133 172.533L450.933 189.733L443.6 184.933C399.466 155.599 341.466 147.066 288.666 162.133C274.666 165.999 250.667 177.199 238.533 185.466C196.266 213.866 167.733 256.399 157.733 306.266C154.4 322.799 154.4 360.266 157.733 375.999C168.4 427.199 196.266 468.933 238 496.666C266.8 515.733 298.666 526.133 333.333 527.599C365.733 529.066 396 522.666 424.666 508.266C461.6 489.866 489.733 461.733 508.266 424.666C520.933 399.466 526.4 377.333 527.6 347.333C528.133 330.666 527.866 324.666 525.466 310.933C521.066 284.666 511.2 259.333 497.733 239.066L492.933 231.733L510.133 214.533C519.6 205.066 527.733 197.333 528.4 197.333C529.066 197.333 532.4 198.666 536 200.133C543.6 203.333 548.133 209.733 559.867 232.933C571.6 256.399 579.067 280.933 583.333 309.999C584.8 320.533 585.867 323.866 588.133 325.599C591.867 328.799 596.133 328.666 600.533 325.199C604.8 321.733 604.933 317.999 601.333 296.799C597.067 271.333 588.8 245.599 578.4 224.799C575.333 218.666 574.933 217.199 576.667 217.866C582.133 219.866 589.733 220.266 595.733 218.533C600.667 217.199 604.533 214.399 614.267 204.933L626.533 193.066L630.133 200.133C643.2 225.999 654.667 263.599 659.467 296.533C673.467 393.199 641.6 491.866 573.6 562.799C480.933 659.599 342.8 688.799 218.266 637.866C121.2 598.266 47.9998 509.599 26.6665 405.999C4.53315 298.799 38.9332 187.333 117.466 111.333C170.933 59.5994 234.8 29.7327 309.333 21.466C324.8 19.7327 369.6 20.7994 386 23.1994ZM551.067 56.7994L561.067 79.7327L549.6 91.066L538.133 102.533L528.4 80.3994C523.066 68.266 518.666 57.5994 518.666 56.7994C518.666 55.466 540.133 33.066 540.8 33.7327C540.933 33.866 545.6 44.266 551.067 56.7994ZM513.333 95.8661L522.933 117.733L512.133 128.399C506.266 134.399 501.2 138.933 500.933 138.666C499.066 136.266 482.666 96.6661 482.666 94.5327C482.666 91.3327 501.333 71.466 502.8 72.9327C503.333 73.5994 508.133 83.866 513.333 95.8661ZM598 84.666C599.867 86.3994 601.333 89.1994 601.333 90.9327C601.333 95.4661 346 350.666 341.466 350.666C337.066 350.666 332 345.733 332 341.466C332 338.666 356.4 313.599 460.4 209.599C555.6 114.399 589.467 81.3327 591.733 81.3327C593.467 81.3327 596.267 82.7994 598 84.666ZM638.4 152.933C632.4 159.066 626.667 163.999 625.867 163.999C625.067 163.999 614.4 159.599 602.267 154.266L580.133 144.533L591.6 133.066L602.933 121.733L626.133 131.733L649.467 141.866L638.4 152.933ZM587.067 169.466C598.933 174.666 609.067 179.333 609.733 179.866C611.2 181.333 591.333 199.999 588.133 199.999C586 199.999 546.4 183.599 544.133 181.733C543.466 181.333 564.133 159.999 565.067 159.999C565.333 159.999 575.2 164.266 587.067 169.466ZM368 176.666C389.866 180.266 420.8 192.266 432.4 201.599L436.133 204.666L415.733 224.933L395.333 245.333L384.666 240.799C339.333 221.333 286.4 234.533 255.867 272.933C241.333 291.333 233.6 311.333 232.4 334.666C231.466 351.599 233.333 364.133 238.8 379.333C251.067 413.066 281.733 440.133 316.8 447.999C328.8 450.666 336.266 441.866 329.466 433.066C327.733 430.933 324.4 429.199 319.333 428.133C315.2 427.199 307.2 424.133 301.6 421.333C236.133 388.533 235.466 295.999 300.266 261.999C322.533 250.266 351.2 248.799 374.666 258.133L380.266 260.399L348.8 291.866C315.466 325.333 312 329.999 312 341.333C312 347.466 315.733 357.333 319.733 361.866C323.466 365.999 334.8 370.666 341.333 370.666C352.8 370.533 357.333 367.199 390.8 333.866L422.266 302.399L424.533 307.999C436.533 338.133 430.8 373.599 409.6 399.066C399.6 411.199 382.933 422.399 368.266 426.799C358.933 429.599 355.733 437.599 361.333 443.733C364.933 447.466 369.733 447.466 380.533 443.466C410.666 432.666 434.933 406.933 445.6 374.666C449.6 362.799 449.866 360.799 449.866 341.999C450 320.266 448.533 312.933 441.066 295.999L437.2 287.466L457.6 267.066L478 246.533L481.066 250.266C486.266 256.666 494.4 273.866 499.2 288.133C518.133 344.533 505.866 406.399 467.333 450.399C442.4 478.799 411.733 496.799 374.4 504.933C360.933 507.866 323.733 508.266 311.333 505.599C242.266 490.799 192.533 441.866 177.733 374.399C176 366.266 175.333 357.599 175.333 341.333C175.333 317.999 177.066 306.266 183.2 288.266C203.066 229.999 253.6 186.933 313.866 176.799C328.666 174.266 352.8 174.266 368 176.666Z" fill="#C1596C"/>
</svg>
