<svg width="594" height="683" viewBox="0 0 594 683" fill="none" xmlns="http://www.w3.org/2000/svg">
<path d="M8.53333 1.33422C4.26667 3.06755 0 9.20089 0 13.6009C0 17.3342 36.2667 72.2675 140.8 227.468L168 267.734L156.267 277.068C110.533 313.734 82.1333 362.134 71.7333 421.334C69.3333 435.601 69.6 476.134 72.4 492.001C86 570.534 138.933 636.668 211.867 666.001C276.267 691.734 348.8 687.068 408.267 653.068C426.8 642.534 439.067 633.201 455.067 617.468C490.8 582.534 512.667 540.534 521.6 489.334C523.867 476.268 523.867 434.401 521.6 421.334C514.667 381.601 499.467 346.534 476.267 316.668C466 303.334 444.8 282.268 432.933 273.601L425.2 267.868L447.067 235.601C541.733 95.7342 593.333 17.2009 593.333 13.4676C593.333 10.8009 592 7.86755 589.467 5.06755L585.6 0.667554L503.467 0.267554C436.8 0.00088703 420.667 0.267554 417.867 1.73422C415.733 2.80089 391.867 36.1342 355.867 88.1342C323.6 134.668 296.667 172.668 296 172.668C295.333 172.668 268.667 134.534 236.8 87.8675C198 31.4676 177.467 2.53422 175.2 1.60089C171.2 -0.26578 13.0667 -0.532446 8.53333 1.33422ZM218.933 108.934C250 154.134 276.267 192.668 277.6 194.534C279.733 198.001 279.733 198.134 268.133 214.534L256.533 231.068L242.667 234.801C226.4 239.068 211.867 244.134 200.8 249.468C196.4 251.601 192.267 253.334 191.467 253.334C190.4 253.201 44.8 37.8676 39.6 28.5342C38.6667 26.9342 47.3333 26.6676 100.533 26.6676H162.533L218.933 108.934ZM552.667 30.2676C549.467 35.3342 403.733 252.534 403.2 253.201C402.933 253.468 396.4 251.068 388.667 247.734L374.667 241.734L413.333 185.601C434.533 154.801 452.533 128.268 453.333 126.668C456.8 120.134 451.6 110.668 443.6 108.668C435.333 106.534 434.4 107.868 390.667 171.468C367.867 204.668 348.667 232.268 348 232.668C347.333 233.068 341.2 232.401 334.4 231.334C327.6 230.268 315.2 228.934 306.933 228.401C298.667 228.001 292.133 227.201 292.267 226.668C292.533 226.268 323.733 181.068 361.733 126.268L430.8 26.6676H492.933H554.933L552.667 30.2676ZM337.333 259.201C368.4 265.601 395.2 278.001 420.667 298.001C485.867 349.068 512.933 436.401 487.867 515.734C475.2 555.868 446.533 594.934 412 619.334C389.467 635.201 359.2 647.868 331.733 652.934C314.667 656.134 278.533 656.001 261.467 652.801C178.533 637.334 114.667 573.468 99.2 490.534C95.6 471.334 95.8667 437.201 99.7333 417.601C110.533 363.868 140.533 318.801 186 288.534C213.2 270.401 244.667 259.068 278 255.468C290.933 254.134 322.267 256.001 337.333 259.201Z" fill="#C1596C"/>
<path d="M466.8 62.1339C463.467 64.9339 462.667 66.5339 462.667 70.9339C462.667 78.0006 464.533 81.2006 470.267 83.4673C473.867 85.0673 475.867 85.2006 479.467 84.0006C485.333 82.0006 488 78.0006 488 71.2006C488 66.5339 487.333 64.9339 483.867 62.1339C481.333 59.8673 478.133 58.6673 475.333 58.6673C472.533 58.6673 469.333 59.8673 466.8 62.1339Z" fill="#C1596C"/>
<path d="M268.666 296.534C234.666 303.068 207.466 317.601 183.2 341.868C161.733 363.201 148.666 386.001 140.4 415.734C137.066 427.734 136.8 430.534 136.8 455.334C136.8 480.134 137.066 482.934 140.4 494.934C148.666 524.668 161.733 547.468 183.2 568.801C204.533 590.268 227.333 603.335 257.066 611.601C269.066 614.935 271.866 615.201 296.666 615.201C321.333 615.201 324.266 614.935 336.4 611.601C365.333 603.868 388.8 590.268 410.133 568.801C431.6 547.468 444.666 524.668 452.933 494.934C456.266 482.934 456.533 480.134 456.533 455.334C456.533 430.534 456.266 427.734 452.933 415.734C444.666 386.001 431.6 363.201 410.133 341.868C388.666 320.401 364.933 306.668 336 299.068C325.333 296.268 319.6 295.601 300.666 295.201C285.466 294.934 274.933 295.334 268.666 296.534ZM332.666 325.868C356.4 332.934 374.533 343.601 391.466 360.534C408.4 377.334 419.066 395.468 426.133 419.334C430.933 435.468 432.133 463.468 428.666 480.134C418.133 532.135 381.333 571.735 330.666 585.601C315.333 589.735 279.333 590.135 264.666 586.135C240.266 579.601 220.8 568.535 203.2 551.335C185.2 533.735 174.8 516.268 167.066 491.334C163.733 480.134 163.466 477.734 163.466 455.334C163.466 432.934 163.733 430.534 167.066 419.334C180.8 374.534 212.4 341.468 254.4 328.001C272.266 322.268 278.266 321.468 300.666 321.868C317.6 322.268 322.533 322.934 332.666 325.868Z" fill="#C1596C"/>
<path d="M288.933 379.2C281.733 381.867 279.6 384.134 270.267 399.467L262 413.2L245.733 417.2C224.933 422.267 218.667 426.934 216.667 438.8C215.2 447.067 218.267 453.467 229.467 466.667L240 478.934L239.2 497.2C238.4 512.534 238.667 516 240.4 519.6C244.933 528.267 256.133 534.4 264.533 532.8C267.067 532.267 274.667 529.467 281.467 526.534C288.4 523.6 295.2 521.067 296.667 521.067C298.133 521.067 304.933 523.6 311.867 526.534C318.667 529.467 326.267 532.267 328.8 532.8C337.2 534.4 348.4 528.267 352.933 519.6C354.667 516 354.933 512.534 354.133 497.334L353.333 479.2L364 466.534C378.4 449.467 380.4 441.067 372.667 429.2C368.8 423.2 363.733 420.8 345.733 416.534L331.333 413.067L323.333 399.734C314.533 385.067 310.4 380.8 302.933 378.667C296.667 376.934 295.2 377.067 288.933 379.2ZM305.2 421.334C309.733 428.667 314.533 435.2 315.867 435.867C317.067 436.534 324.4 438.8 332.133 440.667C339.733 442.667 346.267 444.4 346.533 444.667C346.8 444.934 342.267 450.8 336.667 457.6L326.267 469.867L327.067 486.934C327.6 496.267 327.733 504 327.467 504C327.2 504 321.067 501.6 313.867 498.534C306.667 495.467 298.933 493.067 296.667 493.067C294.533 493.067 286.667 495.6 279.467 498.534C272.133 501.6 266 503.734 265.733 503.467C265.467 503.2 265.733 496.667 266.267 488.934C266.933 481.2 266.933 473.334 266.4 471.334C266 469.467 261.2 462.8 255.867 456.534C250.667 450.4 246.533 445.067 246.8 444.667C247.067 444.4 253.6 442.667 261.333 440.667C269.067 438.8 276.533 436.4 278.133 435.334C279.6 434.4 284.267 427.867 288.533 420.8C292.667 413.734 296.4 408 296.533 408C296.8 408 300.8 414 305.2 421.334Z" fill="#C1596C"/>
</svg>
