<svg width="357" height="377" viewBox="0 0 357 377" fill="none" xmlns="http://www.w3.org/2000/svg">
<path d="M231.309 335.887H310.571" stroke="black" stroke-miterlimit="10"/>
<path d="M14.4269 327.527H212.147" stroke="black" stroke-miterlimit="10"/>
<path d="M324.507 335.367H356.735" stroke="black" stroke-miterlimit="10"/>
<path d="M69.2999 343.207H278.344" stroke="black" stroke-miterlimit="10"/>
<path d="M106.715 220.301C99.4009 221.69 92.1999 225.438 88.3279 231.796C82.1799 241.891 85.8539 255.342 81.3329 266.263C79.0869 271.689 74.9809 276.086 71.5189 280.831C62.6789 292.948 58.0969 310.134 66.0899 322.826C72.1559 332.459 83.7119 336.962 94.6979 339.942C100.694 341.568 106.789 342.931 112.985 343.397C124.915 344.294 136.839 341.848 148.41 338.808C160.211 335.708 172.663 331.413 179.845 321.549C185.626 313.609 187.013 303.188 186.062 293.412C183.862 270.814 170.595 251.011 157.521 232.448C151.279 223.584 145.349 219.967 134.371 219.58C125.417 219.262 115.494 218.633 106.715 220.301Z" fill="white" stroke="black" stroke-miterlimit="10"/>
<path d="M175.015 288.156C168.979 296.054 159.478 300.721 149.762 302.826C140.046 304.931 129.999 304.725 120.06 304.51" fill="white"/>
<path d="M175.015 288.156C168.979 296.054 159.478 300.721 149.762 302.826C140.046 304.931 129.999 304.725 120.06 304.51" stroke="black" stroke-miterlimit="10"/>
<path d="M99.5819 228.516C94.4409 231.644 92.9999 238.364 92.4169 244.353C91.8339 250.346 91.6209 256.4 90.3379 262.282C89.0559 268.165 86.5899 273.979 82.2009 278.1" fill="white"/>
<path d="M99.5819 228.516C94.4409 231.644 92.9999 238.364 92.4169 244.353C91.8339 250.346 91.6209 256.4 90.3379 262.282C89.0559 268.165 86.5899 273.979 82.2009 278.1" stroke="black" stroke-miterlimit="10"/>
<path d="M171.583 267.836C172.711 271.427 173.839 275.017 174.966 278.608Z" fill="white"/>
<path d="M171.583 267.836C172.711 271.427 173.839 275.017 174.966 278.608" stroke="black" stroke-miterlimit="10"/>
<path d="M151.679 223.773C151.569 223.003 151.018 222.932 150.493 223.133C150.105 223.184 149.772 223.505 149.504 223.896C149.47 223.935 149.43 223.969 149.398 224.009C149.434 223.904 149.47 223.798 149.506 223.696C149.623 223.372 149.098 223.148 148.946 223.46C148.547 224.28 148.004 225.403 148.235 226.337C148.265 226.458 148.315 226.567 148.372 226.671C148.337 227.062 148.409 227.422 148.704 227.646C149.065 227.921 149.436 227.889 149.788 227.674C149.956 227.661 150.125 227.583 150.231 227.446C150.436 227.181 150.602 226.898 150.745 226.607C150.784 226.543 150.823 226.478 150.86 226.411C151.213 225.969 151.488 225.44 151.587 224.984C151.623 224.82 151.635 224.629 151.622 224.432C151.678 224.164 151.702 223.931 151.679 223.773Z" fill="white"/>
<path d="M179.914 298.477C181.208 303.641 180.319 309.316 177.507 313.837Z" fill="white"/>
<path d="M179.914 298.477C181.208 303.641 180.319 309.316 177.507 313.837" stroke="black" stroke-miterlimit="10"/>
<path d="M153.366 221.785C153.435 221.731 151.267 219.947 151.102 219.818C149.841 218.832 148.495 218.114 146.891 217.872C146.372 217.794 145.879 217.845 145.363 217.78C144.707 217.699 144.047 217.666 143.387 217.668C142.058 217.672 140.735 217.809 139.414 217.938C139.001 217.978 138.587 218.017 138.172 218.007C137.976 218.002 137.78 217.986 137.585 218.003C137.081 218.045 136.633 218.295 136.152 218.43C135.656 218.569 135.113 218.564 134.602 218.656C133.355 218.878 132.108 219.107 130.857 219.307C129.797 219.477 128.733 219.627 127.664 219.735C126.742 219.828 125.883 219.983 124.959 219.948C123.254 219.884 121.548 219.765 119.844 219.787C118.184 219.808 116.494 220.02 114.991 220.767C113.659 221.429 112.432 222.287 111.328 223.282C111.053 223.53 110.789 223.788 110.522 224.044C111.089 224.786 111.522 225.679 111.872 226.392C112.912 228.51 113.93 230.83 114.244 233.18C114.814 237.441 114.169 241.852 113.106 246.16C113.06 247.216 113.045 248.274 113.042 249.333C113.259 252.116 113.244 254.936 113.286 257.73C113.286 261.493 113.184 263.025 111.556 266.363C109.793 269.976 108.176 273.669 106.487 277.317C106.371 277.568 106.252 277.84 106.307 278.111C106.373 278.441 106.673 278.665 106.957 278.846C110.799 281.308 115.52 281.941 120.079 282.112C126.563 282.354 133.078 281.779 139.419 280.405C142.584 279.719 146.129 278.471 147.293 275.449C147.78 274.184 147.759 272.789 147.731 271.433C147.565 263.34 147.345 255.223 147.475 247.158C145.903 243.366 144.671 239.391 145.075 235.248C145.436 231.55 146.98 227.694 149.609 225.011C150.112 224.498 151.604 223.148 153.366 221.785Z" fill="black"/>
<path d="M123.634 215.248C123.915 215.714 124.249 216.145 124.697 216.447C124.925 216.601 125.178 216.717 125.398 216.881C125.876 217.238 125.817 217.724 125.94 218.255C126.034 218.661 126.131 219.164 125.708 219.409C125.536 219.509 125.336 219.546 125.141 219.579C124.379 219.708 123.608 219.728 122.846 219.833C123.126 220.449 123.511 221.07 123.874 221.647C124.279 222.29 124.747 222.892 125.309 223.405C126.218 224.235 127.64 225.117 128.921 225.117C131.251 225.413 133.612 224.378 135.292 222.788C136.553 221.595 137.336 219.792 137.301 218.049C136.682 218.16 135.833 218.342 135.208 218.207C134.726 218.103 134.601 217.62 134.532 217.18C134.187 214.982 133.777 212.794 133.303 210.62C133.063 209.521 132.807 208.425 132.535 207.333C132.288 206.343 131.912 205.461 131.531 204.515C130.965 203.11 130.235 201.609 128.855 200.986C127.218 200.247 123.772 201.064 122.26 202.095C118.792 204.459 120.877 208.832 122.045 211.858C122.41 212.804 122.827 213.73 123.292 214.63C123.4 214.838 123.513 215.046 123.634 215.248Z" fill="#ED926E"/>
<path d="M109.94 365.545C109.541 362.245 109.142 358.945 108.742 355.646C108.687 355.192 108.314 354.783 107.811 354.937C104.308 356.005 100.775 356.664 97.1899 357.365C96.4469 357.51 96.5629 358.583 97.2099 358.747C97.3749 360.124 97.6439 361.484 97.9019 362.847C98.0699 363.735 98.5639 365.229 97.9519 366.043C97.5639 366.559 96.6249 366.919 96.0959 367.227C93.8759 368.52 91.5299 369.917 89.6099 371.64C88.4939 372.641 87.4489 374.307 88.4739 375.774C89.5029 377.247 91.4789 376.55 92.8859 376.2C95.9359 375.441 98.9729 374.629 101.995 373.767C103.572 373.317 105.145 372.853 106.713 372.375C107.633 372.095 108.964 371.93 109.749 371.346C111.29 370.201 110.13 367.114 109.94 365.545Z" fill="black"/>
<path d="M126.823 360.806C127.564 361.445 128.88 361.705 129.777 362.051C131.307 362.641 132.842 363.217 134.383 363.779C137.335 364.857 140.306 365.884 143.293 366.861C144.671 367.312 146.591 368.149 147.724 366.754C148.852 365.365 147.929 363.628 146.888 362.549C145.096 360.692 142.857 359.13 140.736 357.68C140.231 357.335 139.32 356.908 138.97 356.365C138.419 355.509 139.018 354.055 139.25 353.181C139.605 351.84 139.971 350.503 140.236 349.142C140.893 349.024 141.086 347.963 140.355 347.765C136.829 346.808 133.353 345.896 129.936 344.579C129.445 344.39 129.044 344.771 128.956 345.22C128.32 348.483 127.685 351.745 127.049 355.008C126.748 356.557 125.369 359.553 126.823 360.806Z" fill="black"/>
<path d="M166.823 310.02C166.207 301.619 162.295 293.862 158.458 286.363C156.421 282.382 153.755 277.21 149.387 275.309C145.351 273.552 140.03 276.478 135.901 277.21C127.157 278.761 118.174 278.583 109.36 277.501C101.52 276.538 96.9509 279.117 90.9899 283.481C87.0369 286.375 83.2679 289.533 79.8419 293.035C77.3739 295.558 72.8229 299.052 72.0749 302.699C71.4989 305.506 72.3429 308.389 73.1939 311.126C78.0559 326.748 83.4609 342.201 89.3949 357.448C89.7409 358.337 89.3129 358.675 88.9289 358.804C88.7279 358.872 90.9919 363.027 91.0759 363.239L112.851 357.142L111.98 350.174L110.537 350.82C110.537 350.82 103.649 331.388 100.205 321.672C99.5619 319.859 96.4239 314.199 96.9949 312.437C97.4879 310.917 102.678 308.983 104.107 308.14C109.712 304.834 115.187 301.306 120.513 297.567C121.607 296.799 122.782 296.145 124.044 295.703C127.562 294.471 129.185 295.585 131.358 297.244C133.062 298.546 134.969 299.776 136.805 301.071C140.702 303.82 139.166 305.746 137.732 309.895C136.236 314.223 134.659 318.523 133.004 322.792C131.734 326.067 130.395 329.314 129.11 332.583C128.459 334.239 127.822 335.901 127.215 337.574C126.665 339.092 126.361 340.622 125.86 342.13C125.115 342.22 124.35 342.147 123.635 341.917C123.587 342.372 122.53 345.749 122.124 347.178C124.356 347.997 126.888 348.445 129.115 349.037C131.611 349.701 134.138 350.283 136.625 350.975C139.318 351.725 141.938 352.733 144.604 353.571C145.178 353.751 145.767 353.891 146.357 354.027C146.998 353.198 147.625 352.359 148.213 351.49C148.868 350.523 149.431 349.499 150.055 348.518C149.889 348.494 149.762 348.351 149.657 348.214C149.42 347.903 149.183 347.593 148.946 347.282C148.907 347.231 148.866 347.175 148.868 347.111C148.869 347.066 148.892 347.025 148.913 346.986C151.083 343.08 153.107 338.837 155.717 335.188C157.713 332.397 159.462 329.437 160.735 326.25C162.304 322.323 165.195 318.694 166.339 314.453C166.727 313.021 166.931 311.501 166.823 310.02Z" fill="#C1596C"/>
<path d="M149.593 251.315C149.706 251.748 149.818 252.175 149.927 252.596C150.505 254.842 149.95 257.09 150.372 259.346C150.709 261.147 150.853 263.177 151.613 264.884C152.148 266.087 152.982 267.126 153.731 268.209C153.861 268.396 153.956 268.713 153.746 268.802C153.403 268.947 151.928 266.925 151.635 266.569C150.754 265.499 149.729 264.702 148.583 263.929C148.199 263.67 147.811 263.408 147.378 263.243C145.991 262.713 144.336 262.551 143.149 261.579C142.648 261.169 142.265 260.628 141.763 260.219C140.949 259.555 139.892 259.288 138.925 258.876C137.421 258.236 136.108 257.23 134.765 256.299C134.207 255.912 133.629 255.53 132.976 255.341C131.761 254.988 130.461 255.573 130.21 256.886C130.1 257.461 130.202 258.057 130.365 258.62C130.553 259.269 130.821 259.894 131.162 260.477C132.36 262.527 134.398 263.982 135.603 266.028C135.934 266.589 136.197 267.189 136.54 267.743C137.324 269.012 138.477 269.981 139.588 270.95C140.742 271.956 141.648 273.004 142.57 274.208C144.499 276.728 146.586 279.175 149.087 281.149C150.707 282.428 152.504 283.493 154.457 284.177C156.118 284.759 157.876 285.06 159.636 285.064C161.601 285.068 163.706 284.474 164.505 282.586C165.423 280.417 165.993 278.132 166.118 275.775C166.282 272.68 166.297 269.496 166.149 266.385C166.049 264.284 165.841 262.189 165.633 260.096C165.418 257.927 165.202 255.757 164.987 253.588C164.796 251.668 164.605 249.744 164.215 247.855C163.225 243.064 155.729 225.166 149.544 235.883C146.824 240.59 148.285 246.321 149.593 251.315Z" fill="#ED926E"/>
<path d="M110.437 251.603C110.419 251.696 110.404 251.79 110.391 251.884C110.326 252.373 110.343 252.869 110.361 253.363C110.51 257.354 110.418 262.282 107.676 265.469C107.267 265.944 105.952 266.896 105.834 267.496C105.634 268.516 106.589 267.704 106.956 267.209C107.767 266.116 108.744 265.13 109.916 264.438C110.763 263.939 111.694 263.602 112.573 263.162C116.339 261.277 119.859 258.976 123.617 257.059C124.771 256.47 128.691 253.928 129.097 256.577C129.424 258.714 126.285 261.199 125.06 262.637C124.684 263.079 124.319 263.543 124.095 264.078C123.905 264.53 123.821 265.018 123.69 265.491C122.87 268.458 119.873 270.55 117.746 272.6C115.278 274.978 112.696 277.255 109.845 279.166C107.353 280.836 100.156 285.385 97.0129 283.787C93.9739 282.242 93.6959 274.663 93.7499 271.851C93.8289 267.734 94.6739 263.676 95.2509 259.599C95.9559 254.613 96.2899 249.462 98.3849 244.882C99.3019 242.878 100.504 240.862 102.057 239.285C103.317 238.005 105.123 236.109 106.98 235.951C108.471 235.824 110.003 236.592 110.793 237.862C111.71 239.336 111.599 241.202 111.458 242.933C111.254 245.437 111.231 248.12 110.674 250.568C110.597 250.915 110.502 251.256 110.437 251.603Z" fill="#ED926E"/>
<path d="M162.489 240.816C160.749 234.264 158.439 227.629 154.02 222.523C152.065 224.005 150.325 225.494 149.931 225.929C147.335 228.794 145.938 232.827 145.859 236.648C145.783 240.333 147.018 243.886 148.458 247.261C148.647 247.129 148.863 247.026 149.077 246.935C153.19 245.171 157.402 243.635 161.685 242.336C161.98 242.247 162.3 242.141 162.468 241.883C162.669 241.575 162.584 241.171 162.489 240.816Z" fill="black"/>
<path d="M113.423 237.95C113.636 234.705 113.257 231.949 112.04 228.931C111.66 227.989 110.976 225.888 109.961 224.582C103.833 230.702 99.9589 238.772 96.2359 246.639C101.233 247.639 106.229 248.64 111.226 249.641C112.3 245.809 113.164 241.916 113.423 237.95Z" fill="black"/>
<path d="M130.13 200.717C129.511 200.024 128.693 199.53 127.725 199.395C126.438 199.215 125.112 199.386 123.82 199.38C122.208 199.372 120.726 198.725 119.16 198.683C117.768 198.646 116.435 199.493 116.562 201.042C116.643 202.026 117.376 202.701 117.919 203.471C119.061 205.091 119.73 206.863 119.984 208.831H119.987C119.996 208.893 119.998 208.953 120.008 209.016C120.137 209.777 121.468 209.608 121.369 208.832C121.361 208.77 121.348 208.71 121.34 208.648C121.342 208.648 121.344 208.647 121.344 208.647C121.193 207.76 121.318 206.95 121.635 206.235C124.043 205.842 126.831 202.894 129.243 203.159C129.373 203.217 129.502 203.281 129.626 203.36C130.783 204.091 131.124 205.403 131.468 206.666C131.714 207.567 132.999 207.177 132.845 206.286C132.48 204.176 131.824 201.779 130.13 200.717Z" fill="black"/>
<path d="M133.772 205.477C132.998 204.76 131.397 205.279 130.774 205.984C130.384 206.425 130.229 207.238 130.496 207.699C130.472 208.488 130.982 209.23 131.792 209.412C132.705 209.617 133.939 209.219 134.447 208.407C135.025 207.482 134.52 206.17 133.772 205.477Z" fill="#ED926E"/>
<path d="M122.691 208.611C122.726 208.474 122.691 208.32 122.55 208.251C121.946 207.955 121.287 207.844 120.665 208.173C120.047 208.5 119.715 209.17 119.838 209.856C120.072 211.165 121.444 212.381 122.722 211.477C123.753 210.75 123.551 209.331 122.691 208.611Z" fill="#ED926E"/>
<path d="M127.934 210.907C127.864 210.584 127.45 210.594 127.287 210.823C127.472 210.563 127.036 209.59 126.942 209.327C126.777 208.87 126.6 208.4 126.367 207.974C126.23 207.724 125.867 207.9 125.923 208.161C126.043 208.721 126.246 209.259 126.362 209.821C126.458 210.283 126.421 210.887 126.69 211.291C127.072 211.863 128.101 211.678 127.934 210.907Z" fill="black"/>
<path d="M129.836 212.821C129.69 212.611 129.376 212.583 129.236 212.821C129.23 212.83 129.225 212.84 129.219 212.849C129.208 212.867 129.206 212.886 129.2 212.905C129.09 213.381 128.315 213.79 127.895 213.929C127.34 214.112 126.816 214.057 126.246 214.008C125.985 213.986 125.911 214.362 126.117 214.483C126.86 214.921 127.842 214.787 128.588 214.427C129.014 214.224 130.251 213.419 129.836 212.821Z" fill="black"/>
<path d="M127.534 253.534C127.255 253.499 126.997 253.555 126.756 253.661C125.722 253.817 124.902 255.138 124.343 255.892C123.967 256.398 123.547 256.956 123.693 257.622C123.815 258.178 124.277 258.538 124.849 258.48C125.074 258.457 125.34 258.325 125.384 258.073C125.391 258.031 125.398 257.99 125.405 257.948C125.423 257.844 125.408 257.744 125.37 257.657C125.811 257.485 126.12 256.999 126.359 256.577C126.804 255.792 127.265 255.084 127.914 254.448C128.277 254.091 127.967 253.588 127.534 253.534Z" fill="#ED926E"/>
<path d="M132.087 262.201H127.585C126.663 262.201 125.916 261.454 125.916 260.532V247.321C125.916 246.399 126.663 245.652 127.585 245.652H132.087C133.009 245.652 133.756 246.399 133.756 247.321V260.533C133.755 261.454 133.008 262.201 132.087 262.201Z" fill="white"/>
<path d="M129.435 254.391C130.404 254.274 131.386 254.348 132.359 254.422C133.119 254.48 133.979 254.591 134.423 255.211C134.761 255.684 134.748 256.314 134.722 256.895C134.696 257.466 134.666 258.052 134.437 258.575C133.851 259.915 132.202 260.397 130.744 260.509C129.286 260.621 127.715 260.552 126.495 261.358C126.076 261.635 125.646 262.026 125.15 261.943C124.648 261.858 124.362 261.323 124.23 260.832C123.284 257.308 126.189 254.783 129.435 254.391Z" fill="#ED926E"/>
<path d="M134.525 254.233C134.49 254.186 134.392 254.212 134.419 254.278C135.063 255.812 134.456 258.032 133.668 259.396C133.586 259.538 133.791 259.711 133.903 259.577C134.914 258.374 135.534 255.582 134.525 254.233Z" fill="black"/>
<path d="M129.84 247.074C128.899 247.074 128.897 248.536 129.84 248.536C130.781 248.537 130.783 247.074 129.84 247.074Z" fill="black"/>
<path d="M132.407 206.743C132.122 206.566 131.827 206.965 132.054 207.2C132.212 207.363 132.256 207.561 132.299 207.777C132.322 207.894 132.427 207.976 132.533 208.011C132.595 208.032 132.648 208.021 132.711 208.011C132.859 207.988 132.952 207.823 132.957 207.688C132.975 207.264 132.759 206.961 132.407 206.743Z" fill="black"/>
<path d="M121.297 210.207C121.161 210.025 121.142 209.846 121.238 209.67C121.338 209.388 120.868 209.184 120.75 209.464C120.571 209.886 120.52 210.788 121.247 210.586C121.43 210.536 121.438 210.307 121.297 210.207Z" fill="black"/>
<path d="M90.6599 357.697C97.1699 355.202 103.734 352.847 110.346 350.633" stroke="black" stroke-miterlimit="10"/>
<path d="M148.906 347.491C146.874 345.942 144.372 345.16 141.905 344.494C137.235 343.234 132.481 342.286 127.684 341.66" stroke="black" stroke-miterlimit="10"/>
<path d="M143.745 295.29C141.291 298.917 139.863 303.52 138.576 307.664C138.535 307.795 138.734 307.847 138.779 307.72C140.288 303.499 142.496 299.6 144.13 295.453C144.223 295.219 143.871 295.103 143.745 295.29Z" fill="black"/>
<path d="M93.1349 305.604C92.9669 305.396 92.5989 305.62 92.6859 305.866C93.2809 307.556 94.3269 309.086 95.1059 310.701C96.0909 312.742 96.9669 314.84 97.7209 316.977C97.7789 317.14 98.0359 317.074 97.9839 316.905C96.8439 313.238 95.5829 308.637 93.1349 305.604Z" fill="black"/>
<path d="M163.233 311.014C163.068 310.739 162.627 310.786 162.543 311.104C162.3 312.019 161.75 312.679 160.78 312.882C159.725 313.103 158.685 312.405 158.785 311.275C158.812 310.965 158.312 310.901 158.244 311.202C157.903 312.696 159.178 313.854 160.632 313.769C161.771 313.703 164.066 312.396 163.233 311.014Z" fill="black"/>
<path d="M78.0389 307.47C77.4439 307.663 77.1709 308.229 76.4559 308.203C76.0719 308.189 75.7119 308.012 75.4489 307.733C75.2689 307.542 75.1109 306.931 74.9199 306.868C74.9829 306.84 75.0359 306.795 75.0499 306.719C75.0529 306.701 75.0569 306.683 75.0599 306.664C75.0889 306.503 75.0169 306.38 74.8649 306.321C74.8409 306.312 74.8179 306.303 74.7939 306.293C74.6989 306.256 74.5659 306.298 74.4989 306.371C73.7619 307.171 74.9889 308.561 75.7069 308.868C76.5759 309.24 78.4109 309.001 78.5039 307.824C78.5229 307.591 78.2539 307.401 78.0389 307.47Z" fill="black"/>
<path d="M163.521 277.633C163.491 277.24 162.973 277.165 162.839 277.541C162.531 278.404 162.414 279.427 161.675 280.057C161.023 280.612 159.745 280.644 159.413 279.71C159.287 279.355 158.749 279.493 158.842 279.867C159.129 281.021 160.453 281.482 161.52 281.149C162.902 280.718 163.625 278.971 163.521 277.633Z" fill="black"/>
<path d="M99.2589 279.935C98.6739 279.942 98.1169 280.207 97.5679 279.865C97.0229 279.525 96.8839 278.832 97.0789 278.258C97.2139 277.86 96.6139 277.717 96.4619 278.088C96.1219 278.922 96.3739 279.929 97.0909 280.483C97.7299 280.977 99.0509 281.191 99.4819 280.324C99.5669 280.153 99.4649 279.932 99.2589 279.935Z" fill="black"/>
<path d="M319.533 233.376H191.283C177.693 233.376 166.675 221.598 166.675 207.07L148.956 211.357L166.675 182.005V47.3138C166.675 32.7848 177.692 21.0078 191.283 21.0078H319.533C333.123 21.0078 344.141 32.7858 344.141 47.3138V207.07C344.141 221.598 333.124 233.376 319.533 233.376Z" fill="white" fill-opacity="0.8"/>
<path d="M318.084 228.985H192.034C180.457 228.985 171.072 219.6 171.072 208.023V46.6261C171.072 35.0491 180.457 25.6641 192.034 25.6641H318.084C329.661 25.6641 339.046 35.0491 339.046 46.6261V208.024C339.046 219.6 329.661 228.985 318.084 228.985Z" fill="white" stroke="black" stroke-miterlimit="10"/>
<path d="M302.184 89.9262C304.471 89.6022 306.7 89.0392 308.79 88.0472C315.907 84.6712 317.527 76.0682 317.584 68.9502C317.644 61.4862 317.507 50.7682 311.87 45.3072C308.04 41.5972 302.698 39.7972 297.4 39.1972C292.102 38.5972 286.751 39.0842 281.425 39.3392C276.632 39.5692 271.833 39.6112 267.035 39.6532C248.361 39.8172 229.688 39.9812 211.013 40.1452C204.357 40.2032 197.802 40.1912 191.24 41.4582C184.048 42.8472 181.594 45.9902 180.925 53.5292C180.212 61.5622 175.77 89.2532 186.811 90.5692C199.599 92.0932 212.542 91.1872 225.449 91.0602C248.2 90.8362 270.951 90.6122 293.702 90.3882C296.521 90.3612 299.396 90.3212 302.184 89.9262Z" fill="#C1596C"/>
<path d="M295.471 60.207C294.776 58.573 294.709 56.741 294.159 55.052C293.984 54.513 293.739 53.964 293.283 53.628C292.179 52.815 290.67 53.674 289.466 53.708C288.017 53.749 286.529 54.047 285.299 54.847C283.964 55.715 282.365 57.441 282.408 59.126C282.451 60.806 283.988 62.028 284.658 63.569C285.489 65.483 284.947 67.815 285.523 69.762C285.637 70.147 285.794 70.517 286.015 70.865C287.679 73.498 287.334 76.098 288.411 78.972C289.002 80.55 290.112 82.013 291.677 82.639C293.074 83.198 294.637 83.035 296.141 83.006C301.072 82.912 304.94 85.957 309.982 83.883C313.809 82.309 315.948 78.564 315.155 74.467C314.444 70.794 311.723 68.136 308.07 67.383C306.178 66.993 305.2 66.419 303.559 65.604C300.479 64.076 297.002 63.804 295.471 60.207Z" fill="black"/>
<path d="M283.826 61.5772C284.756 60.5052 286.522 59.8272 287.789 59.7642C289.439 59.6812 291.152 60.4052 291.812 62.0052C292.088 62.6742 292.117 63.4152 292.139 64.1382C292.224 66.8382 292.275 69.5602 292.865 72.1962C293.076 73.1382 293.362 74.0802 293.894 74.8852C294.427 75.6902 295.236 76.3502 296.185 76.5262C295.112 77.8372 293.83 78.9752 292.404 79.8892C291.716 80.3302 290.966 80.6632 290.288 81.1172C289.671 81.5312 289.087 81.9512 288.324 82.0462C287.291 82.1742 286.3 81.4242 285.465 80.9132C284.577 80.3692 283.816 79.6442 283.046 78.9502C282.104 78.1022 281.12 77.2792 279.988 76.7082C281.422 76.0692 282.419 74.6772 282.893 73.1792C283.367 71.6822 283.376 70.0792 283.282 68.5122C283.188 66.9452 282.994 65.3772 283.077 63.8102C283.104 63.2992 283.162 62.7802 283.361 62.3082C283.471 62.0482 283.63 61.8042 283.826 61.5772Z" fill="#ED926E"/>
<path d="M263.1 89.405C263.109 89.475 263.112 89.54 263.122 89.611C263.123 89.615 263.123 89.618 263.124 89.622C263.221 90.277 263.801 90.753 264.463 90.753H281.306H317.656C318.804 90.753 319.564 89.537 319.044 88.513C318.732 87.898 318.393 87.32 318.022 86.776C314.343 81.381 307.888 78.549 301.807 76.845C300.824 76.57 299.834 76.321 298.839 76.096C298.321 75.978 297.791 75.912 297.26 75.914C296.562 75.917 296.117 75.789 295.684 76.263C295.094 76.909 294.664 77.655 293.997 78.26C292.034 80.042 289.868 80.579 287.287 80.277C284.701 79.974 282.298 78.587 280.507 76.733C279.688 75.886 277.928 76.77 276.939 77.05C275.522 77.452 274.114 77.888 272.68 78.227C271.413 78.527 270.124 78.752 268.896 79.184C265.77 80.283 263.129 83.301 262.832 86.659C262.756 87.514 262.818 88.378 262.982 89.219C262.999 89.304 263.048 89.358 263.1 89.405Z" fill="white"/>
<path d="M294.645 61.3416C294.319 61.0436 293.919 60.8556 293.469 60.8556C293.465 60.8556 293.461 60.8566 293.457 60.8566C293.233 56.6396 290.519 53.3066 287.196 53.3066C283.864 53.3066 281.146 56.6566 280.933 60.8886C280.61 60.9536 280.298 61.1146 280.07 61.3426C279.908 61.4926 279.793 61.6706 279.726 61.8766C279.622 62.0746 279.574 62.2876 279.583 62.5166C279.602 62.9456 279.744 63.3916 280.07 63.6906C280.396 63.9886 280.796 64.1766 281.246 64.1766C281.261 64.1766 281.276 64.1726 281.292 64.1716C282.166 67.2936 284.476 69.5296 287.196 69.5296C289.927 69.5296 292.245 67.2756 293.111 64.1326C293.226 64.1596 293.345 64.1756 293.469 64.1756C294.194 64.1756 294.858 63.6816 295.063 62.9876C295.229 62.4296 295.083 61.7426 294.645 61.3416Z" fill="#ED926E"/>
<path d="M293.757 54.2425C293.614 53.9725 293.452 53.7166 293.265 53.4756C292.031 51.8916 289.592 51.0085 287.647 51.3885C286.122 51.6865 284.719 52.5095 283.234 52.9585C281.781 53.3975 280.293 53.6396 279.033 54.5596C278.69 54.8106 278.364 55.0995 278.15 55.4665C277.944 55.8195 277.85 56.2285 277.809 56.6355C277.697 57.7535 277.987 58.9345 278.721 59.7845C279.384 60.5525 280.412 61.0685 281.409 60.8065C282.517 60.5155 283.515 59.9265 284.476 59.3205C285.771 58.5045 287.011 57.5955 288.369 56.8825C289.508 56.2845 291.36 55.5975 292.023 57.1465C292.473 58.1975 292.346 59.4385 292.348 60.5525C292.349 60.7925 292.355 61.0375 292.438 61.2615C292.522 61.4855 292.698 61.6895 292.932 61.7425C293.029 61.7645 293.136 61.7585 293.223 61.7085C293.356 61.6325 293.415 61.4765 293.484 61.3405C293.67 61.0625 293.822 60.8405 294.171 60.7715C294.585 60.6895 294.877 61.0535 295.186 61.2875C295.271 61.3525 295.359 61.4176 295.461 61.4486C295.563 61.4796 295.685 61.4685 295.762 61.3945C295.893 61.2675 295.829 61.0495 295.757 60.8815C295.283 59.7665 295.053 58.6785 294.791 57.5135C294.542 56.3995 294.296 55.2595 293.757 54.2425Z" fill="black"/>
<path d="M288.409 69.2042C287.952 69.1832 287.5 69.2782 287.04 69.2732C286.687 69.2692 286.3 69.1422 285.975 69.3032C285.936 69.3222 285.916 69.3872 285.944 69.4232C286.191 69.7452 286.657 69.7532 287.04 69.7852C287.539 69.8272 288.058 69.8122 288.514 69.5942C288.714 69.4992 288.601 69.2132 288.409 69.2042Z" fill="black"/>
<path d="M289.155 64.7267C289.078 64.5287 288.829 64.4247 288.663 64.5967C288.655 64.6047 288.647 64.6127 288.639 64.6207C288.572 64.6907 288.54 64.7937 288.566 64.8887C288.528 65.5187 287.477 65.8537 287.038 65.8677C286.347 65.8897 285.515 65.6067 285.265 64.8947C285.207 64.7297 284.978 64.7967 285.006 64.9657C285.18 66.0397 286.394 66.5287 287.384 66.4127C287.848 66.3587 288.292 66.1587 288.631 65.8377C288.876 65.6047 289.297 65.0947 289.155 64.7267Z" fill="black"/>
<path d="M287.236 63.487C287.227 63.417 287.192 63.349 287.117 63.33C286.926 63.283 287.013 63.148 287.029 62.956C287.053 62.671 287.082 62.385 287.109 62.1C287.157 61.589 287.244 61.0721 287.167 60.5621C287.143 60.4011 286.922 60.4391 286.877 60.5621C286.62 61.2641 286.631 62.11 286.551 62.849C286.508 63.241 286.446 63.8171 287.002 63.7961C287.121 63.7911 287.263 63.688 287.245 63.553C287.242 63.531 287.239 63.509 287.236 63.487Z" fill="black"/>
<path d="M281.346 62.3624L281.345 62.3604V62.2834C281.535 62.0544 281.246 61.7614 281.018 61.9564C280.822 62.1244 280.76 62.3664 280.849 62.6074C280.969 62.9294 281.462 62.8074 281.372 62.4634C281.364 62.4294 281.355 62.3964 281.346 62.3624Z" fill="black"/>
<path d="M294.178 62.2913C294.226 61.9403 293.693 61.7813 293.635 62.1413C293.581 62.4743 293.636 62.7283 293.963 62.8633C294.079 62.9113 294.207 62.7913 294.205 62.6793C294.203 62.5693 294.165 62.3893 294.178 62.2913Z" fill="black"/>
<path d="M244.153 62.9637C244.168 62.6057 243.956 62.2487 243.525 62.3037C229.513 61.9227 215.325 62.1487 201.317 62.6217C200.876 62.6367 200.875 63.2927 201.317 63.3077C215.325 63.7797 229.513 64.0067 243.525 63.6257C243.956 63.6797 244.168 63.3217 244.153 62.9637Z" fill="white"/>
<path d="M243.968 67.9844C236.836 67.7534 229.666 67.9644 222.529 67.9734C215.484 67.9814 208.083 67.3874 201.09 68.2904C200.65 68.3474 200.649 68.9195 201.09 68.9765C208.084 69.8805 215.483 69.2854 222.529 69.2934C229.665 69.3014 236.835 69.5135 243.968 69.2825C244.816 69.2555 244.783 67.8914 243.968 67.9844Z" fill="white"/>
<path d="M244.174 73.417C240.67 72.953 236.937 73.291 233.403 73.294C229.813 73.298 226.222 73.297 222.632 73.306C215.551 73.323 208.12 72.749 201.09 73.613C200.498 73.686 200.497 74.463 201.09 74.536C208.121 75.4 215.551 74.824 222.632 74.843C226.051 74.852 229.471 74.85 232.89 74.854C236.587 74.858 240.51 75.218 244.174 74.732C245.018 74.62 245.019 73.529 244.174 73.417Z" fill="white"/>
<path d="M237.739 84.3392C237.534 83.4272 236.473 83.1332 235.654 83.1252C234.848 83.1172 233.826 83.3732 233.497 84.1992C233.129 85.1232 233.861 85.9542 234.705 86.2112C234.764 86.2292 234.818 86.2242 234.87 86.2102C235.453 86.3682 236.137 86.3562 236.561 86.2112C237.312 85.9532 237.923 85.1582 237.739 84.3392Z" fill="white"/>
<path d="M244.011 84.3392C243.806 83.4272 242.745 83.1332 241.926 83.1252C241.12 83.1172 240.098 83.3732 239.769 84.1992C239.401 85.1232 240.133 85.9542 240.977 86.2112C241.036 86.2292 241.09 86.2242 241.141 86.2102C241.724 86.3682 242.408 86.3562 242.832 86.2112C243.584 85.9532 244.195 85.1582 244.011 84.3392Z" fill="white"/>
<mask id="mask0_1188_1104" style="mask-type:luminance" maskUnits="userSpaceOnUse" x="262" y="75" width="58" height="16">
<path d="M263.1 89.405C263.109 89.475 263.112 89.54 263.122 89.611C263.123 89.615 263.123 89.618 263.124 89.622C263.221 90.277 263.801 90.753 264.463 90.753H281.306H317.656C318.804 90.753 319.564 89.537 319.044 88.513C318.732 87.898 318.393 87.32 318.022 86.776C314.343 81.381 307.888 78.549 301.807 76.845C300.824 76.57 299.834 76.321 298.839 76.096C298.321 75.978 297.791 75.912 297.26 75.914C296.562 75.917 296.117 75.789 295.684 76.263C295.094 76.909 294.664 77.655 293.997 78.26C292.034 80.042 289.868 80.579 287.287 80.277C284.701 79.974 282.298 78.587 280.507 76.733C279.688 75.886 277.928 76.77 276.939 77.05C275.522 77.452 274.114 77.888 272.68 78.227C271.413 78.527 270.124 78.752 268.896 79.184C265.77 80.283 263.129 83.301 262.832 86.659C262.756 87.514 262.818 88.378 262.982 89.219C262.999 89.304 263.048 89.358 263.1 89.405Z" fill="white"/>
</mask>
<g mask="url(#mask0_1188_1104)">
<path d="M310.054 86.5309C310.146 85.8789 310.217 85.2089 310.025 84.5829C309.816 83.9039 309.203 83.2939 308.494 83.3339C307.995 83.3619 307.56 83.6989 307.256 84.0959C306.952 84.4929 306.746 84.9559 306.478 85.3779C306.037 86.0719 305.415 86.6779 305.191 87.4689C304.978 88.2209 305.158 89.0219 305.339 89.7819C305.476 90.3579 305.502 91.8579 306.107 92.1319C306.331 92.2339 307.084 92.1689 307.366 92.1519C308.828 92.0629 309.468 90.5619 309.653 89.2919C309.779 88.4259 309.905 87.5599 310.031 86.6939C310.039 86.6399 310.047 86.5849 310.054 86.5309Z" fill="black"/>
<path d="M314.098 87.1048C313.792 87.4148 313.489 87.7658 313.42 88.1968C313.329 88.7648 313.694 89.3398 314.198 89.6168C314.702 89.8938 315.313 89.9158 315.879 89.8148C316.445 89.7138 316.984 89.4998 317.533 89.3258C318.129 89.1368 318.748 88.9908 319.292 88.6818C319.836 88.3728 320.309 87.8598 320.381 87.2388C320.514 86.0898 319.091 84.5028 317.908 84.5788C316.552 84.6658 314.993 86.1978 314.098 87.1048Z" fill="black"/>
<path d="M300.653 78.4488C299.953 79.2338 299.071 80.0508 299.11 81.1008C299.138 81.8678 299.675 82.5278 300.286 82.9928C300.859 83.4298 301.62 83.7588 302.29 83.4928C303.008 83.2088 303.324 82.3668 303.426 81.6008C303.528 80.8348 303.508 80.0208 303.885 79.3468C304.186 78.8088 304.703 78.4308 305.103 77.9628C305.448 77.5578 305.708 77.0808 305.861 76.5708C305.99 76.1388 306.025 75.6228 305.729 75.2838C305.533 75.0598 305.234 74.9618 304.947 74.8828C303.938 74.6058 302.804 74.4418 302.346 75.5338C301.889 76.6258 301.461 77.5428 300.653 78.4488Z" fill="black"/>
<path d="M296.689 86.9838C297.491 86.4968 298.502 86.5778 299.411 86.3508C300.018 86.1988 300.588 85.9068 301.207 85.8098C301.825 85.7128 302.551 85.8738 302.866 86.4148C303.203 86.9968 302.927 87.7478 302.524 88.2858C302.121 88.8238 301.589 89.2838 301.341 89.9088C301.112 90.4868 301.153 91.1458 300.919 91.7218C300.599 92.5098 299.799 93.0218 298.971 93.2178C297.448 93.5788 295.473 93.5668 295.285 91.7038C295.132 90.1868 295.216 87.8778 296.689 86.9838Z" fill="black"/>
<path d="M288.9 82.8233C288.363 83.0223 287.814 83.2293 287.375 83.5973C286.936 83.9653 286.62 84.5333 286.707 85.0993C286.771 85.5173 287.038 85.8723 287.304 86.2013C287.662 86.6443 288.063 87.0963 288.606 87.2673C289.218 87.4593 289.883 87.2513 290.455 86.9613C291.027 86.6713 291.563 86.2953 292.179 86.1193C293.189 85.8303 294.41 86.0683 295.189 85.3643C295.68 84.9193 295.84 84.1703 295.645 83.5373C294.75 80.6483 290.798 82.1183 288.9 82.8233Z" fill="black"/>
<path d="M283.648 92.8568C284.733 92.2358 285.281 90.8668 285.151 89.6468C284.951 87.7728 283.924 85.5218 282.173 84.6488C281.773 84.4488 281.317 84.3178 280.879 84.4038C280.002 84.5758 279.504 85.5508 279.455 86.4428C279.406 87.3348 279.672 88.2158 279.702 89.1088C279.74 90.2348 279.44 91.5048 280.14 92.3878C280.385 92.6968 280.731 92.9158 281.099 93.0558C281.921 93.3698 282.883 93.2948 283.648 92.8568Z" fill="black"/>
<path d="M278.206 76.4828C277.504 77.5618 277.176 78.8788 277.292 80.1608C277.348 80.7778 277.654 81.5198 278.273 81.5448C278.526 81.5548 278.764 81.4338 278.984 81.3078C279.968 80.7438 280.856 80.0128 281.598 79.1558C281.892 78.8158 282.168 78.4498 282.331 78.0308C282.64 77.2398 282.522 76.3518 282.346 75.5208C282.168 74.6818 281.417 72.7508 280.194 73.4698C279.819 73.6898 279.675 74.2808 279.479 74.6368C279.118 75.2958 278.615 75.8548 278.206 76.4828Z" fill="black"/>
<path d="M274.855 81.9524C274.562 81.6894 274.218 81.4724 273.834 81.3834C273.159 81.2264 272.454 81.4804 271.855 81.8264C271.223 82.1914 270.653 82.6644 270.177 83.2184C269.896 83.5454 269.644 83.9094 269.537 84.3274C269.43 84.7444 269.49 85.2224 269.776 85.5444C270.03 85.8304 270.416 85.9534 270.784 86.0564C271.818 86.3434 272.898 86.5734 273.78 87.1834C274.134 87.4284 274.448 87.7294 274.818 87.9484C275.188 88.1674 275.642 88.3004 276.05 88.1654C276.631 87.9734 276.932 87.2914 276.885 86.6804C276.815 85.7464 276.113 85.0514 275.941 84.1574C275.774 83.2814 275.552 82.5794 274.855 81.9524Z" fill="black"/>
<path d="M265.482 85.9799C266.045 85.9569 266.63 86.048 267.101 86.356C267.522 86.631 267.823 87.0619 268.023 87.5239C268.522 88.6729 268.408 90.0809 267.687 91.1049C266.966 92.1299 265.647 92.7149 264.411 92.5109C264.033 92.4489 263.658 92.3179 263.277 92.3549C262.76 92.4049 262.303 92.7559 261.784 92.7759C259.839 92.8479 259.742 89.5269 260.63 88.3979C261.643 87.1089 263.884 86.0449 265.482 85.9799Z" fill="black"/>
<path d="M266.373 82.0448C266.443 82.2148 266.522 82.3898 266.667 82.5038C266.947 82.7238 267.356 82.6328 267.684 82.4928C268.011 82.3518 268.352 82.1668 268.703 82.2318C268.874 82.2638 269.072 82.3468 269.203 82.2328C269.248 82.1938 269.274 82.1368 269.298 82.0818C269.737 81.0838 270.033 79.9678 269.787 78.9058C269.416 77.3008 267.394 76.1618 265.937 77.3108C264.795 78.2128 265.951 81.0198 266.373 82.0448Z" fill="black"/>
</g>
<path d="M166.608 87.3994C166.677 87.4054 167.523 87.6664 167.504 87.4724C167.361 85.9824 167.217 84.4934 167.074 83.0034C167.034 82.5864 166.861 80.9254 167.776 81.3864C168.168 81.5834 168.41 82.2594 168.49 82.6604C168.625 83.3354 168.603 84.0184 168.68 84.6984C168.776 85.5434 168.847 86.3894 168.932 87.2354C168.997 87.8774 168.86 88.7884 169.156 89.3634C169.367 89.7734 169.956 90.0184 170.305 89.7164C170.423 89.6144 170.495 89.4694 170.558 89.3264C170.774 88.8414 170.938 88.3354 171.114 87.8354C171.231 87.5024 171.367 87.1544 171.644 86.9374C171.921 86.7194 172.386 86.7014 172.587 86.9914C172.74 87.2124 172.688 87.5114 172.628 87.7734C172.277 89.3034 171.874 90.8224 171.42 92.3244C171.117 93.3294 170.786 94.3354 170.255 95.2404C170.008 95.6624 169.715 96.0644 169.55 96.5244C169.379 97.0014 169.352 97.5184 169.228 98.0094C168.943 99.1384 168.055 99.5014 166.995 99.0664C165.085 99.1994 163.903 96.6754 163.472 95.1054C162.56 91.7824 161.533 87.8104 161.72 84.3444C161.74 83.9784 162.22 83.9394 162.337 84.2704C162.571 84.9314 162.755 85.6094 162.911 86.2924C163.064 86.9604 163.102 87.7224 163.33 88.3624C163.57 88.2604 163.604 87.9474 163.569 87.7144C163.407 86.6304 163.245 85.5454 163.083 84.4614C162.953 83.5944 162.834 82.7134 163.054 81.8514C163.129 81.5584 163.231 81.3034 163.579 81.3064C163.862 81.3084 164.101 81.5204 164.126 81.8034C164.296 83.7214 164.573 85.6174 164.936 87.5064C165.053 87.4874 165.17 87.4704 165.305 87.4534C164.961 85.0974 164.731 82.7194 164.538 80.3554C164.486 79.7174 165.58 79.5744 165.665 80.2204C165.98 82.6134 166.294 85.0064 166.608 87.3994Z" fill="#ED926E"/>
<path d="M326.482 144.723C328.104 143.728 329.438 142.37 330.305 140.506C331.504 137.927 331.849 135.039 332.004 132.199C332.372 125.497 331.805 118.318 330.58 111.749C329.915 108.182 326.972 105.373 323.646 103.923C316.377 100.752 307.201 101.996 299.484 101.966C290.642 101.932 281.8 101.931 272.957 101.964C262.029 102.005 251.1 102.097 240.173 102.241C234.709 102.313 229.242 102.467 223.778 102.495C218.582 102.522 213.676 100.551 208.362 101.153C203.731 101.678 199.078 103.857 196.596 107.802C194.891 110.512 194.35 113.77 193.844 116.932C193.28 120.455 192.714 124.019 192.999 127.576C193.955 139.513 204.043 147.551 215.68 147.819C221.378 147.95 227.076 148.081 232.774 148.212C258.305 148.8 283.907 149.064 309.398 147.712C314.557 147.437 321.746 147.629 326.482 144.723Z" fill="#625FD0"/>
<path d="M297.44 119.2C297.454 118.857 297.251 118.514 296.838 118.567C283.411 118.202 269.814 118.419 256.39 118.872C255.967 118.886 255.966 119.515 256.39 119.53C269.813 119.983 283.411 120.2 296.838 119.834C297.251 119.887 297.454 119.543 297.44 119.2Z" fill="white"/>
<path d="M297.263 124.012C290.428 123.791 283.557 123.993 276.718 124.001C269.967 124.009 262.875 123.439 256.173 124.305C255.751 124.36 255.75 124.908 256.173 124.963C262.875 125.829 269.966 125.259 276.718 125.267C283.557 125.275 290.428 125.477 297.263 125.256C298.075 125.23 298.044 123.923 297.263 124.012Z" fill="white"/>
<path d="M297.46 129.218C294.102 128.773 290.525 129.097 287.138 129.1C283.697 129.104 280.257 129.103 276.816 129.111C270.031 129.128 262.909 128.577 256.172 129.405C255.605 129.475 255.603 130.22 256.172 130.29C262.909 131.118 270.03 130.566 276.816 130.584C280.093 130.593 283.369 130.591 286.646 130.595C290.189 130.599 293.948 130.943 297.459 130.478C298.268 130.372 298.27 129.326 297.46 129.218Z" fill="white"/>
<path d="M291.293 139.685C291.097 138.811 290.08 138.529 289.295 138.522C288.523 138.515 287.543 138.759 287.228 139.551C286.875 140.436 287.577 141.233 288.385 141.479C288.441 141.496 288.494 141.491 288.543 141.478C289.101 141.629 289.757 141.618 290.164 141.478C290.884 141.232 291.469 140.47 291.293 139.685Z" fill="white"/>
<path d="M297.303 139.685C297.107 138.811 296.09 138.529 295.305 138.522C294.533 138.515 293.553 138.759 293.237 139.551C292.884 140.436 293.586 141.233 294.394 141.479C294.45 141.496 294.503 141.491 294.552 141.478C295.11 141.629 295.766 141.618 296.173 141.478C296.895 141.232 297.48 140.47 297.303 139.685Z" fill="white"/>
<path d="M283.057 138.654C282.166 138.557 280.74 138.977 280.43 139.948C280.284 140.405 280.513 141.067 280.906 141.471C280.923 141.488 280.944 141.501 280.962 141.517C281.114 141.659 281.285 141.762 281.469 141.803C281.97 141.982 282.583 142.002 283.035 142C283.983 141.996 285.35 141.661 285.278 140.437C285.216 139.391 283.969 138.753 283.057 138.654Z" fill="white"/>
<path d="M207.523 129.253C208.855 129.188 210.174 129.033 211.386 128.92C212.579 128.808 213.772 128.662 214.969 128.688C216.585 128.724 218.211 129.074 219.805 128.804C221.078 128.588 222.28 127.968 223.195 127.056C223.981 126.271 224.566 125.232 224.601 124.122C224.633 123.128 224.227 122.165 223.681 121.334C223.135 120.503 222.45 119.774 221.835 118.992C220.615 117.441 219.673 115.673 219.065 113.796C218.477 111.981 218.193 109.948 217.042 108.373C216.057 107.024 214.237 106.614 212.652 106.558C210.831 106.494 208.876 106.759 207.32 107.772C205.099 109.217 204.088 111.582 203.557 114.105C203.306 115.298 203.367 116.517 202.986 117.669C202.582 118.894 202.002 120.061 201.269 121.122C200.799 121.803 200.261 122.449 199.938 123.211C199.541 124.148 199.499 125.23 199.823 126.194C200.881 129.334 204.764 129.388 207.523 129.253Z" fill="black"/>
<path d="M205.363 114.46C206.48 113.432 208.634 113.179 209.985 113.043C212.54 112.785 214.857 113.842 215.213 116.58C215.449 118.39 215.281 120.321 215.378 122.154C215.482 124.117 215.65 126.077 215.882 128.03C215.952 128.618 216.053 129.255 216.486 129.658C216.826 129.975 217.305 130.08 217.741 130.241C219.036 130.717 219.105 132.173 218.664 133.315C218.151 134.645 217.394 135.944 216.201 136.725C214.577 137.788 212.459 137.7 210.562 137.291C208.472 136.84 206.459 136.04 204.623 134.943C203.702 134.393 202.816 133.745 201.988 133.066C201.615 132.76 200.556 132.069 200.454 131.594C200.257 130.67 201.754 130.887 202.253 130.854C202.67 130.827 203.069 130.677 203.455 130.514C203.981 130.291 204.524 130.011 204.812 129.518C205.027 129.149 205.071 128.708 205.105 128.282C205.293 125.911 205.314 123.526 205.17 121.152C205.1 120.001 205.091 118.744 204.829 117.618C204.622 116.73 204.416 116.189 204.795 115.259C204.921 114.95 205.117 114.686 205.363 114.46Z" fill="#ED926E"/>
<path d="M237.395 140.158C237.38 140.136 237.365 140.114 237.35 140.092C235.241 137 232.08 134.929 228.665 133.519C226.948 132.811 225.174 132.254 223.388 131.749C222.499 131.498 221.606 131.261 220.712 131.025C219.916 130.815 218.899 130.366 218.101 130.379C218.265 131.135 217.218 132.105 216.723 132.572C214.549 134.624 211.356 135.415 208.398 134.979C205.387 134.535 202.782 132.932 200.57 130.911C200.044 130.49 197.31 130.686 196.529 130.543C195.068 130.275 193.629 129.89 192.213 129.442C189.411 128.555 186.86 127.293 184.014 126.431C183.14 126.166 182.248 125.893 181.506 125.361C180.887 124.918 180.402 124.316 179.953 123.702C178.055 121.108 176.676 118.176 175.597 115.158C174.688 112.617 174.286 108.821 172.518 106.725C172.327 106.499 172.112 106.285 171.991 106.015C171.907 105.826 171.873 105.619 171.841 105.415C171.42 102.776 171.21 99.9692 170.665 97.3262C169.74 97.5032 168.811 97.6552 167.88 97.7892C166.628 98.0162 165.292 98.2042 164.194 98.1592C163.814 98.1792 163.434 98.2062 163.053 98.2122C162.573 101.502 162.866 105.288 163.027 108.541C163.131 110.639 163.345 112.73 163.421 114.829C163.48 116.456 163.457 118.089 163.663 119.703C163.886 121.451 164.376 123.153 164.865 124.846C165.236 126.132 165.607 127.419 165.978 128.705C168.659 138.005 178.59 143.913 187.228 146.808C191.079 148.099 196.449 147.404 200.498 147.404H225.641C226.114 147.404 229.965 147.28 233.589 147.225C237.186 147.172 239.406 143.142 237.395 140.158Z" fill="black"/>
<path d="M209.348 123.457C213.055 123.457 216.06 119.577 216.06 114.791C216.06 110.005 213.055 106.125 209.348 106.125C205.641 106.125 202.636 110.005 202.636 114.791C202.636 119.577 205.641 123.457 209.348 123.457Z" fill="#ED926E"/>
<path d="M204.249 114.708C203.901 114.389 203.474 114.188 202.992 114.188C202.536 114.188 202.057 114.386 201.735 114.708C201.562 114.869 201.439 115.059 201.368 115.279C201.257 115.49 201.206 115.718 201.215 115.962C201.236 116.421 201.387 116.895 201.736 117.215C202.084 117.533 202.511 117.734 202.993 117.734C203.449 117.734 203.928 117.536 204.25 117.215C204.423 117.054 204.546 116.865 204.617 116.645C204.728 116.434 204.779 116.206 204.77 115.962C204.749 115.504 204.598 115.028 204.249 114.708Z" fill="#ED926E"/>
<path d="M217.306 114.708C216.958 114.389 216.531 114.188 216.049 114.188C215.593 114.188 215.114 114.386 214.792 114.708C214.619 114.869 214.496 115.059 214.425 115.279C214.314 115.49 214.263 115.718 214.272 115.962C214.293 116.421 214.444 116.895 214.793 117.215C215.141 117.533 215.568 117.734 216.05 117.734C216.506 117.734 216.984 117.536 217.307 117.215C217.48 117.054 217.603 116.865 217.674 116.645C217.785 116.434 217.836 116.206 217.827 115.962C217.806 115.504 217.655 115.028 217.306 114.708Z" fill="#ED926E"/>
<path d="M216.852 106.887C216.694 106.549 216.535 106.222 216.384 105.909C215.748 104.592 214.866 103.558 213.507 102.954C213.019 102.737 212.509 102.561 211.981 102.482C210.308 102.231 208.648 102.96 207.184 103.808C205.72 104.656 204.296 105.656 202.647 106.032C202.111 106.154 201.559 106.208 201.039 106.385C199.823 106.798 199.573 107.791 199.637 108.979C199.65 109.215 199.677 109.45 199.718 109.683C199.975 111.138 200.773 112.492 201.917 113.425C202.245 113.693 202.466 113.848 202.892 113.87C203.348 113.894 203.806 113.887 204.262 113.853C205.157 113.787 206.044 113.617 206.908 113.376C208.337 112.977 209.705 112.385 211.038 111.733C211.632 111.443 212.222 111.139 212.843 110.912C213.238 110.767 213.686 110.656 214.071 110.827C214.254 110.908 214.404 111.046 214.551 111.182C214.778 111.391 215.146 111.624 215.284 111.904C215.404 112.147 215.44 112.492 215.5 112.756C215.559 113.014 215.618 113.273 215.677 113.531C215.716 113.701 215.758 113.879 215.872 114.01C216.283 114.484 217.056 114.099 217.337 113.696C218.798 111.605 217.854 109.033 216.852 106.887Z" fill="black"/>
<path d="M211.091 117.911C211.075 117.934 211.059 117.958 211.043 117.981C211.023 118.01 211.026 118.043 211.019 118.074C210.463 119.665 208.542 119.816 207.51 118.557C207.388 118.409 207.182 118.597 207.258 118.751C208.267 120.794 211.151 120.27 211.718 118.175C211.824 117.785 211.306 117.6 211.091 117.911Z" fill="black"/>
<path d="M210.383 122.991C210.153 123.13 209.939 123.269 209.666 123.307C209.318 123.356 208.965 123.242 208.634 123.147C208.416 123.084 208.269 123.412 208.477 123.519C209.185 123.886 210.404 124.325 210.81 123.319C210.907 123.077 210.584 122.869 210.383 122.991Z" fill="black"/>
<path d="M209.481 116.657C209.39 116.574 209.314 116.57 209.22 116.515C208.978 116.376 209.029 116.362 209.024 116.144C209.02 115.994 209.093 115.816 209.117 115.668C209.196 115.166 209.174 114.663 209.138 114.157C209.125 113.978 208.865 113.975 208.857 114.157C208.835 114.658 208.737 115.145 208.62 115.631C208.554 115.905 208.359 116.255 208.415 116.548C208.499 116.987 209.178 117.265 209.482 116.902C209.539 116.833 209.555 116.725 209.481 116.657Z" fill="black"/>
<path d="M216.836 115.624C216.779 115.316 216.328 115.452 216.372 115.752C216.394 115.901 216.41 115.935 216.474 116.069C216.571 116.272 216.833 116.144 216.854 115.966C216.872 115.814 216.864 115.774 216.836 115.624Z" fill="black"/>
<path d="M202.478 115.827C202.44 115.41 201.84 115.483 201.907 115.904C201.937 116.09 201.975 116.199 202.089 116.342C202.167 116.439 202.358 116.413 202.409 116.301C202.487 116.132 202.495 116.015 202.478 115.827Z" fill="black"/>
<path d="M319.392 178.137C318.813 174.229 319.051 169.889 317.151 166.346C316.034 164.263 314.486 161.689 312.387 160.488C309.858 159.042 306.897 158.597 304.008 158.218C287.48 156.051 271.159 156.347 254.605 155.744C237.654 155.127 220.581 155.805 203.669 157.018C202.789 157.081 201.909 157.146 201.029 157.214C198.077 157.44 195.072 157.701 192.332 158.823C187.506 160.799 184.044 165.282 182.198 170.159C180.352 175.036 179.929 180.322 179.69 185.531C179.183 196.565 190.079 201.974 199.956 202.197C205.778 202.328 211.601 202.459 217.424 202.591C243.513 203.179 269.674 203.443 295.722 202.091C300.02 201.868 304.136 201.163 308.38 200.617C310.236 200.379 311.895 200.353 313.402 199.913C314.802 199.504 316.07 198.737 317.241 197.109C321.098 191.746 320.302 184.28 319.392 178.137Z" fill="#4D4675"/>
<path d="M281.514 171.65C283.794 169.231 288.385 168.699 289.88 172.277C290.27 173.211 290.32 174.246 290.378 175.257C290.539 178.063 290.825 180.95 292.142 183.433C292.464 184.04 292.849 184.626 293.026 185.291C293.49 187.038 292.361 187.731 291.167 188.555C290.562 188.973 290.028 189.489 289.493 189.99C287.546 191.815 286.442 192.517 283.811 191.669C281.764 191.009 279.903 189.764 278.534 188.103C278.032 187.494 277.572 186.73 277.745 185.96C277.86 185.446 278.236 185.039 278.564 184.626C279.785 183.085 280.477 181.132 280.499 179.166C280.515 177.649 280.147 176.145 280.204 174.629C280.247 173.479 280.751 172.459 281.514 171.65Z" fill="#ED926E"/>
<path d="M262.214 197.925C262.348 199.885 262.892 202.096 264.424 202.534C266.123 203.02 267.915 203.046 269.682 203.037C281.253 202.982 292.807 201.605 304.37 202.025C306 202.084 307.634 202.179 309.261 202.066C310.262 201.996 311.257 201.848 312.249 201.698C313.046 201.578 313.894 201.433 314.489 200.889C315.299 200.149 315.383 198.855 314.983 197.834C314.272 196.016 312.435 193.958 311.016 192.64C309.423 191.161 307.579 189.966 305.644 188.982C303.777 188.033 301.816 187.278 299.82 186.652C298.704 186.302 297.575 185.994 296.438 185.72C295.723 185.547 293.736 184.726 293.073 185.053C292.779 185.198 292.584 185.482 292.388 185.745C290.712 187.989 287.936 189.37 285.136 189.352C282.335 189.334 279.577 187.918 277.93 185.652C277.624 185.23 272.591 186.673 271.953 186.836C269.981 187.339 267.901 187.967 266.146 189.024C263.827 190.419 262.503 192.844 262.237 195.5C262.18 196.1 262.15 196.984 262.214 197.925Z" fill="black"/>
<path d="M291.182 171.421C291.182 175.954 288.335 179.629 284.824 179.629C281.312 179.629 278.466 175.954 278.466 171.421C278.466 166.888 281.313 163.213 284.824 163.213C288.335 163.213 291.182 166.888 291.182 171.421Z" fill="#ED926E"/>
<path d="M279.993 171.344C279.664 171.042 279.259 170.852 278.803 170.852C278.371 170.852 277.918 171.039 277.613 171.344C277.449 171.496 277.333 171.676 277.265 171.885C277.16 172.085 277.111 172.301 277.12 172.532C277.14 172.966 277.283 173.417 277.613 173.72C277.942 174.022 278.347 174.212 278.803 174.212C279.235 174.212 279.688 174.025 279.993 173.72C280.157 173.568 280.273 173.388 280.341 173.179C280.446 172.979 280.495 172.763 280.486 172.532C280.467 172.097 280.324 171.647 279.993 171.344Z" fill="#ED926E"/>
<path d="M292.362 171.344C292.033 171.042 291.628 170.852 291.172 170.852C290.74 170.852 290.287 171.039 289.982 171.344C289.818 171.496 289.702 171.676 289.634 171.885C289.529 172.085 289.48 172.301 289.489 172.532C289.509 172.966 289.652 173.417 289.982 173.72C290.311 174.022 290.716 174.212 291.172 174.212C291.905 174.212 292.577 173.712 292.785 173.01C292.952 172.445 292.805 171.75 292.362 171.344Z" fill="#ED926E"/>
<path d="M292.089 164.435C292.081 164.291 292.073 164.147 292.065 164.002C292.029 163.358 291.99 162.698 291.737 162.104C290.833 159.979 289.483 160.943 287.817 160.296C287.157 160.04 286.743 159.479 286.07 159.237C285.233 158.936 284.354 158.775 283.463 158.79C281.346 158.825 281.318 160.114 280.427 161.638C280.026 162.323 279.287 162.736 278.784 163.351C277.779 164.578 277.884 166.342 278.04 167.92C278.118 168.71 277.974 170.85 279.179 171.03C280.247 171.189 279.942 169.365 280.172 168.561C280.234 168.346 280.3 168.128 280.418 167.938C281.152 166.754 283.172 166.679 284.388 166.636C285.976 166.58 288.01 166.085 289.389 167.003C290.029 167.429 290.362 168.199 290.492 168.958C290.492 169.583 290.459 170.2 290.417 170.826C290.411 170.909 290.412 171.007 290.478 171.059C290.514 171.087 290.561 171.094 290.606 171.1C292.797 171.397 292.345 169.036 292.26 167.504C292.203 166.481 292.146 165.458 292.089 164.435Z" fill="black"/>
<path d="M286.05 179.3C285.587 179.278 285.13 179.375 284.665 179.37C284.308 179.366 283.916 179.237 283.588 179.401C283.549 179.42 283.528 179.486 283.556 179.522C283.806 179.848 284.278 179.856 284.665 179.889C285.17 179.932 285.695 179.917 286.157 179.696C286.359 179.599 286.245 179.309 286.05 179.3Z" fill="black"/>
<path d="M284.864 173.513C284.855 173.442 284.819 173.373 284.743 173.354C284.549 173.307 284.637 173.17 284.654 172.975C284.678 172.686 284.708 172.398 284.735 172.109C284.783 171.592 284.871 171.069 284.794 170.553C284.77 170.39 284.547 170.429 284.501 170.553C284.241 171.264 284.252 172.119 284.171 172.867C284.128 173.264 284.065 173.846 284.627 173.825C284.747 173.82 284.891 173.715 284.873 173.579C284.87 173.557 284.867 173.536 284.864 173.513Z" fill="black"/>
<path d="M278.904 172.378L278.903 172.376V172.298C279.095 172.066 278.803 171.77 278.572 171.967C278.373 172.136 278.311 172.382 278.401 172.626C278.522 172.952 279.021 172.828 278.931 172.48C278.922 172.446 278.913 172.412 278.904 172.378Z" fill="black"/>
<path d="M291.889 172.307C291.938 171.952 291.399 171.791 291.34 172.156C291.286 172.493 291.341 172.75 291.672 172.887C291.789 172.935 291.919 172.814 291.916 172.701C291.913 172.587 291.876 172.405 291.889 172.307Z" fill="black"/>
<path d="M286.395 175.773C285.868 175.897 285.37 176.031 284.821 176.027C284.269 176.023 283.774 175.875 283.242 175.758C283.003 175.705 282.858 176.024 283.074 176.157C284.082 176.78 285.566 176.813 286.642 176.358C286.986 176.212 286.733 175.693 286.395 175.773Z" fill="black"/>
<path d="M252.336 174.524C252.351 174.167 252.139 173.809 251.708 173.864C237.696 173.483 223.508 173.709 209.5 174.182C209.059 174.197 209.058 174.853 209.5 174.868C223.508 175.34 237.696 175.567 251.708 175.186C252.139 175.24 252.351 174.882 252.336 174.524Z" fill="white"/>
<path d="M252.151 179.545C245.019 179.314 237.849 179.525 230.712 179.534C223.667 179.542 216.266 178.948 209.273 179.851C208.833 179.908 208.832 180.48 209.273 180.537C216.267 181.441 223.666 180.846 230.712 180.854C237.848 180.862 245.018 181.074 252.151 180.843C252.999 180.816 252.966 179.452 252.151 179.545Z" fill="white"/>
<path d="M252.357 184.978C248.853 184.514 245.12 184.852 241.586 184.855C237.996 184.859 234.405 184.858 230.815 184.867C223.735 184.884 216.303 184.31 209.273 185.174C208.681 185.247 208.68 186.024 209.273 186.097C216.304 186.961 223.733 186.385 230.815 186.404C234.234 186.413 237.654 186.411 241.073 186.415C244.77 186.419 248.692 186.779 252.357 186.293C253.2 186.181 253.202 185.09 252.357 184.978Z" fill="white"/>
<path d="M245.921 195.9C245.716 194.988 244.655 194.694 243.836 194.686C243.03 194.679 242.008 194.934 241.679 195.76C241.311 196.684 242.043 197.516 242.887 197.772C242.946 197.79 243 197.785 243.052 197.771C243.635 197.929 244.319 197.917 244.743 197.771C245.495 197.514 246.105 196.719 245.921 195.9Z" fill="white"/>
<path d="M252.193 195.9C251.988 194.988 250.927 194.694 250.108 194.686C249.302 194.679 248.28 194.934 247.951 195.76C247.583 196.684 248.315 197.516 249.159 197.772C249.218 197.79 249.272 197.785 249.324 197.771C249.907 197.929 250.591 197.917 251.015 197.771C251.767 197.514 252.377 196.719 252.193 195.9Z" fill="white"/>
<path d="M237.327 194.825C236.397 194.724 234.91 195.163 234.586 196.175C234.433 196.652 234.672 197.343 235.083 197.764C235.101 197.782 235.123 197.795 235.142 197.812C235.3 197.96 235.479 198.068 235.671 198.11C236.193 198.297 236.833 198.317 237.305 198.315C238.294 198.311 239.721 197.961 239.645 196.684C239.58 195.594 238.279 194.928 237.327 194.825Z" fill="white"/>
<path d="M8.35592 287.578C9.25292 285.101 11.1469 283.041 11.7969 280.488C12.7739 276.646 10.7689 272.343 12.3699 268.716C13.3899 266.407 15.6869 264.875 16.8019 262.611C18.1349 259.906 17.5589 256.704 17.7619 253.696C18.0519 249.392 20.0739 245.229 23.2779 242.341C24.3119 241.409 25.5239 240.582 26.9049 240.408C29.8149 240.043 32.3489 242.798 32.9029 245.677C33.4569 248.557 32.5969 251.494 31.8879 254.339C31.1789 257.184 30.6309 260.271 31.7549 262.98C33.3809 266.901 38.2779 269.532 37.9889 273.767C37.8149 276.306 35.7469 278.268 34.7799 280.622C33.4679 283.814 34.2659 287.459 33.7329 290.868C33.1509 294.588 30.8819 298.011 27.6819 299.996C19.5559 305.037 4.28592 298.815 8.35592 287.578Z" fill="#C1596C"/>
<path d="M4.64091 291.952C4.19391 289.862 4.22192 287.731 4.03592 285.61C3.82492 283.203 3.70391 280.778 3.91691 278.366C4.06491 276.692 4.37191 275.033 4.48491 273.357C4.71491 269.962 4.13692 266.514 2.81192 263.38C1.92892 261.291 0.711916 259.317 0.232916 257.1C-0.338084 254.462 0.195915 251.682 1.23491 249.191C1.90691 247.58 2.78792 246.054 3.34192 244.399C4.82292 239.972 3.83391 235.153 3.84791 230.484C3.85391 228.698 4.02291 226.862 4.82091 225.265C5.37591 224.155 6.46792 223.101 7.68992 223.317C8.97692 223.545 9.68492 225.111 10.2619 226.128C11.0769 227.567 11.4219 229.367 11.6989 230.986C12.2729 234.343 12.2239 237.776 11.9939 241.163C11.6219 246.65 10.2049 251.387 12.8239 256.706C13.5469 258.175 14.4749 259.543 15.0949 261.058C15.9969 263.263 16.2069 265.746 15.6899 268.071C15.2659 269.977 14.3629 271.833 14.5279 273.779C14.7469 276.348 16.7369 278.347 18.1259 280.519C21.1389 285.23 21.4219 291.135 21.0379 296.559C20.7669 300.391 18.0729 306.04 13.1799 303.894C8.82091 301.983 5.58491 296.369 4.64091 291.952Z" fill="black"/>
<path d="M11.9449 283.658C10.6789 275.767 9.85591 267.813 9.39291 259.836C9.37791 259.575 8.97291 259.572 8.98491 259.836C9.32391 267.588 10.0869 275.307 11.2609 282.978C12.4609 290.817 13.8289 298.914 16.3089 306.463C16.3879 306.705 16.7409 306.607 16.6899 306.358C15.1229 298.772 13.1729 291.318 11.9449 283.658Z" fill="white"/>
<path d="M3.14893 296.62C2.77593 296.62 2.48592 296.942 2.52892 297.312C2.63692 298.251 2.74493 299.836 2.75893 300.042C2.86893 301.605 3.10293 301.378 4.20293 301.375C4.51293 301.374 4.78692 301.607 4.83192 301.914C5.34392 305.354 5.45292 308.674 5.67992 312.164C5.98892 316.895 6.38192 321.664 6.97792 326.391C6.97992 326.409 6.98292 326.427 6.98692 326.444C7.08192 326.889 7.17292 327.334 7.24092 327.779C7.28792 328.089 7.54592 328.323 7.85892 328.323C11.3589 328.323 14.8599 328.29 18.3599 328.279C20.3439 328.273 22.3289 328.268 24.3129 328.26C25.8409 328.254 27.4429 328.372 28.9609 328.124C29.4359 328.047 30.3179 321.846 30.4569 321.138C30.9299 318.72 31.3679 316.296 31.7999 313.87C32.5459 309.677 33.1499 305.402 34.0639 301.253C34.1229 300.984 34.3579 300.792 34.6319 300.765C35.3119 300.699 35.5309 300.406 35.5429 299.509C35.5529 298.775 35.5589 298.041 35.6189 297.31C35.6499 296.94 35.3709 296.619 34.9989 296.619H3.14893V296.62Z" fill="black"/>
<path d="M20.4249 270.498C20.1779 270.229 19.7469 270.148 19.4329 269.965C19.0579 269.746 18.7369 269.457 18.4809 269.106C18.2539 268.795 17.7429 269.071 17.9519 269.415C18.2139 269.847 18.5449 270.223 18.9519 270.523C19.3099 270.787 19.8359 271.123 20.2959 270.981C20.5099 270.916 20.5739 270.66 20.4249 270.498Z" fill="black"/>
<path d="M21.2509 261.259C20.7869 260.938 20.2879 260.686 19.7659 260.475C19.4469 260.346 19.2159 260.889 19.5299 261.035C19.9919 261.249 20.4339 261.502 20.8409 261.81C21.1829 262.069 21.4909 262.535 21.9409 262.558C22.0719 262.565 22.1989 262.437 22.1929 262.306C22.1689 261.823 21.6159 261.512 21.2509 261.259Z" fill="black"/>
<path d="M28.7709 262.782C28.2749 263.164 27.7229 263.523 27.3569 264.039C27.1789 264.291 27.5129 264.524 27.7389 264.421C28.2839 264.171 28.7319 263.699 29.1749 263.305C29.4529 263.058 29.0729 262.549 28.7709 262.782Z" fill="black"/>
<path d="M29.5859 265.36C29.1269 265.546 28.7109 265.785 28.3359 266.109C28.0349 266.37 27.5629 266.791 27.6169 267.227C27.6319 267.347 27.7339 267.467 27.8709 267.421C28.2289 267.3 28.4239 266.91 28.6889 266.656C29.0189 266.338 29.4039 266.104 29.8249 265.925C30.1439 265.79 29.9119 265.228 29.5859 265.36Z" fill="black"/>
<path d="M30.5859 249.416L29.5189 250.565C29.2089 250.899 28.8519 251.222 28.7049 251.662C28.6349 251.871 28.8759 252.001 29.0449 251.923C29.4609 251.731 29.7509 251.314 30.0459 250.974C30.3709 250.599 30.6949 250.224 31.0199 249.849C31.2739 249.554 30.8559 249.124 30.5859 249.416Z" fill="black"/>
<path d="M22.9099 249.901C22.6879 249.409 22.1719 249.036 21.7929 248.663C21.4959 248.371 21.0429 248.823 21.3359 249.12C21.7089 249.499 22.0829 250.014 22.5749 250.236C22.8039 250.34 23.0139 250.131 22.9099 249.901Z" fill="black"/>
<path d="M26.8299 244.639C26.6649 244.217 25.9779 244.396 26.1409 244.829C26.3299 245.33 26.2569 245.822 26.3809 246.324C26.4399 246.564 26.7819 246.601 26.9029 246.392C27.2029 245.876 27.0349 245.163 26.8299 244.639Z" fill="black"/>
<path d="M31.0759 279.561C30.3109 280.304 29.5039 281.016 28.7039 281.72C28.4239 281.966 28.7809 282.378 29.0869 282.217C30.0949 281.688 30.9389 281.033 31.7449 280.23C32.1769 279.799 31.5129 279.136 31.0759 279.561Z" fill="black"/>
<path d="M30.6379 286.738C29.9979 287.113 29.2609 287.457 28.7649 288.021C28.6029 288.205 28.7589 288.485 29.0029 288.43C29.7369 288.267 30.3929 287.787 31.0299 287.407C31.4579 287.152 31.0699 286.484 30.6379 286.738Z" fill="black"/>
<path d="M35.6049 300.712C30.6179 299.863 25.1449 300.375 20.0999 300.452C14.6659 300.535 9.23491 300.73 3.80791 301.008C3.19291 301.039 3.18991 302.002 3.80791 301.968C9.09191 301.672 14.3799 301.473 19.6709 301.374C24.8779 301.277 30.3859 301.841 35.5439 301.161C35.7709 301.13 35.8849 300.76 35.6049 300.712Z" fill="white"/>
<path d="M26.0079 248.85C24.0329 265.12 23.2949 281.487 20.7979 297.71C20.7239 298.188 21.4599 298.388 21.5259 297.911C23.7949 281.695 25.7969 265.219 26.4979 248.851C26.5109 248.528 26.0449 248.546 26.0079 248.85Z" fill="black"/>
<path d="M302.364 267.61C302.394 267.522 302.422 267.433 302.45 267.344C303.801 262.909 303.595 257.958 301.589 253.751C300.999 252.514 300.271 251.335 299.838 250.035C298.26 245.299 300.849 239.959 299.4 235.182C298.38 231.818 295.252 229.196 291.761 228.778C288.27 228.36 284.612 230.171 282.827 233.199C280.868 236.522 280.931 241.153 277.839 243.46C276.403 244.531 274.554 244.853 272.948 245.648C270.08 247.067 268.089 250.113 267.938 253.309C267.781 256.65 269.464 260.086 268.364 263.245C267.589 265.471 265.598 267.016 264.251 268.951C262.27 271.797 261.753 275.607 262.904 278.878C263.662 281.032 265.074 282.907 265.852 285.054C267.92 290.756 260.791 292.882 263.286 298.58C266.381 305.649 270.663 316.827 280.572 312.439C284.964 310.494 287.765 305.816 288.28 301.039C288.521 298.808 288.371 296.388 289.614 294.52C290.989 292.455 293.736 291.617 295.063 289.521C297.117 286.278 294.821 281.928 295.771 278.209C296.762 274.34 300.964 271.737 302.364 267.61Z" fill="black"/>
<path d="M259.888 297.611C257.871 293.967 256.629 289.438 258.43 285.683C258.753 285.01 259.17 284.37 259.334 283.642C259.64 282.285 259.021 280.912 258.455 279.641C256.458 275.161 254.972 269.817 257.299 265.499C257.816 264.54 258.509 263.665 258.863 262.634C259.301 261.356 259.178 259.961 258.997 258.622C258.514 255.06 257.656 251.54 257.496 247.949C257.336 244.358 257.949 240.58 260.112 237.709C261.528 235.83 263.965 234.37 266.185 235.147C268.146 235.833 269.176 237.952 269.831 239.923C270.932 243.234 271.557 246.703 271.68 250.19C271.741 251.924 271.685 253.699 272.239 255.343C273.727 259.762 279.177 262.097 280.186 266.649C280.964 270.158 278.781 273.797 279.458 277.327C280.236 281.386 284.657 284.747 283.539 288.726C283.018 290.579 281.383 291.901 280.554 293.639C278.703 297.522 281.283 302.177 280.397 306.386C277.702 319.198 262.637 302.577 259.888 297.611Z" fill="#C1596C"/>
<path d="M291.445 305.101C291.427 304.896 291.292 304.748 291.08 304.737C290.964 304.731 290.867 304.739 290.776 304.755C290.174 304.544 289.544 304.594 288.907 304.65C288.375 304.59 287.846 304.578 287.335 304.659C286.682 304.621 286.014 304.593 285.46 304.821C285.34 304.87 285.243 304.975 285.19 305.095L265.061 305.601C263.482 305.433 261.885 305.461 260.29 305.581C260.018 305.602 259.757 305.803 259.769 306.102C259.806 306.993 259.856 307.876 259.978 308.76C260.054 309.305 260.045 310.39 260.535 310.79C260.734 310.953 261.016 311.045 261.329 311.089L261.474 312.137C261.62 315.578 262.179 319.061 262.605 322.443C262.839 324.305 263.087 326.166 263.349 328.025C263.623 329.965 263.764 332.064 264.294 333.966C264.157 333.978 264.027 334.012 263.921 334.074C263.68 334.215 263.546 334.433 263.498 334.673C263.434 334.768 263.394 334.876 263.399 334.995C263.383 335.233 263.496 335.472 263.776 335.533C263.82 335.545 263.867 335.55 263.918 335.549C267.592 335.56 271.267 335.518 274.94 335.507C276.777 335.501 278.614 335.497 280.451 335.489C282.064 335.482 283.766 335.63 285.341 335.25C285.585 335.191 285.586 334.815 285.341 334.755C285.25 334.733 285.157 334.717 285.065 334.7C285.357 334.056 285.387 333.081 285.516 332.526C286.136 329.849 286.76 327.174 287.382 324.498C288.488 319.745 289.849 314.958 290.568 310.12C290.789 310.021 290.98 309.856 291.113 309.58C291.349 309.09 291.337 308.383 291.381 307.856C291.458 306.944 291.524 306.014 291.445 305.101Z" fill="black"/>
<path d="M274.319 304.739C273.202 298.839 272.113 292.934 271.074 287.019C268.996 275.197 267.313 263.306 265.222 251.487C265.185 251.278 264.824 251.324 264.848 251.538C266.164 263.256 268.213 274.924 270.216 286.54C271.236 292.459 272.293 298.372 273.41 304.273C274.521 310.143 275.427 316.152 277.026 321.912C277.101 322.183 277.575 322.141 277.535 321.843C276.772 316.107 275.395 310.424 274.319 304.739Z" fill="black"/>
<path d="M264.387 293.292C264.102 293.054 263.773 293.101 263.42 293.035C263.039 292.964 262.695 292.818 262.328 292.704C262.088 292.629 261.871 292.971 262.074 293.141C262.385 293.403 262.775 293.58 263.16 293.706C263.516 293.823 263.993 293.982 264.327 293.756C264.472 293.66 264.543 293.422 264.387 293.292Z" fill="black"/>
<path d="M263.906 290.567C263.673 290.645 263.293 290.864 263.128 290.534C263.013 290.304 262.614 290.408 262.635 290.667C262.667 291.072 262.862 291.385 263.261 291.529C263.65 291.669 264.191 291.603 264.385 291.191C264.531 290.883 264.287 290.439 263.906 290.567Z" fill="black"/>
<path d="M262.34 271.274C262.211 270.812 261.758 270.787 261.342 270.7C260.807 270.589 260.27 270.488 259.736 270.373C259.289 270.277 259.107 270.922 259.547 271.059C260.068 271.221 260.585 271.396 261.105 271.562C261.509 271.69 261.926 271.896 262.266 271.555C262.339 271.483 262.368 271.374 262.34 271.274Z" fill="black"/>
<path d="M263.789 244.114C263.542 243.962 263.277 244.258 263.405 244.498C263.658 244.967 263.812 245.397 263.948 245.91C264.067 246.36 264.803 246.282 264.776 245.798C264.74 245.129 264.358 244.463 263.789 244.114Z" fill="black"/>
<path d="M265.754 243.03C265.584 242.518 264.788 242.728 264.94 243.254C265.125 243.894 265.358 244.657 265.896 245.09C266.149 245.293 266.524 245.109 266.449 244.768C266.315 244.161 265.95 243.621 265.754 243.03Z" fill="black"/>
<path d="M274.572 267.511C273.944 268.132 273.363 269.046 273.584 269.961C273.639 270.189 273.979 270.236 274.091 270.027C274.448 269.358 274.617 268.659 275.16 268.098C275.533 267.715 274.954 267.134 274.572 267.511Z" fill="black"/>
<path d="M282.249 252.715C281.93 251.756 281.069 250.923 280.284 250.328C279.989 250.105 279.607 250.6 279.887 250.842C280.24 251.148 280.568 251.483 280.842 251.862C281.107 252.229 281.279 252.644 281.524 253.02C281.619 253.167 281.798 253.253 281.972 253.202C282.005 253.193 282.038 253.18 282.067 253.162C282.208 253.071 282.305 252.885 282.249 252.715Z" fill="white"/>
<path d="M282.817 249.274C282.413 248.877 281.974 248.513 281.55 248.138C281.226 247.852 280.798 248.285 281.078 248.61C281.448 249.039 281.807 249.484 282.198 249.893C282.588 250.3 283.219 249.67 282.817 249.274Z" fill="white"/>
<path d="M291.05 234.067C290.841 234.514 290.685 234.976 290.613 235.465C290.554 235.866 290.436 236.437 290.796 236.719C290.971 236.856 291.162 236.832 291.296 236.655C291.529 236.347 291.371 235.931 291.375 235.568C291.38 235.129 291.466 234.716 291.609 234.302C291.72 233.979 291.197 233.752 291.05 234.067Z" fill="white"/>
<path d="M296.798 260.444C296.277 260.28 295.717 260.315 295.22 260.541C294.777 260.743 294.224 261.177 294.248 261.717C294.26 261.989 294.543 262.163 294.788 262.027C295.088 261.86 295.27 261.546 295.573 261.372C295.888 261.192 296.233 261.125 296.589 261.203C297.083 261.313 297.283 260.596 296.798 260.444Z" fill="white"/>
<path d="M296.879 263.027C296.574 263.027 296.277 263.075 295.996 263.196C295.665 263.338 295.592 263.5 295.436 263.804C295.317 264.035 295.551 264.238 295.772 264.14C295.856 264.103 295.961 264.119 296.047 264.092C296.141 264.063 296.222 264.003 296.309 263.96C296.492 263.87 296.676 263.821 296.88 263.809C297.377 263.778 297.386 263.028 296.879 263.027Z" fill="white"/>
<path d="M297.325 265.502C296.982 265.431 296.644 265.321 296.299 265.427C296.143 265.475 296.057 265.697 296.196 265.817C296.472 266.052 296.796 266.092 297.143 266.164C297.574 266.254 297.758 265.592 297.325 265.502Z" fill="white"/>
<path d="M291.109 287.111C290.42 287.056 289.768 286.932 289.174 286.564C288.82 286.345 288.505 286.894 288.85 287.119C289.546 287.573 290.355 287.808 291.178 287.619C291.476 287.55 291.385 287.133 291.109 287.111Z" fill="white"/>
<path d="M291.521 285.576C290.895 285.487 290.274 285.437 289.69 285.174C289.371 285.03 289.088 285.487 289.41 285.653C290.066 285.99 290.787 286.206 291.52 286.032C291.735 285.981 291.758 285.609 291.521 285.576Z" fill="white"/>
<path d="M292.247 309.851C286.989 309.51 281.599 309.953 276.333 310.071C271.029 310.19 265.723 310.276 260.419 310.418C259.768 310.435 259.765 311.448 260.419 311.432C265.724 311.302 271.029 311.116 276.333 310.963C281.601 310.811 287.01 310.976 292.247 310.367C292.573 310.329 292.586 309.873 292.247 309.851Z" fill="white"/>
<path d="M82.1199 213.058H62.6359H41.7819H27.3049C17.9369 213.058 10.3429 205.464 10.3429 196.096V85.4503C10.3429 76.0823 17.9369 68.4883 27.3049 68.4883H78.5749C87.9429 68.4883 95.5369 76.0823 95.5369 85.4503V177.942L108.34 203.728L95.5369 199.642C95.5359 207.052 89.5299 213.058 82.1199 213.058Z" fill="#D9D9D9"/>
<path d="M78.5719 208.756H27.3079C20.7339 208.756 15.4039 203.427 15.4039 196.852V84.695C15.4039 78.121 20.7329 72.791 27.3079 72.791H78.5719C85.1459 72.791 90.4759 78.12 90.4759 84.695V196.852C90.4749 203.426 85.1459 208.756 78.5719 208.756Z" fill="white" stroke="black" stroke-miterlimit="10"/>
<path d="M109.624 67.8132C109.566 67.8062 108.823 67.8662 108.873 67.7092C109.263 66.5092 109.653 65.3102 110.043 64.1102C110.152 63.7742 110.598 62.4392 109.76 62.6512C109.401 62.7422 109.079 63.2542 108.94 63.5702C108.706 64.1012 108.599 64.6672 108.412 65.2122C108.179 65.8902 107.966 66.5742 107.741 67.2542C107.571 67.7702 107.517 68.5452 107.168 68.9652C106.919 69.2642 106.39 69.3582 106.158 69.0462C106.079 68.9402 106.047 68.8082 106.021 68.6792C105.932 68.2412 105.889 67.7952 105.836 67.3512C105.8 67.0562 105.752 66.7452 105.564 66.5152C105.375 66.2852 104.997 66.1852 104.778 66.3872C104.611 66.5412 104.6 66.7962 104.602 67.0232C104.611 68.3462 104.666 69.6692 104.765 70.9892C104.832 71.8712 104.92 72.7602 105.192 73.6022C105.319 73.9942 105.486 74.3782 105.538 74.7872C105.592 75.2112 105.519 75.6412 105.532 76.0682C105.561 77.0492 106.225 77.5102 107.177 77.3452C108.725 77.8032 110.158 75.9412 110.799 74.7282C112.156 72.1592 113.726 69.0772 114.205 66.1912C114.256 65.8862 113.868 65.7662 113.711 66.0172C113.398 66.5182 113.122 67.0432 112.869 67.5772C112.621 68.0992 112.45 68.7192 112.147 69.2052C111.968 69.0772 111.997 68.8132 112.069 68.6282C112.4 67.7652 112.732 66.9022 113.063 66.0392C113.328 65.3492 113.587 64.6462 113.563 63.8962C113.555 63.6412 113.517 63.4132 113.23 63.3522C112.997 63.3022 112.761 63.4332 112.689 63.6612C112.199 65.2082 111.625 66.7192 110.982 68.2072C110.889 68.1702 110.796 68.1342 110.688 68.0962C111.401 66.2202 112.024 64.3042 112.614 62.3942C112.773 61.8792 111.899 61.5612 111.711 62.0772C111.015 63.9882 110.319 65.9002 109.624 67.8132Z" fill="#ED926E"/>
<path d="M49.6309 103.07C51.0359 101.579 53.1849 100.68 55.2399 100.848C56.2289 100.929 57.1919 101.272 57.9589 101.911C58.3789 102.261 58.7269 102.688 59.0019 103.159C59.2479 103.581 59.7739 104.1 59.7729 104.578C59.7689 106.856 59.7999 109.139 60.0189 111.409C60.1299 112.553 60.2879 113.694 60.5219 114.82C60.6359 115.37 60.7679 115.917 60.9229 116.457C61.0409 116.872 61.1499 117.462 61.4109 117.812C61.4839 117.909 61.5809 117.992 61.6839 118.056C61.9519 118.223 62.2669 118.288 62.5679 118.384C63.6079 118.715 63.2079 120.009 62.7989 120.722C62.3359 121.527 61.5609 122.124 60.8099 122.643C60.1089 123.127 59.4909 123.724 58.8709 124.305C56.6169 126.418 55.3379 127.23 52.2929 126.248C49.9229 125.484 47.7679 124.042 46.1829 122.12C45.5239 121.32 45.0169 120.331 45.1959 119.269C45.2519 118.934 45.3979 118.602 45.6589 118.385C46.1819 117.951 47.0059 118.08 47.5449 117.666C48.0439 117.282 48.1399 116.653 48.1879 116.076C48.2499 115.312 48.3239 114.549 48.3689 113.784C48.4599 112.228 48.4859 110.668 48.4469 109.11C48.4189 107.991 48.1149 106.681 48.2419 105.588C48.3459 104.67 49.0199 103.719 49.6309 103.07Z" fill="#ED926E"/>
<path d="M81.2939 117.594C79.9019 118.104 78.3839 118.283 76.9059 118.338C74.3359 118.434 71.7629 118.456 69.1919 118.403C67.1439 118.361 65.0999 118.223 63.0549 118.228C62.9959 118.228 62.9349 118.229 62.8819 118.254C62.7169 118.332 62.5559 118.609 62.4419 118.754C62.2839 118.955 62.1279 119.157 61.9719 119.36C61.6519 119.775 61.3349 120.192 61.0079 120.601C60.3029 121.482 59.1489 122.239 58.1119 122.666C55.5039 123.74 52.5839 123.429 49.9469 122.598C49.0029 122.301 48.0749 121.832 47.3739 121.121C46.5799 120.317 46.4179 119.299 46.2469 118.214C46.0879 117.201 35.0999 121.19 34.2309 121.672C31.9129 122.958 29.8239 124.748 28.5049 127.047C27.8429 128.2 27.3869 129.457 26.9329 130.706C26.3739 132.245 25.8159 133.783 25.2579 135.322C24.9059 136.291 24.5539 137.261 24.2679 138.251C23.1559 142.096 23.0569 146.15 22.9659 150.152C26.6919 150.446 30.3669 150.178 34.0849 149.968C34.6309 149.937 35.0679 149.501 35.0969 148.955C35.1339 148.256 35.1029 142.494 35.7279 142.749C35.9269 142.83 36.0279 143.049 36.0949 143.253C36.6679 145.011 35.8409 146.838 36.2609 148.576C36.6249 150.085 37.6799 149.736 38.9129 149.636C40.8329 149.48 42.7589 149.376 44.6819 149.246C51.6719 148.774 58.6619 148.302 65.6569 147.91L69.9899 147.668C70.8499 147.62 71.4899 146.865 71.4109 146.008C70.8349 139.755 73.9169 140.46 79.5599 139.287C85.0479 138.146 90.0009 134.926 94.0549 131.151C96.1319 129.217 98.0209 127.075 99.6629 124.76C100.421 123.692 101.104 122.587 101.732 121.443C102.331 120.351 103.258 119.698 103.983 118.701C104.342 118.207 104.569 117.631 104.787 117.061C106.007 113.865 107.062 110.597 107.769 107.247C108.454 103.999 108.229 100.602 108.915 97.4189C110.372 90.6519 110.595 83.6199 110.942 76.7299C110.946 76.6539 110.95 76.5779 110.953 76.5019C108.899 75.7609 106.845 75.0209 104.791 74.2799C104.399 74.1579 97.9489 92.0979 97.3099 93.9349C96.3109 96.8069 95.5569 99.7629 95.0679 102.765C94.9339 103.589 94.8169 104.427 94.4869 105.194C93.6799 107.074 91.7799 108.188 90.1499 109.424C88.7559 110.48 87.4919 111.706 86.3919 113.066C85.3959 114.297 84.5129 115.661 83.2269 116.585C82.6239 117.017 81.9739 117.345 81.2939 117.594Z" fill="black"/>
<path d="M53.4629 112.309C57.5283 112.309 60.8239 108.054 60.8239 102.806C60.8239 97.5574 57.5283 93.3027 53.4629 93.3027C49.3976 93.3027 46.1019 97.5574 46.1019 102.806C46.1019 108.054 49.3976 112.309 53.4629 112.309Z" fill="#ED926E"/>
<path d="M47.9359 102.691C47.7859 102.286 47.5429 101.917 47.2029 101.655C47.0599 101.545 46.8979 101.454 46.7209 101.417C46.4479 101.36 46.1609 101.439 45.9159 101.572C44.6509 102.256 43.9329 104.383 45.1139 105.465C45.4949 105.814 45.9639 106.035 46.4919 106.035C47.1789 106.035 47.8879 105.701 48.0129 105.006C48.1199 104.41 48.1789 103.797 48.0739 103.201C48.0429 103.028 47.9969 102.856 47.9359 102.691Z" fill="#ED926E"/>
<path d="M62.1899 102.716C61.8089 102.367 61.3399 102.146 60.8119 102.146C60.3119 102.146 59.7869 102.363 59.4339 102.716C59.2439 102.892 59.1099 103.101 59.0309 103.342C58.9089 103.574 58.8529 103.824 58.8629 104.091C58.8859 104.594 59.0509 105.116 59.4339 105.466C59.8149 105.815 60.2839 106.036 60.8119 106.036C61.6609 106.036 62.4389 105.457 62.6799 104.644C62.8739 103.99 62.7029 103.185 62.1899 102.716Z" fill="#ED926E"/>
<path d="M60.9299 95.1083C60.5759 94.4203 60.1149 93.8213 59.5359 93.3843C58.5679 92.6533 57.3739 92.2883 56.1859 92.0433C55.4099 91.8833 54.6139 91.7663 53.8959 91.4333C51.9919 90.5513 50.9709 88.1973 48.5139 89.2123C47.2189 89.7483 46.3439 91.0513 46.0659 92.4253C45.9659 92.9183 45.9339 93.4353 46.0639 93.9203C46.1589 94.2753 46.3369 94.6053 46.4129 94.9653C46.6049 95.8813 46.4099 96.9133 46.4059 97.8363C46.4019 98.9223 46.2209 100.005 46.2269 101.098C46.2279 101.325 46.2329 101.555 46.3039 101.771C46.4759 102.294 47.0069 102.647 47.1439 103.18C47.1939 103.375 47.1889 103.587 47.2849 103.763C47.3809 103.939 47.6449 104.048 47.7819 103.901C47.8419 103.836 47.8579 103.743 47.8689 103.655C48.0409 102.206 46.9799 99.0003 48.6729 98.1063C49.9429 97.4353 51.5509 97.3163 52.9599 97.2663C54.7989 97.2023 57.1529 96.6273 58.7499 97.6913C60.3159 98.7353 60.2339 100.427 60.1239 102.055C60.0989 102.423 60.0829 102.826 60.2989 103.125C60.3319 103.17 60.3739 103.215 60.4289 103.223C60.4909 103.232 60.5479 103.192 60.5969 103.153C61.2919 102.591 61.6049 101.682 61.7509 100.801C62.0319 99.1103 61.8169 96.8313 60.9299 95.1083Z" fill="black"/>
<path d="M54.8829 111.927C54.3469 111.902 53.8179 112.014 53.2799 112.008C52.8669 112.003 52.4129 111.854 52.0329 112.043C51.9879 112.065 51.9639 112.141 51.9959 112.183C52.2859 112.56 52.8319 112.57 53.2799 112.608C53.8639 112.657 54.4729 112.64 55.0069 112.384C55.2409 112.273 55.1079 111.937 54.8829 111.927Z" fill="black"/>
<path d="M53.5099 105.229C53.4989 105.146 53.4589 105.067 53.3699 105.045C53.1459 104.99 53.2479 104.831 53.2669 104.606C53.2949 104.271 53.3289 103.937 53.3599 103.603C53.4159 103.005 53.5179 102.399 53.4279 101.801C53.3999 101.612 53.1409 101.657 53.0889 101.801C52.7879 102.624 52.8009 103.615 52.7069 104.48C52.6569 104.939 52.5839 105.614 53.2349 105.589C53.3739 105.584 53.5399 105.462 53.5199 105.304C53.5159 105.28 53.5129 105.254 53.5099 105.229Z" fill="black"/>
<path d="M46.6089 103.911L46.6079 103.909V103.819C46.8299 103.551 46.4919 103.207 46.2249 103.436C45.9949 103.632 45.9219 103.916 46.0269 104.199C46.1669 104.577 46.7449 104.433 46.6399 104.03C46.6299 103.99 46.6189 103.95 46.6089 103.911Z" fill="black"/>
<path d="M61.6429 103.829C61.6999 103.417 61.0749 103.231 61.0069 103.654C60.9439 104.044 61.0079 104.342 61.3909 104.5C61.5259 104.556 61.6769 104.416 61.6739 104.285C61.6709 104.154 61.6269 103.943 61.6429 103.829Z" fill="black"/>
<path d="M55.2909 107.709C55.2969 107.614 55.2869 107.519 55.2599 107.426C54.8429 107.506 54.4249 107.586 54.0029 107.64C53.5259 107.701 52.3969 107.506 52.0499 107.844C51.4789 108.401 52.4019 108.657 52.8289 108.743C53.5539 108.888 54.2469 109.026 54.8659 108.507C55.1029 108.309 55.2729 108.012 55.2909 107.709Z" fill="white"/>
<path d="M76.7089 164.972C59.4009 164.59 41.8799 164.806 24.5679 165.269V166.026C41.8799 166.489 59.4009 166.705 76.7089 166.323C76.7519 166.328 76.7819 166.314 76.8219 166.313V164.98C76.7819 164.981 76.7519 164.968 76.7089 164.972Z" fill="black"/>
<path d="M50.2329 169.05C41.8059 169.058 32.9809 168.527 24.5679 169.26V170.191C32.9809 170.924 41.8049 170.393 50.2329 170.401C59.0839 170.409 67.9749 170.614 76.8219 170.396V169.055C67.9749 168.837 59.0839 169.042 50.2329 169.05Z" fill="black"/>
<path d="M63.9449 172.774C59.4179 172.778 54.8899 172.777 50.3629 172.786C41.8909 172.803 33.0259 172.29 24.5679 172.991V174.153C33.0269 174.854 41.8899 174.34 50.3629 174.358C54.6749 174.367 58.9869 174.366 63.2979 174.37C67.7249 174.374 72.4049 174.697 76.8219 174.305V172.84C72.6089 172.468 68.1659 172.77 63.9449 172.774Z" fill="black"/>
<path d="M50.2329 180.237C41.8059 180.245 32.9809 179.714 24.5679 180.447V181.379C32.9809 182.112 41.8049 181.581 50.2329 181.589C59.0839 181.597 67.9749 181.802 76.8219 181.584V180.243C67.9749 180.024 59.0839 180.229 50.2329 180.237Z" fill="black"/>
<path d="M63.9449 183.962C59.4179 183.966 54.8899 183.965 50.3629 183.974C41.8909 183.991 33.0259 183.478 24.5679 184.179V185.341C33.0269 186.042 41.8899 185.528 50.3629 185.546C54.6749 185.555 58.9869 185.554 63.2979 185.558C67.7249 185.562 72.4049 185.885 76.8219 185.493V184.028C72.6089 183.656 68.1659 183.958 63.9449 183.962Z" fill="black"/>
<path d="M76.1869 192.675C75.5589 191.276 73.8379 191.145 72.5699 191.744C71.9879 191.881 71.478 192.289 71.208 192.933C70.729 194.075 71.2319 195.363 72.2429 196.026C74.4169 197.452 77.2629 195.072 76.1869 192.675Z" fill="#91BBE3"/>
<path d="M67.7359 193.318C67.4969 191.545 65.2449 190.044 63.6269 191.208C63.5079 191.293 63.4489 191.413 63.4169 191.537C62.9169 191.906 62.5209 192.477 62.3659 193.076C61.9569 194.66 63.1719 196.204 64.7549 196.381C66.4669 196.572 67.9649 195.018 67.7359 193.318ZM65.1649 195.019C64.4009 195.132 63.6239 194.537 63.5509 193.769C63.5109 193.346 63.7999 192.646 64.2329 192.252C64.9539 192.352 65.7349 192.318 66.1329 193.038C66.5709 193.833 66.0759 194.885 65.1649 195.019Z" fill="#91BBE3"/>
<path d="M57.5909 191.211C56.6539 190.332 54.9189 190.517 54.2079 191.575C53.1749 192.408 53.1419 194.114 53.8979 195.179C54.8149 196.471 56.6699 196.514 57.6089 195.245C58.4419 194.121 58.6989 192.25 57.5909 191.211ZM57.0219 194.116C56.7299 194.82 56.0909 195.243 55.4699 195.103C55.7939 194.18 56.1179 193.256 56.4419 192.333C56.4769 192.235 56.4649 192.138 56.4279 192.053C56.4469 192.029 56.4629 191.994 56.4849 191.986C56.5399 191.966 56.5729 191.926 56.5939 191.881C57.4119 192.268 57.3119 193.418 57.0219 194.116Z" fill="#91BBE3"/>
<path d="M61.6059 113.877C60.3159 118.773 56.6699 122.944 51.5409 123.939C48.5379 124.521 45.6959 123.613 43.7049 121.296C42.0899 119.417 41.3929 117.097 40.2289 114.964C40.0509 114.637 39.6079 114.875 39.6639 115.202C40.6119 120.74 45.0689 125.832 51.0279 125.089C56.6749 124.385 61.4839 119.674 62.6239 114.158C62.7599 113.498 61.7799 113.215 61.6059 113.877Z" fill="white"/>
<path d="M42.1529 216.514C42.3419 217.496 42.5519 218.475 42.7799 219.448" stroke="black" stroke-miterlimit="10"/>
<path d="M44.3159 225.031C48.6799 238.836 56.9279 251.411 67.8769 260.885" stroke="black" stroke-miterlimit="10" stroke-dasharray="5.79 5.79"/>
<path d="M70.0959 262.734C70.8769 263.359 71.6699 263.969 72.4749 264.563" stroke="black" stroke-miterlimit="10"/>
<path d="M243.522 240.264C236.865 258.035 221.225 272.171 202.874 277.004" stroke="black" stroke-miterlimit="10" stroke-dasharray="6 6"/>
<path d="M160.558 92.1719C142.629 101.387 128.277 117.359 121.026 136.168C113.774 154.977 113.689 176.449 120.792 195.315" stroke="black" stroke-miterlimit="10" stroke-dasharray="6 6"/>
<path d="M59.4559 62.179C63.4629 42.264 77.6209 25.623 94.5549 15.078C113.237 3.44405 136.048 -1.02195 157.804 1.83905C170.188 3.46805 182.282 7.49705 192.995 13.951" stroke="black" stroke-miterlimit="10" stroke-dasharray="6 6"/>
</svg>
